<?xml version="1.0" encoding="utf-8"?>
<!-- Generator: Adobe Illustrator 24.1.2, SVG Export Plug-In . SVG Version: 6.00 Build 0)  -->
<svg version="1.1" id="Camada_1" xmlns="http://www.w3.org/2000/svg" xmlns:xlink="http://www.w3.org/1999/xlink" x="0px" y="0px"
	 viewBox="0 0 599.77 252.76" style="enable-background:new 0 0 599.77 252.76;" xml:space="preserve">
<style type="text/css">
	.st0{fill:#FEF6F0;}
	.st1{fill:#FEE6D6;}
</style>
<path class="st0" d="M276.4,251.77c-7.65,0-15.3-0.01-22.95-0.01c-1.84-1.28-4.14,0.25-5.99-0.99c-5.99,0-11.97-0.01-17.96-0.01
	c-1.49-1.21-3.5,0.18-4.99-0.99c-12,0.69-23.94-1.17-35.92-1c-1.49-1.21-3.5,0.18-4.99-0.99c-20.34-0.21-40.5-2.45-60.69-4.83
	c-18.88-2.23-37.56-5.29-55.94-10.1c-2.07-0.54-4.08-1.32-6.12-1.99c-0.36-2.78,1.58-3.85,3.63-4.84c1.67-0.44,3.3-0.08,4.92,0.29
	c26.63,6.13,53.67,9.25,80.9,11.21c18.05,1.3,36.11,2.32,54.2,3.03c17.09,0.67,34.2,1.08,51.26,2.04
	c23.61,1.33,47.22,1.14,70.79,0.6c40.29-0.93,79.65-7.59,117.44-22.3c23.1-9,45.76-18.95,67.92-29.99
	c12.04-6,24.65-10.86,36.13-17.99c13.25-8.24,22.73-19.34,26.25-34.81c4.18-18.4-2.41-34-13.56-48.05
	c-12.26-15.45-28.76-25.41-46.25-33.81c-24.78-11.89-51.34-18.09-78.01-23.91c-26.32-5.74-52.73-10.98-79.4-14.9
	c-29.84-4.39-59.52-4.15-89.28,1.37c-34.16,6.33-68.69,10.59-102.58,18.44C138.55,43.4,112.42,51.07,88,63.64
	c-22.48,11.57-41.74,27.07-57.17,47.18c-1.52,1.98-2.55,4.87-5.92,4.58c2.65-6.53,7.35-11.72,11.7-17.04
	c13.43-16.4,29.31-30.05,47.7-40.7c12.2-7.07,24.9-13.14,38.16-17.96c34.15-12.43,69.53-19.88,105.27-25.91
	c22.12-3.73,44.11-8.27,66.3-11.42c16.83-2.39,33.8-3.03,50.95-1.69c41.03,3.19,80.77,12.86,120.73,21.79
	c27.5,6.14,54.06,14.59,78.8,28.13c20.41,11.17,37.67,25.76,48.68,46.75c3.16,6.02,4.43,12.67,6.54,19.04c0,6.3,0,12.61,0,18.91
	c-3.68,22.24-17.64,36.29-36.86,46.25c-27.72,14.37-55.49,28.62-84.2,40.97c-27.1,11.66-54.81,21.37-84.03,26.11
	c-9.8,1.59-19.61,3.7-29.67,3.11c-2.17,0.02-4.36-0.14-6.48,0.47c-4.01,0.03-8.02,0.01-12.03,0.01c-3.4,0.29-6.85-0.61-10.21,0.51
	c-16.63,0-33.27,0-49.9,0C283.17,251.34,279.63,253.12,276.4,251.77z"/>
<path class="st1" d="M24.92,115.41c3.55-2.38,5.28-6.29,7.88-9.45c21.76-26.49,49.75-43.71,81.65-55.36
	c28.08-10.25,57.04-16.86,86.44-21.86c26.84-4.56,53.62-9.43,80.52-13.59c17.37-2.68,34.87-2.87,52.49-1.51
	c28.25,2.18,55.95,7.48,83.57,13.24c29.79,6.21,59.7,12.05,88.02,23.78c17.76,7.35,34.52,16.53,48.4,29.76
	c13.59,12.95,23.42,28.39,22.9,48.29c-0.44,16.82-8.01,30.08-20.98,40.42c-7.96,6.35-17.21,10.43-26.34,14.83
	c-19.13,9.22-38.21,18.55-57.66,27.1c-29.34,12.89-59.41,23.57-91.19,28.58c-14.18,2.23-28.48,3.5-42.86,4.37
	c-24.26,1.46-48.5,0.85-72.72,0.58c-17.87-0.2-35.76-1.2-53.63-1.94c-12.72-0.52-25.47-1.03-38.16-1.95
	c-20.57-1.49-41.17-2.79-61.64-5.59c-15.4-2.1-30.69-4.59-45.8-8.18c-0.63-0.15-1.32-0.04-1.99-0.05
	c-4.47,0.46-8.46-1.37-12.53-2.69c-12.5-4.08-24.63-8.96-35.1-17.17c-5.81-4.56-10.4-10.1-13.24-16.98
	c-5.6-14.5-2.64-28.08,3.78-41.62C12.15,137.03,18.42,126.17,24.92,115.41z"/>
</svg>
