<?xml version="1.0" encoding="utf-8"?>
<!-- Generator: Adobe Illustrator 24.1.2, SVG Export Plug-In . SVG Version: 6.00 Build 0)  -->
<svg version="1.1" id="Camada_1" xmlns="http://www.w3.org/2000/svg" xmlns:xlink="http://www.w3.org/1999/xlink" x="0px" y="0px"
	 viewBox="0 0 1000 1000" style="enable-background:new 0 0 1000 1000;" xml:space="preserve">
<path d="M849.6,979.8c-6.3-2.5-12.4-5.1-18.8-7.3c-30.4-10.5-60.9-20.8-91.4-31.2c-26.4-9-52.8-17.9-79.1-27
	c-25-8.5-49.9-17.2-74.8-25.7c-19-6.5-38-13-57-19.3c-6.9-2.3-11.3-7.1-11.7-13.4c-0.5-7,2.5-12.2,9.6-15.3
	c23.3-10.4,46.7-20.7,70.1-31.1c37.6-16.6,75.3-33.2,112.9-49.8c42-18.5,84.1-37,126.2-55.6c33.1-14.6,66.1-29.3,99.2-43.9
	c6.5-2.9,13.1-5.7,19.6-8.6c6.3-2.9,12.2-2,17,2.8c4.5,4.5,5.6,10,3.3,16.1c-10.6,29.2-21,58.4-31.6,87.6
	c-17.3,48.1-34.7,96.2-52,144.2c-8.1,22.3-15.9,44.7-24.4,66.9c-1.6,4.1-6,7.1-9.2,10.6C855,979.8,852.3,979.8,849.6,979.8z
	 M574.7,851.8c0.2,0.6,0.4,1.2,0.5,1.8c33.5,11.5,67.1,23,100.6,34.5c30.3,10.4,60.5,20.9,90.8,31.3c24,8.3,48,16.4,72,24.8
	c3.6,1.2,5.3,0.9,6.6-3.1c2.3-7.4,5.2-14.7,7.9-22c10.9-30.1,21.9-60.2,32.7-90.3c14.2-39.3,28.3-78.7,42.4-118
	c1.9-5.3,3.6-10.6,5.5-16c-0.5-0.3-0.9-0.6-1.4-1C813.1,746.6,693.9,799.2,574.7,851.8z"/>
<path d="M19.6,639.8c2.8-8.3,5.5-16.7,8.5-24.9c6.5-17.5,18.2-32,28.3-47.3c19.4-29.4,39.1-58.6,58.6-87.9
	c40.6-60.9,81.2-121.9,121.8-182.8c4.2-6.3,8.4-12.6,13.3-20.1c0.2,2.7,0.4,4.1,0.4,5.5c0,14.2,0.2,28.3-0.1,42.5
	c-0.1,3.1-1,6.7-2.7,9.2c-49.3,74.2-98.7,148.3-148.1,222.4c-1,1.5-1.9,3-3.7,5.7c4.6-0.4,7.9-0.5,11.3-0.9
	c14.5-1.7,28.6,0.3,42.4,4.6c4,1.3,5.8,0.4,7.2-2.2c7.1,7.2,14.3,14.3,21.6,21.7c-1.7,2.6-3.6,5.7-5.7,8.6c-4.9,7-11.8,9.3-19.6,5.6
	c-15.1-7.3-30.8-10.4-47.4-8c-29.8,4.4-54.7,26-56,56.9c-1.2,27.6,16.2,55.1,45.1,63.3c13.3,3.8,27.4,5.1,41.2,7.3
	c15.4,2.4,30.9,4.5,46.4,6.7c19.1,2.8,38.2,5.6,57.2,8.5c18.7,2.8,37.5,5.7,56.2,8.5c14.6,2.2,29.3,4.3,43.9,6.4
	c14.6,2.2,29.3,4.4,43.9,6.6c14.3,2.1,28.6,4.3,42.9,6.5c15.5,2.3,30.9,4.6,46.4,6.9c22.9,3.4,45.7,6.7,68.6,10.1
	c9.7,1.4,19.4,2.8,29.1,4.2c1.5,0.2,3,1,6,1.9c-11.5,5.1-21.5,9.5-31.6,14c-1.4,0.6-2.8,1.1-4.1,1.8c-9.2,5.4-18.7,5.9-29.1,4.1
	c-27.2-4.7-54.5-8.6-81.8-12.7c-23.5-3.5-47.1-6.7-70.6-10.2c-18.6-2.8-37.1-5.8-55.7-8.6c-22.5-3.3-45.1-6.4-67.6-9.8
	c-18.9-2.8-37.8-5.8-56.7-8.6c-18.9-2.8-37.9-5.3-56.8-8.4c-16.2-2.6-32.7-3.6-47.9-10.9c-29-14.1-46.8-36.9-53.3-68.5
	c-0.3-1.7-1.3-3.3-1.9-4.9C19.6,655.2,19.6,647.5,19.6,639.8z"/>
<path d="M412.6,193.7c0-3.5,0-6.3,0-9.1c0-21.7,0.1-43.3-0.1-65c-0.1-9.2,3.8-15,12-19.4c18.4-10.1,36.3-21.1,54.6-31.3
	c4-2.2,9-3.9,13.6-3.9c57.2-0.3,114.3-0.2,171.5-0.2c12.7,0,19.8,7.1,19.9,19.8c0,54.5,0,109,0,163.5c0,2,0,4,0,6.7
	c2.3,0,4.2,0,6.2,0c26.5,0,53,0,79.5,0c13.4,0,20,6.6,20,20c0,70.3,0.1,140.7-0.1,211c0,5.5,1.5,8.1,6.7,10.1
	c13.5,5.3,26.4,12.1,36.3,23.1c13.2,14.6,13,32.8-0.5,47.2c-10.3,11-23.4,17.6-37,23.1c-29.6,12.1-60.6,18.9-92,24.2
	c-79.8,13.5-160.3,17-241.1,14.8c-34.9-1-69.9-3.6-104.7-6.9c-40.6-3.9-80.9-10.5-120.2-22c-19-5.6-37.7-12.2-54.3-23.4
	c-3.2-2.1-6.2-4.6-9-7.2c-17.2-16.2-17.1-37.2,0.2-53.3c11.8-11,26.2-17.7,41.2-23c12.5-4.4,25.3-8.3,38.2-11.7
	c5.1-1.3,6.2-3.5,6.2-8.5c-0.2-73.8,0.2-147.7-0.4-221.5c-0.1-13.3,3.5-21.7,15.8-27.7c14.9-7.3,29.1-16.2,43.3-24.9
	c6.4-3.9,13.1-4.7,20.1-4.7c22.7-0.1,45.3,0,68,0C408.2,193.7,410,193.7,412.6,193.7z M566.5,546.2c12.1,0,23.5,0,34.9,0
	c0-141.6,0-282.8,0-423.9c-55.7,0-111.1,0-166.4,0c0,141.5,0,282.6,0,423.9c12.3,0,24.3,0,36.7,0c0-2.2,0-4.1,0-5.9
	c0-20.5-0.1-41,0-61.5c0-11.2,6.9-18.1,18.1-18.2c19.5-0.1,39-0.1,58.5,0c11,0.1,18.1,7.2,18.2,18.2c0.1,15.5,0,31,0,46.5
	C566.5,532.1,566.5,538.9,566.5,546.2z M282,250.8c0,98.6,0,196.9,0,295.4c12.8,0,25.2,0,38.2,0c0-2.1,0-3.9,0-5.7
	c0-10.8-0.1-21.7,0-32.5c0.1-11.2,7.4-18.4,18.5-18.5c6.8-0.1,13.7-0.1,20.5,0c11.3,0.1,18.4,7.1,18.5,18.4c0.1,11,0,22,0,33
	c0,1.8,0.1,3.5,0.2,5.2c11.6,0,22.7,0,33.8,0c0-98.7,0-196.9,0-295.3C368.3,250.8,325.3,250.8,282,250.8z M707.4,448.6
	c-18.1,0-35.6,0.2-53.1-0.1c-10.3-0.1-17.4-7.6-17.6-17.9c-0.1-6.2-0.1-12.3,0-18.5c0.2-10,7.4-17.2,17.5-17.4
	c6.2-0.1,12.3,0,18.5,0c11.4,0,22.9,0,34.5,0c0-27.8,0-55.2,0-82.5c-27.4,0-54.5,0-81.5,0c0,6.7,0,13,0,19.8c2.1,0,3.9,0,5.7,0
	c13.7,0,27.3,0,41,0c12.4,0,19.3,6.9,19.3,19.1c0,5.3,0,10.7,0,16c-0.1,11.7-7,18.6-18.7,18.7c-14,0.1-28,0-42,0c-1.8,0-3.5,0-5.1,0
	c0,53.8,0,106.9,0,159.8c3.6,0,6.7,0,10.3,0c0-2.1,0-3.9,0-5.7c0-10-0.1-20,0-30c0.1-11.3,6.9-18,18.1-18.1c6-0.1,12-0.1,18,0
	c8.4,0.2,14.6,5.2,16.4,13.4c0.6,2.6,0.6,5.3,0.7,7.9c0.1,10.8,0,21.6,0,32.9c4.2,0,7.9,0,11.5,0c6.4,0,6.7-0.3,6.7-6.9
	c0-28.7,0-57.3,0-86C707.6,451.6,707.4,450.2,707.4,448.6z M729.7,530.6c11.9-6.8,22.6-13.1,33.5-19.1c3.3-1.8,4.6-3.9,4.5-7.8
	c-0.2-36.8-0.3-73.6-0.3-110.4c0-32.8,0.1-65.6,0.2-98.4c0-1.9,0-3.8,0-6.4c-1.8,0.9-2.8,1.4-3.8,1.9c-9.8,5.6-19.5,11.5-29.4,16.9
	c-3.5,1.9-4.8,4-4.8,8.1c0.1,69.8,0.1,139.5,0.1,209.3C729.7,526.2,729.7,527.9,729.7,530.6z M661.7,101
	c-11.7,6.7-22.4,13.1-33.3,19.1c-3.4,1.9-4.6,3.9-4.6,7.7c0.1,47.5,0.1,95,0.1,142.5c0,1.7,0,3.5,0,6.1
	c11.8-6.8,22.5-13.1,33.4-19.1c3.4-1.9,4.4-4.1,4.4-7.9c-0.1-47.7-0.1-95.3-0.1-143C661.7,105,661.7,103.5,661.7,101z M493.9,545.1
	c1.6,0.1,2.9,0.4,4.2,0.4c13.8,0,27.6-0.1,41.4,0.1c3.8,0.1,4.8-1.1,4.8-4.8c-0.2-17.8-0.1-35.6-0.1-53.4c0-1.4-0.2-2.9-0.3-4.4
	c-16.9,0-33.3,0-50,0C493.9,503.7,493.9,524.1,493.9,545.1z M629.3,88.6c-0.1-0.4-0.2-0.9-0.3-1.3c-1.9,0-3.9,0-5.8,0
	c-39.5,0-79,0.5-118.4-0.3c-12.4-0.2-20.2,7.4-29.8,12.1c0.6,0.5,1.1,0.6,1.6,0.6c43.6,0,87.3,0,130.9,0c1.1,0,2.4-0.1,3.3-0.6
	C617,95.7,623.2,92.1,629.3,88.6z M412.4,228c0-4.3,0-8,0-12c-1.4-0.1-2.5-0.3-3.6-0.3c-22.8,0-45.6-0.2-68.3,0.2
	c-9.3,0.1-15.4,7.4-22.8,12.1C349,228,380.4,228,412.4,228z M731.9,277.7c-18.7,0-35.8,0.7-52.9-0.2c-11.7-0.6-19,6.9-27.9,11.7
	c16.1,0.5,32.1-0.4,47.9,0.8C712.1,291,720.8,283.6,731.9,277.7z M630.6,363.5c13.1,0,25.9,0,38.8,0c0-3.1,0-5.9,0-8.9
	c-13,0-25.8,0-38.8,0C630.6,357.7,630.6,360.5,630.6,363.5z M355.4,512.1c-4.3,0-8.4,0-12.7,0c0,9.3,0,18.3,0,27.7
	c4.3,0,8.4,0,12.7,0C355.4,530.4,355.4,521.4,355.4,512.1z M658.9,425.8c13.1,0,25.8,0,38.7,0c0-3.1,0-5.8,0-9c-6.6,0-12.9,0-19.2,0
	c-6.4,0-12.9,0-19.5,0C658.9,420,658.9,422.6,658.9,425.8z M666.8,541.9c0-9.5,0-18.7,0-27.9c-3,0-5.6,0-8.3,0c0,9.4,0,18.6,0,27.9
	C661.5,541.9,664.1,541.9,666.8,541.9z"/>
<path d="M793.4,256.1c11,0,21.2,0,32.2,0c-3.2-11.6-6.1-22.4-9.2-33.2c-4.6-16.3-9.3-32.6-14.1-48.8c-0.5-1.5-1.7-2.9-2.5-4.3
	c-1,1.5-2.6,2.9-3,4.5c-5.4,18.7-10.6,37.4-15.8,56.1c-1.3,4.6-2.5,9.3-4,13.9c-0.4,1.1-2,2.4-3,2.5c-8.8,0.2-17.6,0.1-27.2,0.1
	c1.8-6.7,3.5-12.9,5.2-19.1c5.7-20.5,11.5-40.9,17-61.4c0.4-1.4-1.6-4.1-3.1-5.2c-17-12.5-25.6-29.4-25.7-50.4
	c-0.1-24.5,16.1-47.2,39.2-55.5c4.3-1.5,6.2-3.5,5.6-8.2c-0.5-3.8-0.1-7.7-0.1-11.5c0.1-9.1,6.5-15.8,15.1-15.7
	c8.2,0.1,14.5,6.8,14.6,15.7c0.1,5.3-1.7,11.7,0.6,15.7c2.2,3.8,8.7,4.9,13.2,7.4c39.8,22.3,43.1,75.7,6.2,102.6
	c-3.7,2.7-3.8,5.3-2.8,8.8c3.8,13.6,7.6,27.2,11.5,40.8c4.2,15,8.6,30,12.6,45.1c0.8,3.1,2.3,4.1,5.2,4c3.5-0.1,7-0.1,10.5,0
	c8.1,0.3,14.5,6.9,14.4,14.9c0,8-6.4,14.4-14.5,14.8c-1.6,0.1-3.3,0.2-5.7,0.3c2,7.4,3.7,14.4,5.7,21.3
	c7.4,26.7,14.8,53.4,22.3,80.1c2.7,9.7,5.6,19.4,8.3,29.2c2.3,8.2-2.5,16.5-10.7,18.7c-7.5,2.1-15.9-3-18.2-11
	c-6.2-22.2-12.5-44.4-18.7-66.6c-6.3-22.5-12.7-45.1-18.8-67.7c-1-3.6-2.6-4.4-5.9-4.4c-10.1,0.1-20.3,0-30.9,0
	C798.4,278.3,799.5,267,793.4,256.1z M799.5,140.1c16.7,0,30.1-13.3,30.3-30c0.1-16.2-13.9-30.1-30.3-30c-16.5,0.1-30,13.8-30,30.3
	C769.5,126.5,783.3,140.1,799.5,140.1z"/>
<path d="M782.3,693.6c53-91.4,105.2-181.5,158-272.8c-7.4,0.5-7.3-4.1-8.2-8.5c-1.5-7.4-3.8-14.7-5.9-22.9c2.5,0,4.6-0.2,6.6,0
	c10.6,1.2,21.2,2.5,31.7,4c10.1,1.4,16.3,8.5,14.9,17.6c-0.5,3.3-2.5,6.4-4.2,9.4c-48,83.1-96,166.1-144.2,249.1
	c-1.7,2.9-4.8,5.5-7.9,6.9c-11.7,5.6-23.6,10.6-35.4,15.8C786.4,692.7,785.1,692.8,782.3,693.6z"/>
<path d="M837.1,407.8c-4.3-0.6-7.7-1.1-11-1.5c-7.7-1-15.5-2-23.2-2.8c-3.3-0.3-4.4-1.8-4.3-5.1c0.2-8.4,0.1-16.9,0.1-25.6
	c9.5,1.2,18.3,2.3,27.2,3.6c1.1,0.2,2.7,1.2,3,2.2C831.6,387.8,834.2,397.3,837.1,407.8z"/>
<path d="M882.3,773.6c-1.7,5-4.2,12-6.7,19c-10.3,28.6-20.7,57.1-30.8,85.7c-4.4,12.4-11.4,16.1-23.8,11.8
	c-36.4-12.6-72.8-25.1-109.2-37.6c-7-2.4-11-7.1-11.4-13.5c-0.3-6.3,3.3-11.9,9.9-14.8c22.4-10,44.9-19.9,67.4-29.8
	c26.5-11.8,53.1-23.5,79.6-35.3c5.5-2.4,11-4.3,16.8-1.5C879.4,760.4,882.4,765,882.3,773.6z M840.7,801c-0.3-0.4-0.5-0.9-0.8-1.3
	c-27.3,12-54.6,24-81.9,36.1c0,0.5,0,0.9,0.1,1.4c20.4,7,40.9,14,61.9,21.2C826.9,838.9,833.8,819.9,840.7,801z"/>
<path d="M484,201c-8,0-16,0.1-24,0c-10.1-0.2-17.3-7.2-17.5-17.3c-0.1-6.5-0.2-13,0-19.5c0.3-9.4,7-16.6,16.4-16.8
	c16.8-0.3,33.6-0.3,50.4,0c9.5,0.2,16.3,7.6,16.6,17.2c0.2,6.5,0.2,13,0,19.5c-0.3,9.4-7.5,16.7-16.9,16.9
	C500.6,201.1,492.3,201,484,201z M503.5,169.7c-13.2,0-25.9,0-38.7,0c0,3.1,0,5.8,0,8.7c13.1,0,25.9,0,38.7,0
	C503.5,175.4,503.5,172.8,503.5,169.7z"/>
<path d="M484.6,326.2c-8,0-16,0.1-24,0c-10.3-0.2-17.2-6.8-17.6-17.2c-0.2-6.5-0.2-13,0-19.5c0.4-9.9,7.5-16.8,17.4-16.9
	c16.1-0.2,32.3-0.2,48.4,0c10.2,0.1,17.4,7.5,17.6,17.8c0.1,6,0.1,12,0,18c-0.2,10.7-7.2,17.7-18,17.8
	C500.6,326.2,492.6,326.2,484.6,326.2z M504.1,295c-13.1,0-25.7,0-38.4,0c0,3.2,0,6,0,8.9c13,0,25.6,0,38.4,0
	C504.1,300.9,504.1,298.1,504.1,295z"/>
<path d="M556.8,261.7c-7.8,0-15.6,0.1-23.5,0c-10.8-0.1-17.8-7-18-17.8c-0.1-6-0.1-12,0-18c0.2-10.8,7.2-17.9,17.9-18
	c15.8-0.1,31.6-0.1,47.4,0c10.8,0.1,17.8,7.2,18,17.8c0.1,6.2,0.1,12.3,0,18.5c-0.2,10.1-7.3,17.1-17.4,17.4c-0.3,0-0.7,0-1,0
	C572.4,261.7,564.6,261.7,556.8,261.7z M576.3,230.4c-13,0-25.8,0-38.6,0c0,3.2,0,6.1,0,8.9c13.1,0,25.9,0,38.6,0
	C576.3,236.1,576.3,233.4,576.3,230.4z"/>
<path d="M336.8,260.7c8,0,16-0.1,24,0c10.3,0.1,17.5,7.2,17.8,17.5c0.2,6.2,0.2,12.3,0,18.5c-0.3,10-7.4,17.4-17.4,17.6
	c-16.3,0.3-32.6,0.3-48.9,0c-9.8-0.2-16.8-7.4-17.2-17.2c-0.2-6.5-0.2-13,0-19.5c0.4-10,7.3-16.7,17.3-16.9
	C320.4,260.6,328.6,260.7,336.8,260.7z M317.2,283c0,3,0,5.7,0,8.7c13.1,0,25.9,0,38.8,0c0-3.1,0-5.9,0-8.7
	C342.8,283,330.1,283,317.2,283z"/>
<path d="M365.1,338.4c7.7,0,15.3-0.1,23,0c11.8,0.1,18.6,6.9,18.7,18.6c0,6,0.1,12,0,18c-0.2,9.8-7.2,17-17.1,17.1
	c-16.3,0.2-32.6,0.2-48.9,0c-10-0.1-17.1-7.5-17.3-17.5c-0.1-6-0.1-12,0-18c0.1-10.9,7.2-18,18.2-18.1
	C349.5,338.3,357.3,338.4,365.1,338.4z M345.8,369.5c13.2,0,25.9,0,38.6,0c0-3,0-5.8,0-8.5c-13,0-25.7,0-38.6,0
	C345.8,363.9,345.8,366.5,345.8,369.5z"/>
</svg>
