<?xml version="1.0" encoding="utf-8"?>
<!-- Generator: Adobe Illustrator 24.1.2, SVG Export Plug-In . SVG Version: 6.00 Build 0)  -->
<svg version="1.1" id="Camada_1" xmlns="http://www.w3.org/2000/svg" xmlns:xlink="http://www.w3.org/1999/xlink" x="0px" y="0px"
	 viewBox="0 0 219 219" style="enable-background:new 0 0 219 219;" xml:space="preserve">
<style type="text/css">
	.st0{fill:#003A3D;}
</style>
<g>
	<path class="st0" d="M189.38,44.39c1.55-7.75-0.54-14.5-5.4-20.46c-4.35-5.34-7.07-5.03-10.29,0.98
		c-12.93,24.14-25.92,48.24-38.65,72.48c-2.21,4.21-3.62,4.98-7.73,1.81c-9.33-7.21-18.83-14.31-28.9-20.39
		c-7.51-4.53-9.03-9.52-6.96-17.81c3.01-12.05,5.53-24.29,6.84-35.93c0.04-3.28,0.07-5.77-1.28-8.03c-1.56-2.59-3.19-5.5-6.4-5.8
		c-3.52-0.33-4.28,3.19-5.57,5.56c-5.09,9.32-10.05,18.71-15.08,28.07c-1.57,2.92-2.51,7.17-4.94,8.37
		c-2.78,1.37-5.22-3.05-8.18-4.25c-0.46-0.19-0.86-0.5-1.31-0.71c-8.88-4.14-18.42,2.07-18.57,11.88c-0.08,5.1,2.8,8.41,6.21,11.4
		c3.1,2.73,3.77,4.47-0.19,7.45c-10.48,7.91-20.58,16.32-30.75,24.63c-4.53,3.7-4.02,6.6,1.17,9.33c5.1,2.69,10.04,1.53,14.91-0.35
		c12.35-4.78,24.66-9.64,36.92-14.65c2.66-1.09,4.32-1,6.51,1.17c10.38,10.32,20.89,20.52,31.59,30.51c3.11,2.9,2.53,4.21-0.5,6.6
		c-21.69,17.07-43.25,34.3-64.83,51.52c-5.51,4.4-5.32,7.24,0.93,10.67c6.89,3.78,14.02,4.54,21.55,1.5
		c23.07-9.31,46.35-18.14,69.26-27.84c8.4-3.56,15.42-5.44,21.2,3.57c0.26,0.4,0.76,0.63,1.15,0.94c3.9,3.11,6.66,2.19,7.58-2.82
		c0.72-3.92,1.31-7.93,1.26-11.89c-0.11-9.04,2.1-16.14,12.44-17.74c0.63-0.1,1.22-0.51,1.81-0.81c5.76-2.95,6.15-4.95,1.03-8.83
		c-3.16-2.39-3.76-4.88-3.02-8.54C178.65,98.81,183.95,71.59,189.38,44.39z M165.56,137c1.21,1.14-0.39,1.76-1.15,1.87
		c-10.79,1.57-10.84,9.85-11.38,17.91c-0.16,2.41,0.2,4.96-1.21,7.11c-0.31,0-0.56,0.07-0.63-0.01c-5.41-6.77-11.51-4.49-18.07-1.83
		c-24.78,10.04-49.68,19.78-74.52,29.67c-3.76,1.5-7.5,2.44-11.5,0.88c-0.21-1.83,1.28-2.27,2.23-3.03
		c20.35-16.37,40.71-32.72,61.06-49.09c1.55-1.25,2.98-2.67,4.56-3.88c2.84-2.19,2.47-4.21,0.11-6.58
		c-13.61-13.69-27.48-27.12-41.7-40.18c-2.14-1.97-4.14-2.12-6.77-1.08c-12.49,4.94-25.04,9.73-37.57,14.56
		c-0.74,0.29-1.49,0.53-2.53,0.9c0.3-2.4,2.12-3.04,3.36-4.05c8.13-6.61,16.25-13.24,24.53-19.65c3.63-2.81,3.96-5.39,0.72-8.59
		c-2.72-2.69-5.35-5.46-7.98-8.24c-1.89-2-2.82-4.24-0.72-6.63c1.99-2.26,4.32-2.16,6.7-0.57c2.9,1.94,5.78,3.91,8.68,5.84
		c5.07,3.38,5.95,3.36,8.92-1.75c5.85-10.02,11.44-20.19,16.44-30.68c0.27-0.56,0.75-1.01,2.06-1.26
		c-1.16,6.43-2.27,12.86-3.5,19.27c-1.44,7.5-2.86,15.01-4.53,22.46c-0.84,3.76,0.25,6.31,3.35,8.49
		c14.93,10.55,29.76,21.23,44.7,31.78c4.9,3.46,5.94,3.18,8.79-2.08c13.33-24.69,26.59-49.41,39.88-74.12
		c0.31-0.58,0.65-1.14,1.35-2.38c3.31,5,2.02,9.81,1.15,14.39c-5.17,27.09-10.53,54.14-15.79,81.21
		C163.98,130.84,162.46,134.08,165.56,137z"/>
	<path class="st0" d="M216.26,183.68c-4.47-14.48-13.45-26.13-23.61-37.02c-2.44-2.61-4.66-2.07-6.7,0.39
		c-3.39,4.1-6.55,8.38-10.06,12.36c-2.69,3.05-2.74,5.69-0.08,8.74c2.51,2.87,6.4,5.81,6.69,8.99c0.35,3.85-5.18,5.36-7.68,8.39
		c-2.88,3.51-2.99,5.6,0.96,7.53c8.51,4.14,17.2,7.92,26.92,8.15c4.59,0.13,9.12-0.02,12.18-4.17
		C217.91,192.9,217.66,188.22,216.26,183.68z M201.88,192.97c-4.3-0.32-9.32-2.01-14.36-3.73c-2.72-0.93-2.07-2.04-0.47-3.35
		c9.52-7.77,8.02-7.69,0.13-17.14c-3.72-4.46-3.32-8.33,1.24-11.91c1.36-1.07,1.96-0.58,2.8,0.4c7.63,8.91,14.14,18.49,17.41,29.9
		C209.94,191.68,208.3,193.15,201.88,192.97z"/>
</g>
</svg>
