<?xml version="1.0" encoding="utf-8"?>
<!-- Generator: Adobe Illustrator 24.1.2, SVG Export Plug-In . SVG Version: 6.00 Build 0)  -->
<svg version="1.1" id="Camada_1" xmlns="http://www.w3.org/2000/svg" xmlns:xlink="http://www.w3.org/1999/xlink" x="0px" y="0px"
	 viewBox="0 0 1000 1000" style="enable-background:new 0 0 1000 1000;" xml:space="preserve">
<path d="M421.7,600.4c52.2,0,103.8,0,156,0c0-1.9,0-3.7,0-5.4c0-17.8,0-35.7,0-53.5c0-17.2,11.7-28.9,28.9-28.9
	c80.3,0,160.7,0,241,0c17.5,0,29.1,11.6,29.1,29.2c0,33.3,0,66.7,0,100c0,7.5-2.2,14-7,19.8c-1.1,1.4-1.9,3.5-1.9,5.3
	c-0.1,27.5-0.1,55,0,82.5c0,1.9,1,4.1,2.2,5.7c4.5,5.6,6.7,11.7,6.7,18.9c0,33.8,0,67.7,0,101.5c0,16.5-11.9,28.2-28.5,28.2
	c-64,0-128,0-192,0c-2,0-3.9,0-6.5,0c0,2.2,0,3.9,0,5.7c0,17.8,0,35.7,0,53.5c0,17.2-11.7,28.8-29,28.8c-80.3,0-160.7,0-241,0
	c-17.5,0-29-11.6-29.1-29.2c0-19.3,0-38.7,0-58.8c-2.1,0-4,0-5.9,0c-64,0-128,0-192,0c-18.9,0-30.1-11.2-30.1-30.1
	c0-32.7,0.1-65.3-0.1-98c0-8,2-15,7.4-21.1c1.1-1.2,1.6-3.2,1.6-4.9c0.1-27.5,0.1-55,0-82.5c0-1.9-1-4.2-2.2-5.7
	c-4.5-5.6-6.7-11.7-6.7-18.9c0-33.8,0-67.7,0-101.5c0-16.5,11.9-28.3,28.5-28.3c80.7,0,161.3,0,242,0c16.8,0,28.5,11.9,28.5,28.8
	C421.7,560.9,421.7,580.4,421.7,600.4z M605.4,954.4c0-28.9,0-57.1,0-85.4c-70.3,0-140.4,0-210.3,0c0,28.7,0,57.1,0,85.4
	C465.3,954.4,535.2,954.4,605.4,954.4z M605.4,640c-70.4,0-140.5,0-210.4,0c0,28.1,0,55.8,0,83.4c70.3,0,140.2,0,210.4,0
	C605.4,695.5,605.4,667.9,605.4,640z M350.7,635.4c-0.5-8.9,0.2-16.9,5.5-23.8c5.4-7,12.7-10.4,21-11.2c0-16.5,0-32.6,0-48.5
	c-70.3,0-140.3,0-210.3,0c0,28,0,55.7,0,83.5C228.3,635.4,289.2,635.4,350.7,635.4z M621.8,600.5c9.2,0.5,16.5,3.9,22,10.8
	c5.7,7.1,6.1,15.5,5.8,24c61.3,0,122,0,182.8,0c0-28,0-55.6,0-83.3c-70.3,0-140.3,0-210.6,0C621.8,568.1,621.8,584.1,621.8,600.5z
	 M350.7,866.4c-0.7-9.8,1.5-18.2,8.3-25.1c0.7-0.8,0.6-2.5,0.6-3.8c0-17.8,0-35.6,0-53.5c0-1.1-0.3-2.2-0.4-3.2
	c-64.3,0-128.2,0-192.3,0c0,28.6,0,57,0,85.6C228.2,866.4,289.1,866.4,350.7,866.4z M649.6,866.3c61.4,0,122.1,0,182.7,0
	c0-28.7,0-57.1,0-85.4c-64,0-127.5,0-191,0c-0.2,0.5-0.5,0.8-0.5,1.1c0,18.8-0.1,37.6-0.1,56.5c0,1.1,0.2,2.5,0.9,3.2
	C648.3,848.4,650.3,856.8,649.6,866.3z M395,758.8c0,25.1,0,49.8,0,74.4c70.4,0,140.4,0,210.4,0c0-25,0-49.6,0-74.4
	C535.2,758.8,465.3,758.8,395,758.8z M166.9,745.3c62.6,0,124.8,0,185.8,0c-0.7-7.5-1.8-14.9-1.9-22.2c-0.3-15.7-0.1-31.3-0.1-47
	c0-1.8,0-3.5,0-5.2c-61.7,0-122.6,0-183.8,0C166.9,695.7,166.9,720.3,166.9,745.3z M647.7,745.3c61,0,122.9,0,184.8,0
	c0-25,0-49.6,0-74.3c-61,0-121.7,0-182.8,0c0,17.6,0.2,34.9-0.1,52.2C649.4,730.5,648.3,737.8,647.7,745.3z"/>
<path d="M388.4,78.4c11.2-3.4,22.4-7.5,34-10.1c7.7-1.7,15.9-1,23.8-1.8c2.9-0.3,6.4-1.3,8.3-3.3c33.4-35.2,87.7-44.4,132.6-25.1
	c2.5,1.1,5.7,0.9,8.6,0.8c6.5-0.3,12.9-1.3,19.4-1.4c3.8,0,6.5-1.1,9.2-3.8C663-5.3,730.8,2.6,759,49.6c4,6.6,6,14.4,9.3,21.5
	c1.1,2.3,3,4.9,5.2,5.9c25,11.1,38.3,35.9,34,64.3c-4,26.9-23.9,45.7-51.3,48.6c-15.3,1.6-29.4-1.7-42.2-10.4
	c-1.7-1.1-3.9-1.7-6-1.8c-3.8-0.2-5.8,1.1-5.4,5.9c2,22.1-2.5,42.6-16.8,60c-17.5,21.1-40.7,29.2-67.6,27.7
	c-15.7-0.9-29.9-6-42.8-15.1c-2.1-1.5-5.8-2-8.4-1.4c-23.9,5-47.4,4.1-70.3-4.4c-4-1.5-7.3-0.4-10.9,1.3
	c-36.8,18.1-81.2,12.8-111.5-13.5c-12.9-11.2-21.7-25.2-26.8-41.4c-1-3.1-2.4-5.4-5.6-6.3c-1.3-0.4-2.6-1-3.5-1.8
	c-6.5-6.1-13.9-5.3-21.9-3.8c-14.4,2.6-28.5,0.4-42.3-3.9c-2.8-0.9-6.7-0.7-9.3,0.6c-42.4,20.4-99.2-0.3-106.3-55.3
	c-6.1-46.6,29-85.1,75.9-83.1c2.7,0.1,6.2-1.4,8.2-3.3C280.4,1.4,346.7,7.6,376.1,52.8C381.4,60.9,384.6,70.3,388.4,78.4z
	 M677.6,192.3c0.4-0.1,0.9-0.3,1.3-0.4c-2.2-7.6-3.6-15.6-6.9-22.6c-7.8-16.6-21.1-26.6-39.4-29.6c-3-0.5-4.7-1.4-5.1-5.2
	c-2.7-22.8-12.2-42.2-29.4-57.8C559.3,41.5,497.5,47.7,467,90.3c-3.1,4.3-5.9,5.2-10.8,3.7c-12.7-3.7-25.5-2.8-37.9,1.2
	c-34.1,10.9-55.9,45.1-49.7,80.5c4.7,27.1,20.1,46.1,45.7,56c25.5,9.9,49.3,5.5,70.8-11.3c2.9-2.2,4.9-2.6,8.3-0.7
	c26.1,14.8,53.2,16.5,80.9,4.8c4.1-1.7,6.1-1,8.6,2.1c10.6,12.9,24.8,19.7,41,19.4C654.7,245.6,677.6,221.9,677.6,192.3z
	 M341.6,165.9c0.2-0.7,0.4-1.2,0.4-1.7c0.6-26.2,8.9-49.3,26.8-68.7c1-1,1.4-3,1.3-4.4c-0.3-3.1-0.8-6.3-1.7-9.3
	c-9-27-27.5-43.7-55.6-47.5c-25.7-3.5-47,6.3-62.5,27.4c-1.8,2.5-3.5,2.7-6.3,2.3c-6-0.8-12.2-2-18.2-1.4
	c-36.5,3.8-58.2,39.4-45.1,73.5c12.6,33,55.6,44.7,83,22.4c2.8-2.3,4.7-2.5,7.8-0.7c17.1,9.9,35.3,11.3,53.9,5.3
	c5.9-1.9,10.9-4.9,14.9,2.4C340.3,165.8,340.8,165.8,341.6,165.9z M716.1,154.2c13.1,15.6,29.4,21.8,49.1,13.6
	c15.7-6.5,24.7-21.3,23.8-37.6c-1.3-23-14.9-35.1-36.7-39.3c-0.2-1.7-0.4-3.2-0.6-4.6c-5.1-37.7-39.9-63.8-77-57.4
	c-17.6,3-32.1,11.6-42.5,26.4c-2.2,3-4.3,4.2-7.9,2.8c-2.1-0.8-4.5-0.9-6.8-1.3c16.3,16.7,27.3,35.7,32.9,57.9c0.4,1.6,2.3,3.4,4,4
	c18.8,7.5,32.7,20.1,41.5,38.5c0.6,1.2,3.2,2.5,4.5,2.2C705.4,157.9,710.6,156,716.1,154.2z"/>
<path d="M749.9,316.8c-22.7,0-37-24.1-26.1-44.1c5.4-10,11.2-19.9,17-29.7c4.4-7.4,13.4-7.9,17.9-0.5c6.4,10.4,12.8,20.9,18.2,31.9
	C786.6,294.2,772,316.8,749.9,316.8z M749.9,250.7c-5.7,10.2-11.3,19.5-16.3,29.2c-3.9,7.6-1.2,16.5,5.6,21.7
	c6.3,4.8,16,4.5,22.2-0.5c6.3-5.1,8.6-14.8,4.7-22.1C761.1,269.8,755.7,260.7,749.9,250.7z"/>
<path d="M251.9,349.8c-22.7-0.1-36.9-24.1-26.1-44.1c5.4-10,11.2-19.9,17-29.7c4.4-7.4,13.4-7.8,17.9-0.5
	c6.4,10.4,12.8,20.9,18.2,31.9C288.6,327.3,274,349.8,251.9,349.8z M251.9,283.8c-5.7,10.1-11.2,19.3-16.2,28.8
	c-3.9,7.6-1.5,16.5,5.3,21.8c6.4,5,16.2,4.9,22.6-0.4c6.3-5.2,8.5-14.9,4.5-22.1C263,302.6,257.6,293.6,251.9,283.8z"/>
<path d="M502,363.8c-22.7,0-37-24-26.2-44.1c5.4-10,11.2-19.9,17-29.7c4.4-7.5,13.3-7.9,17.9-0.6c6.4,10.4,12.8,20.9,18.2,31.9
	C538.7,341.2,524.1,363.8,502,363.8z M501.9,297.7c-5.7,10.3-11.5,19.8-16.4,29.7c-3.8,7.6-0.8,16.6,6.1,21.5
	c6.5,4.6,16.1,4.2,22.2-1c6.3-5.3,8.2-14.9,4.1-22.2C512.9,316.6,507.6,307.6,501.9,297.7z"/>
<path d="M365.8,421.8c-22.6-0.1-36.9-24.2-25.9-44.2c5.4-9.9,11.1-19.6,16.8-29.3c4.7-8,13.7-8.2,18.5-0.3
	c6.1,10,12.1,20.2,17.5,30.6C403,398.4,388.3,421.9,365.8,421.8z M365.9,355.7c-5.8,10.4-11.8,20.1-16.7,30.4
	c-3.6,7.4-0.1,16.3,6.7,21c6.4,4.4,15.8,3.9,21.8-1.1c6.1-5.1,8.4-14.6,4.6-21.7C377.2,374.8,371.6,365.7,365.9,355.7z"/>
<path d="M681.1,437.8c-22.7,0-37.2-23.8-26.4-43.9c5.5-10.2,11.3-20.2,17.2-30.2c4.2-7.2,13.2-7.6,17.6-0.5
	c6.6,10.5,13.1,21.1,18.5,32.3C717.5,415.4,703,437.7,681.1,437.8z M680.9,371.7c-5.8,10.4-11.6,20-16.6,30
	c-3.6,7.4-0.5,16.2,6.3,21.1c6.3,4.6,15.7,4.3,21.8-0.6c6.3-5,8.8-14.5,5.1-21.6C692.4,391.1,686.7,381.8,680.9,371.7z"/>
<path d="M504,523.8c-22.7,0-37-24-26.2-44.1c5.4-10,11.2-19.9,17-29.7c4.4-7.5,13.3-7.9,17.9-0.6c6.4,10.4,12.8,20.9,18.2,31.9
	C540.7,501.1,526.1,523.8,504,523.8z M503.9,457.7c-5.7,10.2-11.3,19.5-16.3,29.2c-3.9,7.6-1.3,16.5,5.6,21.7
	c6.5,4.9,16.3,4.6,22.6-0.8c6.3-5.3,8.2-14.9,4.1-22.2C514.9,476.5,509.6,467.6,503.9,457.7z"/>
</svg>
