<?xml version="1.0" encoding="utf-8"?>
<!-- Generator: Adobe Illustrator 24.1.2, SVG Export Plug-In . SVG Version: 6.00 Build 0)  -->
<svg version="1.1" id="Camada_1" xmlns="http://www.w3.org/2000/svg" xmlns:xlink="http://www.w3.org/1999/xlink" x="0px" y="0px"
	 viewBox="0 0 1000 1000" style="enable-background:new 0 0 1000 1000;" xml:space="preserve">
<path d="M229.7,116.7c0.5-3.8,0.6-7.1,1.3-10.3c2.8-12.2,13.5-20.9,26-21c54.8-0.1,109.7-0.1,164.5,0c14.5,0,26.2,12.1,26.6,26.6
	c0.2,6,0,11.9,0,18.4c2.4,0,4.4,0,6.3,0c41.3,0,82.7,0,124,0c18.2,0,29.7,11.4,29.7,29.6c0,89.8,0,179.6,0,269.5
	c0,18.6-11.3,29.9-29.8,29.9c-11.2,0-22.3,0-33.5,0c-18.3,0-29.7-11.4-29.7-29.5c0-66.3,0-132.7,0-199c0-2,0-3.9,0-6.2
	c-22.3,0-44.3,0-67,0c0,3.6,0,7.3,0,11.1c0,5.3,0.1,10.7,0,16c-0.4,14.5-12.1,26.3-26.6,26.6c-8.6,0.2-17.3,0-27.4,0
	c2.7,1.3,4,2.1,5.4,2.7c58.7,26.2,95.1,85.2,91.9,149.2c-0.2,3.3-0.2,6.7-0.2,10c0,138.7,0,277.3,0,416c0,20.3-10.8,31.1-31.1,31.1
	c-82.2,0-164.3,0-246.5,0c-19.3,0-30.4-11.1-30.4-30.4c0-139.3,0.1-278.6-0.1-418c0-18.7-0.4-37.3,4.7-55.5
	c13.4-47.8,42.7-82,87.8-102.8c1.1-0.5,2.1-1,3.2-1.5c0.1,0,0.1-0.3,0.2-0.9c-6.8,0-13.6,0-20.3,0c-16.5-0.1-28.2-11.8-28.3-28.4
	c-0.1-13.2-0.1-26.3-0.1-39.5c0-0.3-0.2-0.6-0.5-1.3c-15.8-0.2-30.4,4.4-43.2,13.7c-21.1,15.4-32.3,36-32.2,62.6
	c0.1,122.8,0.1,245.6,0,368.5c0,3.4,0.8,5.8,3.4,8.1c5.8,5.1,8.6,11.8,8.6,19.5c0.1,33.2,0.1,66.3,0,99.5
	c-0.1,15.3-12.1,27.2-27.4,27.2c-22.7,0.1-45.3,0.1-68,0c-15.6-0.1-27.5-12-27.5-27.7c-0.1-32.8-0.1-65.7,0-98.5
	c0-10.5,4.7-18.6,13.7-23.9c2.6-1.5,3.3-3.1,3.3-5.9c-0.1-118.3,0.6-236.6-0.6-355c-0.2-25,2-48.8,11.7-71.3
	c26.6-61.8,73.5-98,140.3-107.9C217.6,117.4,223.6,117.2,229.7,116.7z M218.5,645.6c0,69.1,0,137.8,0,206.4c79.4,0,158.4,0,237.4,0
	c0-69,0-137.6,0-206.4C376.6,645.6,297.7,645.6,218.5,645.6z M456.1,498.2c0-25.4,0.1-50.2,0-75c0-6-0.1-12-0.9-17.9
	c-11.5-82.5-103.9-128.3-176.2-87.1c-37.4,21.3-58.4,54.2-60.8,97.2c-1.5,26.9-0.2,53.9-0.1,80.9c0,0.6,0.3,1.2,0.4,1.8
	C297.7,498.2,376.6,498.2,456.1,498.2z M265.3,243c49.4,0,98.5,0,147.4,0c0-41.1,0-81.8,0-122.4c-49.3,0-98.2,0-147.4,0
	C265.3,161.5,265.3,202.1,265.3,243z M454.9,533.7c-78.8,0-157.2,0-235.4,0c0,25.7,0,51.1,0,76.4c78.7,0,156.9,0,235.4,0
	C454.9,584.6,454.9,559.3,454.9,533.7z M119.1,654.1c0-1.6,0-2.6,0-3.6c0-118.3,0-236.6,0-354.9c0-9.1-0.1-18.3,1-27.4
	c6-46.7,46.2-86.9,92.9-93c5.6-0.7,11.2-1.2,16.7-1.8c0-7.2,0-14.2,0-21.3c-14.1-0.3-27.5,2.2-40.4,6.6
	c-38.6,13.1-66.5,38.3-83.5,75.3c-5.9,12.7-10.6,26.1-10.7,40.2c-0.2,124.5-0.1,248.9-0.1,373.4c0,2.1,0,4.2,0,6.3
	C103.4,654.1,111,654.1,119.1,654.1z M572.9,165.7c-41.4,0-82.5,0-123.5,0c0,8,0,15.6,0,23.7c33.6,0,67,0,100.9,0
	c0,78.6,0,156.6,0,234.7c7.8,0,15.1,0,22.6,0C572.9,337.9,572.9,252,572.9,165.7z M78.4,689.6c0,28.1,0,55.8,0,83.4
	c17.7,0,35.1,0,52.4,0c0-28,0-55.6,0-83.4C113.3,689.6,96,689.6,78.4,689.6z"/>
<path d="M558.3,723.4c39.5,7.1,92.5-15.5,116.3-58c21.5-38.4,22.4-96-18.1-138.1c0.2-0.3,0.3-0.7,0.5-0.7c28.6-0.2,57.5-2.2,85.2,7
	C806.6,555,844.8,599.3,855,666.6c2.1,13.6,0.3,27.8,0.3,42.8c38.2-35.1,48.2-79.2,44.9-128.1c0.4-0.1,0.8-0.3,1.2-0.4
	c3.5,3.3,7.2,6.5,10.6,9.9c24.3,24.9,36.9,55.3,41.9,89.2c8.6,58.3-4.1,111.5-41.1,157.6c-38.3,47.8-88.8,73.6-150.3,75.8
	c-93.6,3.4-175.6-57.2-200.8-147.3C557.9,752.2,557.8,738,558.3,723.4z M595.4,757.6c18.8,57.9,55.7,97.9,113.8,114.3
	c67.5,19,126,0.7,172.6-51.6c36.4-40.8,46.1-97.2,36.3-137.3c-0.4,0.7-0.8,1.2-1.1,1.8c-12.1,25.2-29.6,45.9-52.6,61.6
	c-7.8,5.3-16.5,10.2-25.5,12.9c-7.4,2.2-15.8,0.9-23.7,1.1c-5.7,0.1-11.4,0-17.4,0c28.5-43.8,32.6-88.7,8-134.3
	c-18.6-34.5-48.5-54.7-87.8-62.5c12.5,44.6,7.6,86.3-16.7,124.9C676.8,727.2,641.1,749.4,595.4,757.6z"/>
<path d="M759.3,623.4c12.4,13.1,21.3,26.8,25,43.3c4.9,22,2.1,42.9-9.4,62.6c-6.6,11.3-10.5,23.4-7.9,36.7c3.4,17.6,14,26.8,32,28.1
	c6.8,0.5,13.6,1,20.4,1c12.5-0.1,24.9-0.5,36.9-4.5c0.6-0.2,1.3,0,3.1,0c-1.6,2.4-2.6,4.3-4.1,5.9c-18,20.1-39.2,35.4-65.5,42.8
	c-27.1,7.6-54,6.6-80.2-3.9c-25.4-10.1-45.8-26.7-61.6-49.1c-3.8-5.5-3.5-6.2,2.6-9c20.9-9.3,39.9-21.7,55.7-38.1
	c25-25.8,41.2-56.6,48.2-92c1.3-6.3,2.1-12.8,3.1-19.2C758.1,626.8,758.6,625.6,759.3,623.4z"/>
</svg>
