<?xml version="1.0" encoding="utf-8"?>
<!-- Generator: Adobe Illustrator 24.1.2, SVG Export Plug-In . SVG Version: 6.00 Build 0)  -->
<svg version="1.1" id="Camada_1" xmlns="http://www.w3.org/2000/svg" xmlns:xlink="http://www.w3.org/1999/xlink" x="0px" y="0px"
	 viewBox="0 0 1042 285.7" style="enable-background:new 0 0 1042 285.7;" xml:space="preserve">
<style type="text/css">
	.st0{fill:#F15A24;}
</style>
<g>
	<path d="M1042,233.9c-10.3,0-20.7,0-31,0.2c-3.3,0.1-5.1-1.3-6.6-4.2c-3.8-7.6-8-15-11.7-22.6c-1.5-3.1-3.6-4.5-7-4.3
		c-3.7,0.2-7.3,0.2-11,0c-3.5-0.1-4.7,1.4-4.7,4.8c0.1,7-0.1,14,0.1,21c0.1,3.9-1.4,5.4-5.3,5.3c-7-0.2-14-0.1-21,0
		c-3.7,0.1-5-1.5-5-5.1c0.1-35,0.1-70,0-105c0-3.9,1.6-5.3,5.4-5.2c17.5,0.1,35-0.6,52.5,0.3c16.2,0.8,30.8,5.8,38.5,22.2
		c7.3,15.5,4.1,43-12.4,53.1c-2,1.2-3,2.7-1.6,4.9c6.8,10.6,13,21.7,20.8,31.6C1042,231.9,1042,232.9,1042,233.9z M970.1,160.4
		C970.1,160.4,970.1,160.4,970.1,160.4c0,4,0.1,8,0,12c-0.1,3.2,1.3,4.5,4.5,4.4c6.2-0.1,12.3,0.1,18.5-0.1
		c8.6-0.2,14.9-6.4,15.6-15.1c0.6-8.5-5.1-15.2-13.8-16.7c-6.8-1.2-13.6-0.5-20.4-0.7c-2.9-0.1-4.3,1.2-4.3,4.2
		C970.2,152.4,970.1,156.4,970.1,160.4z"/>
	<path class="st0" d="M0,198.9c0.6-2.7,1.4-5.4,1.9-8.2c0.5-2.9,2-4.1,4.8-3.4c13.5,3.5,27,7.1,40.5,10.6c0.8,0.2,1.8,0.5,1.9,1.4
		c0.1,1.4-1.2,1.9-2.2,2.5c-6.9,4-13.7,8.1-20.6,12.1c-5.9,3.4-11.9,6.7-17.7,10.3c-3.6,2.3-5.5,1.2-6.5-2.5c-0.7-2.5-1.3-5.1-2-7.7
		C0,208.9,0,203.9,0,198.9z"/>
	<path d="M742.7,183.5c0-19.7,0-38.9,0-58c0-6.4,0.2-6.6,6.8-6.7c5.3,0,10.7,0,16,0c6.3,0,6.6,0.3,6.6,6.4c0,18.2,0,36.3,0,54.5
		c0,16-0.1,32,0.1,48c0.1,4.7-1.4,6.7-6.3,6.4c-5.5-0.3-11-0.2-16.5,0c-3.7,0.1-6.3-1.2-8.5-4.2c-13.3-17.9-26.8-35.6-40.3-53.4
		c-1.4-1.8-3-3.5-4.5-5.4c-1.7,1.7-1,3.7-1,5.4c-0.1,17,0,34,0,51c0,6.3-0.3,6.6-6.4,6.6c-5.5,0-11,0-16.5,0c-7.3,0-7.3-0.1-7.3-7.2
		c0-31.7,0-63.3,0-95c0-2.8,0.1-5.7,0-8.5c-0.1-3.1,1.3-4.6,4.5-4.6c6.8,0.1,13.7,0.1,20.5,0c3.5-0.1,5,2.3,6.7,4.5
		c14.2,18.9,28.4,37.8,42.5,56.7C739.9,181.2,740.6,182.5,742.7,183.5z"/>
	<path d="M876.9,235.4c-28.7-0.3-48.6-9.6-59.8-31.8c-17.8-35.5,0.8-79.1,45.7-84.9c19.5-2.5,37.1,1.4,52.5,13.9
		c11.8,9.5,17.9,22.3,19.7,37c3.1,26-10.1,49.3-33.7,60.2C892.2,233.9,882.6,235.8,876.9,235.4z M873.1,207.8
		c16.1,0,29.7-14,29.8-30.8c0.1-17.1-13.9-32.1-30-31.9c-15.8,0.2-29.7,14.7-29.8,31.1C843.1,193.7,856.5,207.8,873.1,207.8z"/>
	<path d="M629.9,156.3c0-10.7,0.1-21.3-0.1-32c-0.1-4.1,1.5-5.7,5.6-5.5c7.2,0.2,14.3,0.1,21.5,0c3.5-0.1,5.2,1,5.2,4.8
		c-0.1,21.5,0.5,43-0.2,64.5c-0.9,27.9-20,46-48.1,47c-14.1,0.5-27.6-0.9-39.5-9.3c-11.1-7.8-17.1-18.6-18.4-31.8
		c-2.4-23.4-0.5-46.9-1.1-70.4c-0.1-3.3,1.3-4.9,4.7-4.8c7.3,0.1,14.7,0.2,22,0c4.6-0.2,5.6,1.9,5.6,6c-0.1,20-0.1,40,0,60
		c0,14.6,8.5,23.2,22.8,23c11.1-0.1,19.7-8.6,19.9-20C630,177.3,629.9,166.8,629.9,156.3C629.9,156.3,629.9,156.3,629.9,156.3z"/>
	<path d="M288.8,235.2c-32-0.2-54.4-17.5-60.2-46.4c-7-34.9,14.9-65.2,50.1-70.2c20-2.8,37.4,2.6,53.1,15c3.7,2.9,4.2,5.5,1.1,9.1
		c-4.1,4.8-8,9.7-12,14.7c-2.2,2.7-4.2,2.7-6.6,0.2c-2.8-3.1-5.9-5.8-9.6-7.9c-19-10.5-39.6-1.1-44.1,20.2
		c-4.7,22.5,15.5,42,37.1,35.7c6.2-1.8,12.1-4.9,16.8-9.5c2.3-2.3,4.2-2.2,6.3,0.1c4.5,4.9,9,9.8,13.6,14.6c2.3,2.4,1.3,4.1-0.6,5.9
		c-8.2,7.6-17.6,13.1-28.3,16.2C299.4,234.6,293.3,235.5,288.8,235.2z"/>
	<path d="M552.1,161.8c0,11.5,0,23,0,34.5c-0.1,23.9-14.1,38-38,39c-15.7,0.6-29.1-3.9-40.3-15c-2.6-2.6-3-4.7-0.8-7.8
		c3.3-4.6,6.5-9.3,9.4-14.1c2.2-3.6,4.1-3.4,6.9-0.6c4.6,4.7,10.4,7.8,16.8,9.4c7.2,1.8,13.5-2.3,13.7-9.7
		c0.3-16.2,0.1-32.3,0.2-48.5c0-3.6-2.2-4-4.9-3.9c-9.5,0-19-0.1-28.5,0.1c-4,0.1-5.8-1.3-5.6-5.5c0.2-5.5,0.1-11,0.1-16.5
		c0-2.9,1.3-4.3,4.2-4.3c20.8,0,41.6,0,62.5,0c4,0,4.6,2.3,4.6,5.5C552.1,136.8,552.1,149.3,552.1,161.8z"/>
	<path d="M387.9,118.8c13.7,0,27.3,0,41,0c8.4,0,8.4,0,8.4,8.1c0,4-0.2,8,0.1,12c0.3,4.5-1.3,6.4-6,6.2c-6.5-0.3-13-0.1-19.5-0.1
		c-8.6,0-8.6,0-8.6,8.4c0,24.7,0,49.3,0,74c0,6.4-0.2,6.6-6.8,6.7c-5.8,0-11.7,0-17.5,0c-6.9,0-7.1-0.1-7.1-6.9c0-25,0-50,0-75
		c0-7.1,0-7.1-7.3-7.1c-7.3,0-14.7-0.1-22,0c-3.4,0-4.8-1.4-4.8-4.8c0.1-5.3,0.2-10.7,0-16c-0.2-4.1,1.5-5.6,5.6-5.5
		C358.3,118.9,373.1,118.8,387.9,118.8z"/>
	<path d="M775.9,180.9c0-15.5,0-31,0-46.4c0-1.7-0.7-4.1,1.4-4.9c2-0.7,3.2,1.4,4.4,2.7c7.5,7.4,14.8,14.9,22.3,22.2
		c2.2,2.1,3.1,4.4,3.1,7.5c-0.1,22-0.1,43.9,0,65.9c0,4.4-1.2,6.4-5.9,6.2c-6.5-0.3-13-0.3-19.5,0c-4.7,0.2-6-1.8-6-6.2
		C776,212.2,775.9,196.6,775.9,180.9z"/>
	<path class="st0" d="M147.4,105.7c-3.6,13.3-7.2,26.7-10.8,40c-0.7,2.5-2.5,2.8-4.7,2.2c-13.2-3.6-26.4-7.1-39.5-10.7
		c-0.9-0.3-2.1-0.5-2.3-1.6c-0.2-1.5,1.2-1.8,2.1-2.4c17-9.8,34-19.7,51-29.5c1.1-0.6,2.3-1.7,3.7-0.8
		C147.9,103.5,147.6,104.7,147.4,105.7z"/>
	<path class="st0" d="M69.9,150.6c-1.9,7.4-4.2,16.1-6.5,24.8c-1.2,4.5-2.4,9-3.6,13.5c-0.8,2.9-2.4,3.9-5.5,3
		c-12.5-3.5-25.1-6.7-37.6-10.1c-1.4-0.4-3.3-0.6-3.6-2.2c-0.3-1.9,1.8-2.1,3-2.8c15.7-9.2,31.4-18.3,47-27.4
		c1.4-0.8,2.9-1.6,4.4-2.3C69.8,146,70.6,146.9,69.9,150.6z"/>
	<path class="st0" d="M145.3,139.9c3.6-13.2,7.1-26.3,10.7-39.5c0.7-2.7,2.4-3.2,4.9-2.5c12.7,3.5,25.3,6.9,38,10.4
		c1.2,0.3,2.9,0.5,3.2,2c0.3,1.6-1.3,2.2-2.4,2.8c-16.7,9.7-33.4,19.4-50,29c-1.1,0.6-2.3,1.6-3.7,0.6
		C145,142.1,145.2,141,145.3,139.9z"/>
	<path d="M115.8,208.4c-10.1-2.7-20.2-5.4-30.3-8.2c-2.6-0.7-5.1-1.4-7.7-2.1c-1.5-0.4-3.1-0.7-3.3-2.5c-0.1-1.6,1.5-2.1,2.6-2.7
		c12.1-7,24.1-14.1,36.2-21.1c4.5-2.6,8.9-5.1,13.4-7.7c1-0.6,2.2-1.3,3.3-0.5c1.2,0.8,0.6,2.1,0.3,3.2
		c-3.4,12.9-6.8,25.7-10.2,38.5C119.5,207.3,118.5,209.2,115.8,208.4z"/>
	<path d="M24.5,107.5c3.5-12.9,7-26,10.7-39.2c0.5-1.9,2.1-2.6,3.9-2.1c13,3.4,26,6.8,39,10.3c1.1,0.3,2.4,0.6,2.4,2.1
		c-0.1,1.5-1.4,2.2-2.5,2.8C68.7,87,59.4,92.4,50,97.9c-7,4.1-14.1,8.1-21.2,12C26.7,111.1,24.2,112,24.5,107.5z"/>
	<path d="M192.4,163.8c-7.7-2-15.7-4.1-23.7-6.2c-4.5-1.2-9-2.4-13.4-3.8c-1.5-0.5-3.7-0.5-3.9-2.5c-0.1-1.9,1.9-2.6,3.3-3.4
		c9.8-5.7,19.5-11.3,29.3-17c6-3.5,12-7,18.1-10.5c1.4-0.8,3-2.1,4.6-1c1.9,1.2,0.5,3,0.1,4.5c-3.1,11.9-6.4,23.7-9.5,35.6
		C196.7,162.1,195.8,164,192.4,163.8z"/>
	<path class="st0" d="M124.7,155.1c-0.4,1.5-1.5,2.2-2.6,2.9c-16.5,9.6-33,19.2-49.6,28.7c-1,0.6-2.1,1.4-3.2,0.5
		c-1.3-0.9-1-2.3-0.6-3.6c3.4-12.7,6.9-25.3,10.2-38c0.8-2.9,2.2-3.7,5.1-3c12.5,3.4,25,6.6,37.6,10
		C122.8,152.9,124.4,153.2,124.7,155.1z"/>
	<path d="M112.9,260.9c0.9-3.1,1.9-6.6,2.8-10.1c2.3-8.7,4.6-17.4,6.8-26.1c1-4,3-5.3,7.3-4.2c12,3.4,24.1,6.4,36.2,9.6
		c1.3,0.4,3.3,0.4,3.4,2.3c0.1,1.6-1.6,2-2.7,2.6c-16.2,9.5-32.5,18.9-48.8,28.3C115.7,264.6,113,266,112.9,260.9z"/>
	<path d="M85.3,123.4c3.5-13,7.1-26,10.6-39c0.6-2.3,2.2-2.8,4.2-2.3c13,3.4,26,6.9,39.1,10.3c1.1,0.3,2.4,0.6,2.3,2.1
		c-0.1,1.6-1.5,2.1-2.6,2.8c-10.6,6.2-21.3,12.3-31.9,18.5c-5.6,3.3-11.2,6.6-16.8,9.8c-1.3,0.7-2.7,1.6-4.2,0.5
		C85.1,125.5,85.1,124.5,85.3,123.4z"/>
	<path d="M64.5,138.4c-0.2,1.6-1.3,2.2-2.3,2.8c-16.4,9.5-32.8,19.1-49.2,28.5c-1.2,0.7-2.7,1.8-4.1,0.5c-1.3-1.2-0.8-2.7-0.4-4.2
		c3.3-12.1,6.5-24.1,9.7-36.2c0.8-3.2,2.4-4.2,5.8-3.3c12.5,3.5,25.1,6.7,37.6,10C62.9,136.9,64.3,137,64.5,138.4z"/>
	<path d="M174.4,244.8c-2.2,8.2-4.5,17.2-6.9,26.2c-0.7,2.6-1.5,5.1-2.1,7.7c-2,7.7-2.4,7.9-9.7,5.9c-11-3-22.1-6-33.1-9.1
		c-1.4-0.4-3.8-0.1-3.9-2.3c-0.1-1.9,1.9-2.6,3.3-3.4c11.5-6.7,22.9-13.4,34.4-20c4.7-2.7,9.5-5.5,14.3-8.1
		C172.9,240.5,175,240.3,174.4,244.8z"/>
	<path d="M70.9,131.7c-7.7-2-15.9-4.2-24.1-6.4c-4.3-1.1-8.7-2.2-13-3.4c-1.4-0.4-3.3-0.8-3.5-2.4c-0.2-1.7,1.5-2.4,2.8-3.1
		c12.2-7.1,24.4-14.2,36.6-21.3c4-2.3,8-4.7,12.1-6.9c1.3-0.7,2.7-1.7,4.1-0.5c1.3,1.1,0.3,2.5,0,3.7c-3.2,12-6.5,24.1-9.6,36.1
		C75.7,130.2,74.7,132.2,70.9,131.7z"/>
	<path d="M144.6,159c5.6,1.5,12.2,3.1,18.7,4.9c6.3,1.7,12.5,3.4,18.7,5.2c1.3,0.4,3.3,0.5,3.4,2.4c0.1,1.6-1.6,2-2.7,2.6
		c-14,8.2-28.1,16.4-42.2,24.6c-2.4,1.4-4.9,2.9-7.4,4.1c-3.1,1.5-4.7,0.4-3.8-2.9c3.3-12.7,6.8-25.3,10.3-38
		C140.1,159.9,141.3,158.7,144.6,159z"/>
	<path d="M176.4,224.7c-12.8-3.4-25.7-6.9-38.5-10.4c-1.1-0.3-2.5-0.7-2.7-1.9c-0.3-1.8,1.2-2.6,2.5-3.3
		c9.6-5.6,19.2-11.3,28.8-16.9c6.3-3.7,12.7-7.3,19.1-10.9c1.4-0.8,2.9-2.1,4.5-0.7c1.3,1.2,0.8,2.7,0.4,4.2
		c-3.3,12-6.5,24.1-9.7,36.1C180.2,223,179.6,225.4,176.4,224.7z"/>
	<path d="M114,227.6c-2.9,11.1-5.7,22.1-8.8,32.9c-2.7,9.6-2.9,9.6-12.5,7.1c-10.3-2.7-20.5-5.5-30.8-8.3c-1.4-0.4-3.2-0.3-3.6-2.1
		c-0.4-2.1,1.5-2.9,2.8-3.7c16.2-9.4,32.5-18.8,48.7-28.2c1-0.6,2-1.5,3.2-0.7C114.4,225.4,113.9,226.7,114,227.6z"/>
	<path d="M66.5,203.5c3.8,1.1,7.7,2.1,11.5,3.2c9,2.4,18,4.7,27,7.1c1.4,0.4,3.2,0.8,3.4,2.5c0.2,1.6-1.5,2-2.6,2.7
		C89.9,228.3,74,237.6,58,246.8c-1.5,0.9-3.3,2.5-5,1.3c-1.9-1.3-0.4-3.5,0-5.1c3-11.6,6-23.2,9.2-34.7
		C62.7,206.1,63.1,203.5,66.5,203.5z"/>
	<path d="M38.7,253c-11.2-2.8-21.1-7.9-28.6-16.9c-2.8-3.3,0.6-4.8,2.7-6c9.4-5.6,19-10.9,28.5-16.4c2.9-1.7,5.7-3.3,8.6-5
		c1-0.6,2.1-1,3.2,0c0.8,0.8,0.7,1.8,0.4,2.8c-3.5,12.8-6.9,25.6-10.3,38.5C42.6,252.4,41.1,253.1,38.7,253z"/>
	<path class="st0" d="M807,134.7c0,3.7,0,7.3,0,11c0,1.1,0.1,2.5-1.1,3.1c-1.3,0.7-2.1-0.5-2.9-1.3c-8.2-8.2-16.5-16.4-24.7-24.7
		c-0.7-0.7-1.7-1.4-1.4-2.5c0.4-1.4,1.8-1.4,2.9-1.4c7.6,0,15.3,0,22.9,0c2.9,0,4.3,1.4,4.3,4.3C807,127,807,130.9,807,134.7
		C807,134.7,807,134.7,807,134.7z"/>
	<g>
		<path d="M682.5,57.9c-0.4-0.4-0.6-1-0.6-1.6V2.3c0-0.6,0.2-1.2,0.6-1.6c0.4-0.4,1-0.6,1.6-0.6h36.1c0.6,0,1.1,0.2,1.6,0.6
			c0.5,0.4,0.7,1,0.7,1.6c0,0.6-0.2,1.1-0.7,1.6s-1,0.7-1.6,0.7h-33.8V27h24.8c0.6,0,1.2,0.2,1.6,0.6c0.4,0.4,0.6,1,0.6,1.6
			c0,0.7-0.2,1.2-0.6,1.7c-0.4,0.4-1,0.7-1.6,0.7h-24.8v24.8c0,0.7-0.2,1.2-0.6,1.6c-0.4,0.4-1,0.6-1.6,0.6
			C683.5,58.6,683,58.4,682.5,57.9z"/>
		<path d="M759.4,19.8c2.9,1.7,5.1,4.1,6.7,7.2c1.6,3.1,2.4,6.5,2.4,10.4c0,0.7-0.2,1.2-0.6,1.5c-0.4,0.4-0.9,0.6-1.6,0.6h-31.4
			c0.1,3,0.9,5.6,2.3,7.9c1.4,2.3,3.3,4.1,5.6,5.4c2.3,1.3,5,1.9,7.9,1.9c1.9,0,3.9-0.3,5.9-1c2-0.7,3.5-1.6,4.7-2.7
			c0.5-0.4,1-0.6,1.6-0.6c0.5,0,1,0.1,1.4,0.5c0.5,0.4,0.8,1,0.8,1.6c0,0.5-0.2,1-0.7,1.4c-1.6,1.5-3.7,2.7-6.3,3.6
			c-2.6,1-5,1.4-7.4,1.4c-4,0-7.5-0.9-10.5-2.7c-3.1-1.8-5.5-4.2-7.2-7.4c-1.8-3.2-2.6-6.8-2.6-10.8c0-4,0.8-7.7,2.4-10.8
			c1.6-3.2,3.9-5.6,6.8-7.4c2.9-1.8,6.3-2.7,10-2.7C753.3,17.2,756.5,18,759.4,19.8z M739.8,25.3c-2.7,2.6-4.3,6-4.8,10.3h29.2
			c-0.4-4.2-1.9-7.7-4.5-10.3c-2.7-2.6-6-3.9-10-3.9C745.7,21.4,742.4,22.7,739.8,25.3z"/>
		<path d="M779.5,7.9c-0.7-0.7-1-1.5-1-2.5c0-1.1,0.3-2,1.1-2.6c0.7-0.6,1.5-0.9,2.5-0.9c0.9,0,1.8,0.3,2.4,0.9s1,1.5,1,2.6
			c0,1-0.3,1.8-1,2.5c-0.7,0.7-1.5,1-2.5,1C780.9,8.9,780.1,8.6,779.5,7.9z M780.4,57.9c-0.4-0.4-0.6-1-0.6-1.6V19.8
			c0-0.7,0.2-1.2,0.6-1.6c0.4-0.4,1-0.6,1.6-0.6c0.7,0,1.2,0.2,1.7,0.6c0.4,0.4,0.6,1,0.6,1.6v36.5c0,0.7-0.2,1.2-0.6,1.6
			c-0.4,0.4-1,0.6-1.7,0.6C781.4,58.6,780.8,58.4,780.4,57.9z"/>
		<path d="M819.5,54.6c0.4,0.4,0.6,1,0.6,1.7c0,0.7-0.2,1.2-0.6,1.6c-0.4,0.4-1,0.6-1.7,0.6h-1.7c-2.8,0-5.2-0.6-7.3-1.9
			c-2.2-1.2-3.8-3-5-5.1c-1.2-2.2-1.8-4.6-1.8-7.4V23.1h-5.8c-0.6,0-1.1-0.2-1.5-0.6s-0.6-0.9-0.6-1.5s0.2-1.1,0.6-1.5
			s0.9-0.6,1.5-0.6h5.8V6.8c0-0.7,0.2-1.3,0.6-1.7c0.4-0.4,1-0.6,1.6-0.6c0.7,0,1.3,0.2,1.7,0.6c0.4,0.4,0.6,1,0.6,1.7v12.2h9.9
			c0.6,0,1.1,0.2,1.5,0.6s0.6,0.9,0.6,1.5s-0.2,1.1-0.6,1.5s-0.9,0.6-1.5,0.6h-9.9v21.1c0,2.9,0.9,5.3,2.7,7.1
			c1.8,1.8,4.1,2.7,7,2.7h1.7C818.5,54,819.1,54.2,819.5,54.6z"/>
		<path d="M837.5,56.3c-3.2-1.8-5.7-4.3-7.5-7.5c-1.8-3.2-2.7-6.8-2.7-10.6c0-3.9,0.9-7.5,2.7-10.7c1.8-3.2,4.3-5.7,7.5-7.5
			c3.2-1.8,6.8-2.7,10.7-2.7c3.9,0,7.4,0.9,10.7,2.7c3.2,1.8,5.7,4.3,7.5,7.5c1.8,3.2,2.7,6.8,2.7,10.7c0,3.9-0.9,7.5-2.7,10.6
			c-1.8,3.2-4.3,5.7-7.5,7.5c-3.2,1.8-6.8,2.7-10.7,2.7C844.3,59,840.7,58.1,837.5,56.3z M856.7,52.7c2.5-1.4,4.5-3.5,5.9-6
			c1.4-2.6,2.1-5.4,2.1-8.6s-0.7-6-2.1-8.5c-1.4-2.6-3.4-4.6-5.9-6c-2.5-1.5-5.3-2.2-8.4-2.2c-3.1,0-5.9,0.7-8.4,2.2
			c-2.5,1.5-4.5,3.5-5.9,6c-1.5,2.5-2.2,5.4-2.2,8.5s0.7,6,2.2,8.6c1.5,2.5,3.4,4.6,5.9,6c2.5,1.5,5.3,2.2,8.4,2.2
			C851.3,54.8,854.1,54.1,856.7,52.7z"/>
		<path d="M934,19.8c3.2,1.8,5.7,4.3,7.5,7.5c1.8,3.2,2.7,6.8,2.7,10.7c0,3.9-0.9,7.5-2.7,10.6c-1.8,3.2-4.3,5.7-7.5,7.5
			c-3.2,1.8-6.8,2.7-10.7,2.7c-3.6,0-6.8-0.8-9.6-2.3c-2.9-1.5-5.1-3.6-6.8-6.3v23.4c0,0.7-0.2,1.2-0.6,1.7c-0.4,0.4-1,0.6-1.7,0.6
			c-0.7,0-1.2-0.2-1.6-0.6c-0.4-0.4-0.6-1-0.6-1.7V37.8v-0.1c0-3.8,1-7.4,2.8-10.5c1.8-3.2,4.4-5.6,7.5-7.4
			c3.2-1.8,6.7-2.7,10.5-2.7C927.3,17.1,930.8,18,934,19.8z M931.7,52.7c2.5-1.4,4.5-3.5,5.9-6c1.4-2.6,2.2-5.4,2.2-8.6
			s-0.7-6-2.2-8.5c-1.5-2.6-3.4-4.6-5.9-6c-2.5-1.5-5.3-2.2-8.4-2.2c-3.1,0-5.9,0.7-8.4,2.2c-2.5,1.5-4.5,3.5-5.9,6
			c-1.4,2.5-2.1,5.4-2.1,8.5s0.7,6,2.1,8.6c1.4,2.5,3.4,4.6,5.9,6c2.5,1.5,5.3,2.2,8.4,2.2C926.4,54.8,929.2,54.1,931.7,52.7z"/>
		<path d="M963.6,56.3c-3.2-1.8-5.7-4.3-7.5-7.5c-1.8-3.2-2.7-6.8-2.7-10.6c0-3.9,0.9-7.5,2.7-10.7c1.8-3.2,4.3-5.7,7.5-7.5
			c3.2-1.8,6.8-2.7,10.7-2.7c3.9,0,7.4,0.9,10.7,2.7c3.2,1.8,5.7,4.3,7.5,7.5c1.8,3.2,2.7,6.8,2.7,10.7c0,3.9-0.9,7.5-2.7,10.6
			c-1.8,3.2-4.3,5.7-7.5,7.5c-3.2,1.8-6.8,2.7-10.7,2.7C970.4,59,966.8,58.1,963.6,56.3z M982.7,52.7c2.5-1.4,4.5-3.5,5.9-6
			c1.4-2.6,2.1-5.4,2.1-8.6s-0.7-6-2.1-8.5c-1.4-2.6-3.4-4.6-5.9-6c-2.5-1.5-5.3-2.2-8.4-2.2c-3.1,0-5.9,0.7-8.4,2.2
			c-2.5,1.5-4.5,3.5-5.9,6c-1.5,2.5-2.2,5.4-2.2,8.5s0.7,6,2.2,8.6c1.5,2.5,3.4,4.6,5.9,6c2.5,1.5,5.3,2.2,8.4,2.2
			C977.4,54.8,980.2,54.1,982.7,52.7z"/>
		<path d="M1029.6,19.6c0,0.3,0,0.5-0.1,0.6c-0.2,0.6-0.4,0.9-0.7,1.2c-0.3,0.2-0.8,0.3-1.3,0.3c-0.5,0-1,0-1.8-0.1
			c-0.7-0.1-1.3-0.2-1.8-0.2c-2.5,0-4.7,0.5-6.7,1.6c-1.9,1-3.5,2.5-4.6,4.4c-1.1,1.9-1.7,3.9-1.7,6.2v22.8c0,0.7-0.2,1.2-0.6,1.6
			c-0.4,0.4-1,0.6-1.7,0.6c-0.7,0-1.2-0.2-1.6-0.6c-0.4-0.4-0.6-1-0.6-1.6V19.8c0-0.7,0.2-1.2,0.6-1.6c0.4-0.4,1-0.6,1.6-0.6
			c0.7,0,1.2,0.2,1.7,0.6c0.4,0.4,0.6,1,0.6,1.6v4.6c1.4-2.3,3.3-4.1,5.5-5.4c2.3-1.3,4.7-2,7.4-2
			C1027.7,17.1,1029.6,17.9,1029.6,19.6z"/>
	</g>
</g>
</svg>
