<?xml version="1.0" encoding="utf-8"?>
<!-- Generator: Adobe Illustrator 24.1.2, SVG Export Plug-In . SVG Version: 6.00 Build 0)  -->
<svg version="1.1" id="Camada_1" xmlns="http://www.w3.org/2000/svg" xmlns:xlink="http://www.w3.org/1999/xlink" x="0px" y="0px"
	 viewBox="0 0 1018.11 916.85" style="enable-background:new 0 0 1018.11 916.85;" xml:space="preserve">
<path d="M275.1,94.78c-3.74,4.81-6.58,8.24-9.18,11.85c-4.53,6.29-9.11,12.55-13.28,19.07c-1.89,2.96-5.15,4.77-8.66,4.76
	c-60.86-0.12-121.72-0.09-182.58-0.08c-7.77,0-7.78,0-7.78,7.62c0,154.09,0,308.18,0,462.27c0,1.81,0,3.2,0,5.52
	c249.83,0,499.25,0,749,0c0,12.56,0,37,0,37H54.01c-0.1,2.11-0.24,3.74-0.24,5.36c-0.01,27.33-0.02,54.66,0,82
	c0,6.23,0.16,6.38,6.5,6.38c301.82,0,603.64,0,905.46,0c6.31,0,6.45-0.14,6.45-6.43c0.01-27.33,0.01-54.66,0-82
	c0-1.62-0.23-4.31-0.23-4.31s-81.63,0-122.34,0c0-12.71,0-25.09,0-38c40.43,0,80.89,0,122,0c0-2.34,0-4.23,0-6.01
	c0-154.33,0-308.65,0-462.98c0-6.99-0.02-7.01-6.88-7.01c-74.16,0-148.33,0-222.49,0c-1.46,0-2.92,0-5.06,0
	c0.8,1.53,1.22,2.54,1.82,3.42c32.68,47.87,49.17,100.83,49.34,158.73c0.35,119.74-76.9,227.31-190.3,265.37
	c-147.27,49.43-305.74-29.44-355.28-176.83c-35.9-106.83-3.2-226.24,82.13-299.85c44.16-38.09,95.2-61.11,153.18-66.82
	c85.72-8.45,160.52,17.01,223.65,75.9c3.18,2.97,7.37,4.62,11.72,4.61c87.33-0.13,174.66-0.1,261.99-0.09
	c20.84,0,31.73,10.89,31.73,31.74c0,204.99,0,409.98,0,614.97c0,14.66-6.32,25.09-18.31,29.05c-4.16,1.38-8.83,1.73-13.26,1.74
	c-110.66,0.09-221.32,0.07-331.99,0.07c-2.15,0-3.42,0-6.01,0v101c1.87,0,3.64,0,5.41,0c13.85,0,27.7-0.05,41.55,0.04
	c2.98,0.02,6.04,0.16,8.93,0.84c7.07,1.64,11.65,7.85,11.52,15.06c-0.14,7.07-4.64,12.86-11.65,14.43c-2.9,0.65-5.95,0.8-8.94,0.8
	c-114.46,0.04-228.93,0.04-343.39,0c-3.15,0-6.38-0.17-9.43-0.89c-7.33-1.71-12-8.63-11.25-16.25c0.64-6.45,6.76-12.46,13.16-13.47
	c2.66-0.42,5.4-0.51,8.1-0.52c15.51-0.08,31.01-0.04,47-0.04c0-33.6,0-65.99,0-100c-2.1,0-4.19,0-6.28,0
	c-111.21,0-222.43-0.04-333.64,0.06c-11.21,0.01-20.56-3.42-26.25-13.26c-2.48-4.28-3.59-9.62-4.25-14.62
	c-0.71-5.41-0.17-10.99-0.17-16.49c0-200.79,0.01-401.57-0.05-602.36c0-7.57,1.17-14.62,6.04-20.65
	c5.95-7.37,13.74-10.72,23.19-10.7c31.18,0.06,62.36,0.02,93.54,0.02c42.35,0,84.7,0,127.05,0
	C269.74,94.78,271.68,94.78,275.1,94.78z M509.2,535.29c134.7-0.71,243.03-109.18,242.77-243.07
	C751.71,157.91,643.26,49.47,509.03,49.32c-134.08-0.15-244.15,110.05-243.03,243.33C267.13,427.69,375.69,536,509.2,535.29z
	 M420.24,771.78c-0.15,1.6-0.36,2.73-0.36,3.86c-0.02,30.32,0.06,60.64-0.1,90.96c-0.02,4.26,2.02,4.38,5.21,4.37
	c58.64-0.05,117.29-0.08,175.93,0.05c4.25,0.01,5.27-1.34,5.24-5.39c-0.15-29.65-0.08-59.31-0.1-88.96c0-1.59-0.21-3.18-0.33-4.89
	C543.72,771.78,482.27,771.78,420.24,771.78z"/>
<path d="M894.61,233.8c16.02,0,31.33-0.18,46.63,0.05c13.58,0.2,22.15,12.95,17.32,25.31c-2.78,7.12-9.52,11.55-18.03,11.6
	c-13.49,0.08-26.98,0.02-40.47,0.02c-1.63,0-3.27,0-5.46,0c0,4.66,0,8.93,0,13.21c0,10.82,0.06,21.65-0.02,32.47
	c-0.09,11.68-7.85,19.83-18.63,19.73c-10.57-0.09-18.24-8.18-18.32-19.56c-0.1-13.49-0.02-26.98-0.02-40.47c0-1.62,0-3.25,0-5.39
	c-13.55,0-26.65,0.03-39.76-0.02c-3.49-0.01-7.07,0.25-10.44-0.45c-10.24-2.14-16.22-10.19-14.64-20.81
	c1.4-9.43,7.21-15.26,18.65-15.6c15.13-0.45,30.28-0.11,46.19-0.11c0-1.96,0-3.71,0-5.45c0-13.32-0.05-26.65,0.02-39.97
	c0.06-11.74,7.66-19.85,18.46-19.86c10.84-0.01,18.44,8.03,18.5,19.8C894.67,203.26,894.61,218.22,894.61,233.8z"/>
<path d="M94.61,576.78c0-12.16,0-23.95,0-36c61.35,0,122.48,0,184,0c0,11.83,0,23.74,0,36C217.49,576.78,156.24,576.78,94.61,576.78
	z"/>
<path d="M96.61,510.78c0-12.12,0-23.93,0-36c37.4,0,74.58,0,112,0c0,12.03,0,23.84,0,36C171.41,510.78,134.23,510.78,96.61,510.78z"
	/>
<path d="M587.69,428.71c7.59,19.4,5.78,31.41-5.82,40.08c-10.73,8.01-24.5,7.9-35.03-0.28c-11.31-8.79-13.01-20.8-5.46-39.73
	c-17.6,0-35.07,0-53.1,0c8.7,16.22,7.48,30.63-8.02,41.58c-9.91,7-23.48,5.84-32.94-1.78c-11.36-9.15-12.93-19.82-5.6-40.02
	c-1.8,0.11-3.37,0.18-4.93,0.29c-7.33,0.53-11.68-2.47-13.25-9.72c-4.62-21.35-9.08-42.73-13.58-64.11
	c-11.94-56.68-23.9-113.35-35.71-170.06c-0.7-3.38-2.12-4.26-5.3-4.18c-7.79,0.17-15.58,0.12-23.37,0.04
	c-8.11-0.08-13.24-4.46-13.15-11.04c0.09-6.44,5.09-10.74,12.9-10.8c11.6-0.09,23.2-0.1,34.8,0c7.77,0.07,11.41,3.14,13.09,10.78
	c1.78,8.08,3.72,16.14,5.08,24.29c0.74,4.44,2.45,5.83,7.06,5.79c29.83-0.24,59.66-0.12,89.49-0.12c41.27,0,82.53,0,123.8,0
	c2.32,0,4.64-0.04,6.96,0.04c10.39,0.35,15.14,5.82,13.49,16.2c-1.64,10.29-3.71,20.52-5.71,30.75
	c-7.22,36.87-14.5,73.72-21.72,110.59c-1.83,9.36-4.66,12.22-14.35,12.32c-24.03,0.24-48.06,0.15-72.09,0.16
	c-27.84,0.02-55.69,0-83.53,0c-1.79,0-3.58,0-6.17,0c1.58,7.8,2.98,15.02,4.53,22.2c1,4.66,0.77,11.17,3.71,13.41
	c3.22,2.45,9.46,1.14,14.38,1.15c45.24,0.05,90.49-0.02,135.73,0.13c3.47,0.01,7.3,0.79,10.3,2.43c3.91,2.14,5.41,6.31,4.26,10.76
	c-1.16,4.48-4.07,7.67-8.89,8.24C595.68,428.56,591.73,428.52,587.69,428.71z M466.95,272.78c-2.17-18.04-4.22-35.08-6.25-52
	c-19.31,0-37.84,0-56.28,0c-0.17,0.67-0.37,1.01-0.31,1.29c3.31,16.06,6.58,32.13,10.12,48.14c0.24,1.09,2.52,2.41,3.88,2.45
	c8.37,0.23,16.76,0.12,25.14,0.12C450.92,272.78,458.58,272.78,466.95,272.78z M482.68,220.78c1.97,16.45,3.95,32.13,5.65,47.84
	c0.33,3.09,1.51,3.86,4.36,3.84c13.49-0.1,26.98-0.13,40.47,0.02c3.36,0.04,4.22-1.33,4.4-4.4c0.3-5.14,1.04-10.26,1.56-15.4
	c1.07-10.53,2.12-21.07,3.21-31.91C522.29,220.78,502.75,220.78,482.68,220.78z M559.17,272.39c14.9,0,28.87-0.16,42.84,0.1
	c3.78,0.07,4.82-1.52,5.4-4.73c1.5-8.18,3.25-16.31,4.85-24.47c1.46-7.42,2.87-14.84,4.35-22.51c-17.73,0-34.77,0-52.1,0
	C562.73,237.95,560.99,254.78,559.17,272.39z M469.53,294.78c-17,0-33.5,0-50.3,0c3.52,16.89,6.99,33.29,10.34,49.71
	c0.56,2.73,2.04,3.36,4.59,3.33c8.9-0.12,17.81-0.04,26.71-0.04c4.81,0,9.63,0,14.95,0C473.68,329.77,471.63,312.5,469.53,294.78z
	 M601.91,294.34c-14.69,0-28.46-0.08-42.23,0.15c-1.07,0.02-2.83,2-3.04,3.27c-0.86,5.24-1.26,10.56-1.8,15.85
	c-1.12,11.02-2.22,22.05-3.38,33.67c12.96,0,25.39,0.09,37.82-0.16c1.07-0.02,2.67-2.14,3.02-3.53c1.18-4.66,1.9-9.44,2.82-14.17
	C597.32,318.01,599.53,306.61,601.91,294.34z M491.57,294.78c2.11,17.69,4.15,34.73,6.21,52c10.64,0,20.93,0,31.47,0
	c1.8-17.54,3.55-34.7,5.32-52C519.86,294.78,506.02,294.78,491.57,294.78z M573.14,446.1c-0.12-4.48-4.03-8.14-8.5-7.95
	c-4.28,0.18-7.82,3.84-7.84,8.11c-0.02,4.47,3.79,8.27,8.25,8.22C569.53,454.43,573.26,450.57,573.14,446.1z M464.91,438.34
	c-4.4,0.03-7.87,3.5-7.9,7.91c-0.03,4.41,3.37,7.92,7.78,8.02c4.61,0.1,8.25-3.55,8.15-8.15
	C472.84,441.72,469.32,438.31,464.91,438.34z"/>
</svg>
