<?xml version="1.0" encoding="utf-8"?>
<!-- Generator: Adobe Illustrator 24.1.2, SVG Export Plug-In . SVG Version: 6.00 Build 0)  -->
<svg version="1.1" id="Camada_1" xmlns="http://www.w3.org/2000/svg" xmlns:xlink="http://www.w3.org/1999/xlink" x="0px" y="0px"
	 viewBox="0 0 822 547" style="enable-background:new 0 0 822 547;" xml:space="preserve">
<path d="M410.4,547c-126.6,0-253.3,0-379.9,0C10.9,547,0,536,0,516.3C0,354.5,0,192.7,0,30.9C0,10.6,10.5,0,30.7,0
	c253.5,0,506.9,0,760.4,0C811,0,822,11,822,30.9c0,161.8,0,323.6,0,485.4c0,19.7-11,30.7-30.6,30.7C664.3,547,537.4,547,410.4,547z
	 M786.7,55.3c-1.5,1.2-2.4,1.9-3.3,2.6c-23.6,19.9-47,39.9-70.7,59.6c-57.7,48.2-115.3,96.4-176.3,140.3
	c-23.3,16.7-46.9,32.9-73.3,44.5c-24.9,10.9-50.5,14-77,6.4c-18.1-5.2-34.6-13.7-50.6-23.4c-35.8-21.7-69.7-46.2-102.5-72.1
	C167.8,161.9,103.3,109.8,38.5,58c-1-0.8-2-1.4-3.2-2.2c0,152.3,0,304.2,0,456c250.6,0,500.9,0,751.4,0
	C786.7,359.7,786.7,208,786.7,55.3z M66.1,35.2c2.4,2,4.1,3.5,5.9,4.9c27.7,22.5,55.2,45.1,83,67.4c54,43.4,108.1,86.7,165.1,126.2
	c19.2,13.3,38.6,26.2,60,35.7c15.2,6.7,30.9,10.6,47.6,7.5c13.4-2.5,26.1-7.4,37.4-14.7c24.3-15.7,48.9-31.2,72-48.5
	C611.9,157.9,682.7,97,753.9,36.8c0.4-0.4,0.6-0.9,1.1-1.6C525.5,35.2,296.4,35.2,66.1,35.2z"/>
</svg>
