<svg width="54" height="43" viewBox="0 0 54 43" fill="none" xmlns="http://www.w3.org/2000/svg">
<g clip-path="url(#clip0_20_457)">
<path d="M0 23.9846C0.171145 23.2071 0.304722 22.4182 0.520741 21.6533C0.966345 20.0754 1.91286 18.4067 2.87816 17.4132C3.25072 17.7336 3.62536 18.0571 4.02296 18.3994C3.89147 18.5758 3.77981 18.7281 3.66606 18.8774C0.570833 22.9452 0.930864 28.5721 4.50926 32.2246C5.16463 32.8946 5.82625 33.5677 6.40126 34.3044C7.58049 35.8134 7.83199 37.4665 6.99087 39.2384C6.76233 39.7195 6.57449 40.2194 6.33968 40.7746C7.17663 40.7746 7.93635 40.7746 8.69606 40.7746C10.4868 40.7746 12.2776 40.7662 14.0684 40.7819C14.4033 40.785 14.5484 40.6901 14.6392 40.3519C14.9502 39.1957 15.3165 38.054 15.6327 36.8988C15.7182 36.5878 15.8529 36.4907 16.1691 36.497C17.1594 36.5168 18.1508 36.5064 19.1422 36.5033C19.952 36.5001 20.2578 36.2236 20.2818 35.4252C20.3225 34.0874 20.3506 32.7485 20.3632 31.4096C20.3663 31.0809 20.454 30.9202 20.7973 30.8346C21.6541 30.6227 22.4973 30.3598 23.4041 30.101C23.0806 29.0115 22.8312 27.9282 22.4347 26.9014C21.916 25.5583 21.9692 24.138 21.7229 22.7605C20.9653 18.5257 17.8377 15.5724 13.5591 15.0036C10.4733 14.5935 7.69319 15.2468 5.25437 17.2212C5.21576 17.2525 5.16671 17.2713 5.08531 17.3172C4.76911 16.9562 4.45187 16.5951 4.02192 16.1036C4.1628 16.0253 4.30994 15.9669 4.42787 15.8719C8.80877 12.3342 15.6682 12.4824 19.8737 16.2194C21.8732 17.9955 23.0545 20.2653 23.2977 22.8815C23.5377 25.4633 24.4446 27.8395 25.0978 30.2971C25.173 30.5779 25.2575 30.8565 25.3493 31.1779C24.2066 31.5046 23.0921 31.8228 21.8398 32.1797C21.8398 33.3287 21.8763 34.5079 21.8304 35.683C21.7751 37.0918 20.7336 38.0477 19.3113 38.0686C18.7029 38.078 18.0944 38.0707 17.486 38.0707C17.3139 38.0707 17.1406 38.0707 16.933 38.0707C16.5729 39.3011 16.1878 40.5053 15.879 41.7294C15.7506 42.2397 15.5158 42.3556 15.0243 42.3525C11.5638 42.3316 8.10436 42.341 4.64388 42.341C4.45395 42.341 4.26402 42.341 4.00209 42.341C4.08453 42.1177 4.14088 41.9423 4.21289 41.7722C4.69815 40.6201 5.17506 39.4649 5.67702 38.3201C6.06523 37.4352 6.0287 36.57 5.49961 35.7853C5.05609 35.1268 4.56457 34.4777 3.99165 33.9319C1.80955 31.8552 0.417428 29.3892 0.0772241 26.3681C0.0699192 26.3024 0.0271328 26.2397 0.00104357 26.1761C0 25.4456 0 24.7151 0 23.9846Z" fill="#404040"/>
<path d="M53.4308 26.1758C53.3108 26.7686 53.2158 27.3676 53.0666 27.953C52.5354 30.0381 51.4887 31.832 49.9891 33.3733C49.3713 34.0078 48.7587 34.6528 48.2098 35.3446C47.4324 36.3235 47.2957 37.389 47.8488 38.563C48.4175 39.7683 48.8955 41.0164 49.4371 42.3011C48.119 42.3011 46.8636 42.3011 45.5633 42.3011C45.5633 41.82 45.5633 41.3295 45.5633 40.79C46.0507 40.79 46.5297 40.79 47.0901 40.79C46.8448 40.1972 46.6466 39.665 46.4065 39.1516C45.6322 37.4923 45.8294 35.9186 46.9033 34.4858C47.5148 33.6697 48.237 32.9309 48.9508 32.1962C53.6113 27.4031 52.5239 19.5471 46.729 16.2212C42.6173 13.8607 36.9424 14.6851 33.891 18.0934C32.4164 19.7402 31.6943 21.7229 31.567 23.8863C31.496 25.0905 31.1736 26.2051 30.8469 27.3363C30.5871 28.2358 30.3137 29.1312 30.0267 30.0934C30.8918 30.3418 31.7277 30.6068 32.5772 30.8155C32.9549 30.9084 33.0687 31.0785 33.0697 31.4563C33.0749 32.7775 33.1073 34.0997 33.1469 35.4208C33.1709 36.2254 33.4725 36.502 34.2803 36.5051C35.2539 36.5093 36.2286 36.5218 37.2012 36.4978C37.556 36.4884 37.7126 36.5834 37.8096 36.9444C38.1175 38.1017 38.4838 39.2434 38.8031 40.3976C38.8824 40.6835 39.0014 40.7962 39.303 40.7816C39.7851 40.7576 40.2703 40.7754 40.788 40.7754C40.788 41.2961 40.788 41.7751 40.788 42.3366C39.8289 42.3366 38.8636 42.347 37.8994 42.3188C37.8065 42.3157 37.6813 42.083 37.6364 41.9369C37.293 40.8067 36.9674 39.6723 36.6346 38.54C36.5907 38.3919 36.5396 38.2468 36.4832 38.0715C35.711 38.0715 34.9471 38.0767 34.1832 38.0704C32.669 38.0579 31.6442 37.102 31.591 35.593C31.5513 34.4649 31.5837 33.3347 31.5837 32.1795C30.9356 31.9948 30.3742 31.8351 29.8117 31.6734C29.2471 31.5106 28.6826 31.3467 28.0752 31.1714C28.2818 30.4785 28.4843 29.82 28.6742 29.1584C29.2701 27.0775 29.8169 25.0029 30.1456 22.8416C30.9387 17.6134 34.251 14.4242 39.4762 13.4829C44.4749 12.5823 49.4663 14.9293 51.9448 19.3551C52.6826 20.6731 53.148 22.084 53.3327 23.5857C53.3494 23.7214 53.3974 23.8529 53.4308 23.9864C53.4308 24.7148 53.4308 25.4453 53.4308 26.1758Z" fill="#404040"/>
<path d="M29.5967 8.20361C30.1029 8.56259 30.5798 8.90175 31.1579 9.31083C31.088 8.97063 31.0546 8.73791 30.992 8.51459C30.3554 6.22708 29.0437 4.4238 27.065 3.11621C26.9148 3.01707 26.6121 2.96176 26.4827 3.04524C24.2933 4.45824 22.8929 6.43476 22.3262 8.98837C22.3116 9.05411 22.3147 9.12403 22.3032 9.29205C22.848 8.90593 23.3312 8.56364 23.8383 8.20361C24.141 8.62416 24.4238 9.01759 24.7483 9.46945C23.5618 10.3221 22.3836 11.1684 21.1501 12.0544C20.2839 10.847 19.4376 9.66878 18.5652 8.45197C18.9878 8.14934 19.3927 7.86027 19.83 7.5472C20.1295 7.95315 20.4039 8.3257 20.7441 8.78696C21.3818 6.02046 22.7864 3.82061 25.005 2.13421C19.7361 0.0919416 12.7723 3.72043 12.5093 10.9117C12.0189 10.9117 11.5263 10.9117 10.9816 10.9117C10.9669 9.64269 11.1955 8.42589 11.6202 7.24665C13.7564 1.31292 20.478 -1.59864 26.2594 0.9101C26.5892 1.05307 26.8522 1.05307 27.1851 0.906969C33.8973 -2.03485 41.6625 2.51093 42.3857 9.79505C42.4212 10.154 42.4441 10.5151 42.4765 10.9148C41.9317 10.9148 41.4402 10.9148 40.9476 10.9148C40.8454 4.24117 34.2104 0.0126301 28.4165 2.11855C30.632 3.82583 32.0596 6.0142 32.6815 8.79322C33.0071 8.35075 33.2837 7.97715 33.5967 7.55242C34.011 7.84462 34.4159 8.12951 34.8678 8.4478C34.0058 9.65104 33.1616 10.8292 32.286 12.0502C31.0765 11.184 29.8962 10.3377 28.6847 9.46841C28.9988 9.0322 29.2889 8.63043 29.5967 8.20361Z" fill="#404040"/>
<path d="M44.7649 18.7562C44.2536 18.7562 43.7767 18.7562 43.2664 18.7562C43.2664 18.2563 43.2664 17.7805 43.2664 17.2587C43.7568 17.2587 44.2431 17.2587 44.7649 17.2587C44.7649 17.745 44.7649 18.2208 44.7649 18.7562Z" fill="#404040"/>
<path d="M47.9051 18.8147C47.9051 19.3271 47.9051 19.804 47.9051 20.3133C47.4052 20.3133 46.9283 20.3133 46.4075 20.3133C46.4075 19.8259 46.4075 19.3386 46.4075 18.8147C46.8917 18.8147 47.3655 18.8147 47.9051 18.8147Z" fill="#404040"/>
<path d="M42.4252 40.7983C42.9303 40.7983 43.4072 40.7983 43.9196 40.7983C43.9196 41.3045 43.9196 41.7939 43.9196 42.3105C43.4156 42.3105 42.9397 42.3105 42.4252 42.3105C42.4252 41.8169 42.4252 41.341 42.4252 40.7983Z" fill="#404040"/>
</g>
<defs>
<clipPath id="clip0_20_457">
<rect width="53.4307" height="42.3512" fill="white"/>
</clipPath>
</defs>
</svg>
