<svg width="49" height="52" viewBox="0 0 49 52" fill="none" xmlns="http://www.w3.org/2000/svg">
<g clip-path="url(#clip0_20_464)">
<path d="M21.2743 0.00012207C22.2036 0.234731 23.1583 0.398247 24.0581 0.717153C28.1003 2.15122 30.9938 6.15176 31.1178 10.4296C31.1503 11.563 31.1218 12.6975 31.1442 13.8309C31.1482 14.0503 31.2122 14.3042 31.3341 14.4819C32.9317 16.7986 31.7149 19.754 28.9463 20.2568C28.8143 20.2811 28.6813 20.3065 28.6254 20.3167C28.2994 21.245 28.0394 22.1539 27.6626 23.0111C27.2086 24.045 26.4794 24.8941 25.6171 25.6304C25.482 25.7452 25.352 25.9503 25.346 26.1189C25.3175 26.8959 25.3338 27.6739 25.3338 28.5006C26.3992 28.916 27.4635 29.3334 28.5289 29.7457C29.0174 29.9346 29.5456 30.3155 29.9894 30.2363C30.4241 30.1591 30.7694 29.6035 31.1614 29.2653C32.5356 28.0821 34.1199 27.3225 35.8892 26.9396C36.4884 26.8096 36.919 27.034 37.0074 27.5083C37.0906 27.9552 36.8053 28.2954 36.2111 28.4325C33.1094 29.1475 30.8984 30.9533 29.6593 33.8834C27.2807 39.5079 31.2914 45.9521 37.3862 46.337C41.859 46.6193 45.89 43.6893 46.8538 39.4521C47.8756 34.963 45.6219 30.5968 41.3786 28.8825C40.8647 28.6753 40.3112 28.5656 39.776 28.4122C39.2702 28.268 38.997 27.9156 39.0782 27.5083C39.1676 27.0553 39.5535 26.8146 40.0949 26.9213C44.4509 27.7795 47.7913 31.2448 48.4849 35.5805C49.397 41.2842 45.7803 46.1227 40.95 47.4917C40.8698 47.5141 40.7926 47.5456 40.6738 47.5872C40.6738 48.3083 40.6342 49.0365 40.6829 49.7586C40.755 50.8311 40.3721 51.5939 39.3514 51.9991C26.6896 51.9991 14.0288 51.9991 1.36705 51.9991C0.487522 51.67 2.2122e-05 51.0779 0.00408462 50.0948C0.0162721 46.6945 -0.0192748 43.2942 0.0172877 39.8939C0.0548659 36.3321 1.91143 33.7097 5.22541 32.4239C8.40533 31.19 11.5842 29.9529 14.7713 28.7372C15.1877 28.5788 15.4111 28.4021 15.3563 27.9115C15.3024 27.4271 15.3268 26.9304 15.3502 26.4409C15.3654 26.122 15.2628 25.9107 15.0059 25.7137C14.0928 25.015 13.3403 24.1588 12.871 23.1107C12.4749 22.2261 12.2007 21.2866 11.8534 20.3157C11.7498 20.2964 11.5507 20.2618 11.3527 20.2232C8.81463 19.7347 7.60908 16.7193 9.10408 14.6343C9.24932 14.4321 9.33666 14.1478 9.34682 13.8979C9.40979 12.3623 9.28486 10.8013 9.51643 9.29309C10.1512 5.14325 12.5237 2.28426 16.4115 0.730356C17.3093 0.371841 18.2965 0.237778 19.2431 0.00012207C19.9205 0.00012207 20.5969 0.00012207 21.2743 0.00012207ZM11.6807 31.5454C9.43213 32.43 7.16627 33.1897 5.02026 34.2033C2.82549 35.2393 1.59252 37.0938 1.55799 39.5739C1.50924 43.0585 1.54072 46.5452 1.52752 50.0308C1.52651 50.3974 1.68698 50.4858 2.02213 50.4828C3.39322 50.4685 4.76432 50.4767 6.1344 50.4767C6.43197 50.4767 6.73057 50.4767 7.05557 50.4767C7.05557 50.2238 7.05557 50.04 7.05557 49.8561C7.05557 47.1657 7.05455 44.4753 7.0576 41.785C7.0576 41.6001 7.05151 41.4071 7.09822 41.2314C7.19572 40.8587 7.48721 40.6068 7.83963 40.6881C8.10268 40.749 8.34643 41.0151 8.52924 41.2457C8.62369 41.3645 8.57697 41.6042 8.57697 41.789C8.579 44.4967 8.57799 47.2033 8.57799 49.911C8.57799 50.0897 8.57799 50.2685 8.57799 50.4472C11.0764 50.4472 13.5068 50.4472 15.9443 50.4472C15.9646 50.3578 15.9819 50.2939 15.9931 50.2299C16.5974 46.6813 17.1621 43.1256 17.8324 39.5892C18.006 38.6751 17.5896 38.1318 17.1245 37.4929C17.0331 37.5518 16.964 37.5955 16.8949 37.6402C15.7798 38.3745 14.9866 38.1642 14.3884 36.9709C13.9039 36.004 13.4246 35.0351 12.9411 34.0672C12.5298 33.2385 12.1144 32.4107 11.6807 31.5454ZM13.4875 13.38C13.4743 13.5333 13.456 13.6481 13.456 13.7618C13.455 15.656 13.4469 17.5511 13.4642 19.4453C13.4682 19.881 13.52 20.3258 13.6175 20.7504C14.2736 23.5992 16.3831 25.4903 19.4035 25.9646C23.0578 26.5384 26.7028 23.7668 26.9537 20.08C27.1121 17.7563 27.0228 15.4153 27.039 13.0814C27.04 12.9717 27.0136 12.8315 26.9445 12.7554C26.2092 11.9439 25.4628 11.1425 24.7163 10.3351C21.2611 12.5096 17.5439 13.5445 13.4875 13.38ZM29.6014 13.186C29.6014 12.2709 29.6217 11.4096 29.5984 10.5494C29.4643 5.77293 25.541 1.76934 20.7706 1.54286C15.1785 1.27778 9.96025 5.77293 10.9546 13.2774C11.3181 13.1382 11.8686 13.0966 11.9763 12.8569C12.3703 11.9733 13.0406 11.8758 13.8765 11.8443C15.2222 11.7936 16.5791 11.7164 17.9045 11.4909C20.0241 11.1293 21.9629 10.2518 23.792 9.12449C24.633 8.60551 25.2485 8.69387 25.9198 9.39871C26.585 10.0964 27.2574 10.7901 27.8759 11.5285C28.2171 11.9357 28.4528 12.4314 28.7351 12.8874C28.6945 12.9179 28.6549 12.9493 28.6142 12.9798C28.925 13.0448 29.2358 13.1098 29.6014 13.186ZM32.107 50.4614C32.107 49.2935 32.0623 48.1773 32.1232 47.0662C32.1618 46.3522 31.9079 45.9277 31.3574 45.4686C28.4446 43.0392 27.1771 39.8898 27.5438 36.1178C27.6342 35.1895 27.9195 34.2805 28.1288 33.3035C28.0262 33.5005 27.9429 33.6539 27.8647 33.8093C27.297 34.9427 26.7435 36.0822 26.1595 37.2075C25.7024 38.0881 24.8453 38.3125 24.0236 37.7986C23.8682 37.7021 23.7179 37.5985 23.5788 37.5061C22.9217 38.1531 22.6434 38.8528 22.8881 39.7903C23.1431 40.7673 23.2609 41.7829 23.4071 42.7864C23.4863 43.3338 23.2091 43.7075 22.7612 43.7583C22.3417 43.806 22.0096 43.5166 21.906 42.9986C21.8563 42.7498 21.8258 42.4979 21.7831 42.2481C21.6166 41.27 21.449 40.293 21.2824 39.3261C20.6223 39.3261 20.02 39.3261 19.3903 39.3261C18.7606 43.0433 18.136 46.7351 17.5063 50.4523C19.4106 50.4523 21.2662 50.4523 23.1553 50.4523C23.1197 50.2106 23.0923 49.9953 23.0567 49.781C22.8942 48.7968 22.7226 47.8147 22.5682 46.8296C22.4819 46.2801 22.7165 45.8993 23.1603 45.819C23.5899 45.7408 23.9363 46.0293 24.0541 46.5797C24.1211 46.8935 24.1658 47.2125 24.2206 47.5283C24.3882 48.5053 24.5548 49.4824 24.7224 50.4614C27.1964 50.4614 29.6136 50.4614 32.107 50.4614ZM16.9295 26.8888C16.704 28.3025 16.7964 28.6682 17.616 29.6797C18.0517 30.218 18.4874 30.7563 18.9242 31.2946C19.3863 31.8643 19.8504 32.4321 20.3399 33.0343C21.4866 31.6206 22.5946 30.2586 23.6946 28.8916C23.7616 28.8073 23.8032 28.6793 23.8053 28.5696C23.8164 27.9989 23.8103 27.4281 23.8103 26.7923C21.512 27.7876 19.241 27.7511 16.9295 26.8888ZM15.861 36.5007C17.0107 35.6831 18.1147 34.899 19.2319 34.1048C18.1411 32.7571 17.1031 31.4672 16.051 30.1896C15.9697 30.09 15.7564 29.9976 15.6518 30.0342C14.8129 30.3348 13.9852 30.6669 13.1188 31.0041C14.039 32.8475 14.9388 34.6522 15.861 36.5007ZM21.4378 34.1018C22.5753 34.9102 23.6732 35.6902 24.8148 36.5007C25.7339 34.6573 26.6358 32.8495 27.556 31.0041C26.6866 30.6679 25.8578 30.3378 25.0189 30.0342C24.9204 29.9986 24.7224 30.0657 24.6523 30.151C23.5889 31.4418 22.5388 32.7439 21.4378 34.1018ZM33.6568 50.4746C35.4006 50.4746 37.1191 50.4787 38.8375 50.4635C38.9411 50.4625 39.129 50.304 39.131 50.2146C39.1544 49.4306 39.1442 48.6445 39.1442 47.9376C38.155 47.8696 37.2379 47.8716 36.3452 47.7264C35.4433 47.5791 34.5648 47.2856 33.6558 47.052C33.6568 48.1742 33.6568 49.2985 33.6568 50.4746ZM22.2229 36.5311C21.6928 36.1543 21.1362 35.7471 20.5644 35.3621C20.4659 35.2961 20.2597 35.2657 20.1734 35.3235C19.5731 35.7227 18.9912 36.1493 18.4103 36.5626C18.9678 37.6229 19.0887 37.7834 19.4726 37.7661C20.5339 37.7184 21.8319 38.2191 22.2229 36.5311ZM28.5909 18.7557C29.7761 18.5942 30.5378 17.737 30.5206 16.6249C30.5043 15.5483 29.6817 14.6637 28.5909 14.5733C28.5909 15.9546 28.5909 17.3338 28.5909 18.7557ZM11.9133 14.6424C10.9058 14.6647 9.99682 15.5981 9.97143 16.6178C9.94401 17.7471 10.7656 18.6531 11.9133 18.7414C11.9133 17.3734 11.9133 16.0084 11.9133 14.6424Z" fill="#404040"/>
<path d="M38.0322 29.3982C42.375 29.382 45.949 32.9458 45.9541 37.2978C45.9592 41.6619 42.4278 45.2004 38.0576 45.2115C33.7006 45.2227 30.1398 41.6812 30.1246 37.3232C30.1093 32.9844 33.6721 29.4145 38.0322 29.3982ZM38.1145 30.9227C34.6654 30.8364 31.7465 33.672 31.651 37.2013C31.5576 40.6412 34.377 43.5886 37.8494 43.682C41.3777 43.7765 44.3342 41.017 44.4266 37.5425C44.5231 33.9168 41.7545 31.0141 38.1145 30.9227Z" fill="#404040"/>
<path d="M37.7773 38.0516C38.6497 37.1071 39.5069 36.1483 40.4067 35.2312C40.6058 35.0281 40.9592 34.8798 41.2385 34.8849C41.4325 34.8879 41.7412 35.1723 41.7808 35.3744C41.8296 35.6253 41.7321 35.9889 41.5605 36.1829C41.0689 36.7394 40.5093 37.234 39.9761 37.754C39.4073 38.3096 38.8416 38.8682 38.2688 39.4197C37.7539 39.9143 37.3923 39.9112 36.8733 39.4095C36.3747 38.9271 35.879 38.4426 35.3905 37.95C34.9731 37.5296 34.9315 37.0766 35.2646 36.7486C35.5937 36.4246 36.0405 36.4713 36.4701 36.8826C36.8124 37.2097 37.1486 37.5428 37.4888 37.8718C37.5122 37.8942 37.5477 37.9033 37.5782 37.9186C37.6442 37.9622 37.7102 38.0069 37.7773 38.0516Z" fill="#404040"/>
</g>
<defs>
<clipPath id="clip0_20_464">
<rect width="48.6271" height="52" fill="white"/>
</clipPath>
</defs>
</svg>
