<svg width="48" height="42" viewBox="0 0 48 42" fill="none" xmlns="http://www.w3.org/2000/svg">
<g clip-path="url(#clip0_20_446)">
<path d="M47.0058 12.4943C46.734 12.8313 46.3778 12.9038 45.9573 12.8992C44.2598 12.8818 42.5604 12.8643 40.8638 12.902C39.7447 12.9268 38.7238 12.7808 37.9774 11.7801C37.0326 12.946 36.1201 14.0725 35.2066 15.199C34.5713 15.9831 33.9415 16.7726 33.2997 17.5511C32.4753 18.5518 31.2588 18.8144 30.1773 18.2369C29.1105 17.6677 28.6607 16.4862 29.0435 15.2477C29.218 14.6821 29.4016 14.1194 29.6182 13.4372C28.0391 13.4372 26.5418 13.4602 25.0462 13.429C23.9968 13.4069 23.1797 12.6835 22.9842 11.6699C22.8483 10.9667 23.042 10.3378 23.5038 9.77133C22.7363 8.77245 22.7051 7.76165 23.4956 6.71687C22.796 5.78319 22.7345 4.80635 23.4396 3.80197C22.9291 3.18502 22.6537 2.50289 22.8529 1.6858C23.0797 0.753945 23.8958 0.0213168 24.8534 0.0167264C28.3715 0.000200954 31.8896 -0.00347137 35.4076 0.0231529C36.3799 0.0304976 37.1988 0.484947 37.8993 1.21115C38.3547 0.635512 38.8908 0.19667 39.6207 0.0718112C39.8456 0.0332518 40.0752 0.00938175 40.3028 0.00846367C42.2299 0.00387327 44.1579 0.0148902 46.0849 -0.00163521C46.4953 -0.00530753 46.79 0.127814 47.0058 0.464749C47.0058 0.618069 47.0058 0.77047 47.0058 0.923789C46.7836 1.28551 46.4622 1.40119 46.0408 1.39017C45.1163 1.3663 44.1909 1.38283 43.2765 1.38283C43.2765 4.79258 43.2765 8.14082 43.2765 11.5129C44.1992 11.5129 45.0851 11.5249 45.9692 11.5074C46.3897 11.4992 46.7496 11.5818 47.0058 11.9407C47.0058 12.1271 47.0058 12.3107 47.0058 12.4943ZM30.1948 1.38467C28.4973 1.38467 26.7997 1.38191 25.1022 1.3865C24.5431 1.38834 24.1814 1.70232 24.1639 2.1788C24.1456 2.66722 24.5229 3.01793 25.0967 3.02803C25.6163 3.03721 26.1369 3.02527 26.6565 3.0317C27.1559 3.03721 27.4562 3.30162 27.4525 3.71751C27.4497 4.13156 27.1486 4.39505 26.6473 4.40515C26.1883 4.41433 25.7293 4.40423 25.2711 4.40882C24.6927 4.41433 24.3485 4.69893 24.3273 5.18276C24.3062 5.68679 24.6579 6.03015 25.2399 6.04759C25.698 6.06137 26.1571 6.04759 26.6161 6.05218C27.1422 6.05677 27.4323 6.28354 27.4516 6.69576C27.4718 7.12817 27.166 7.41186 26.64 7.42563C26.1663 7.43757 25.6916 7.42471 25.2179 7.43022C24.6422 7.43757 24.3099 7.73227 24.3044 8.22712C24.2998 8.72104 24.6312 9.0387 25.1977 9.05431C25.6558 9.06716 26.1158 9.05339 26.5739 9.05981C27.1559 9.06808 27.4617 9.31688 27.4516 9.76215C27.4415 10.19 27.144 10.425 26.5877 10.4351C26.068 10.4443 25.5475 10.4342 25.0288 10.459C24.6652 10.4764 24.3833 10.7133 24.3696 11.0484C24.3586 11.3302 24.4862 11.6708 24.668 11.8893C24.7901 12.0371 25.1123 12.061 25.3464 12.0665C26.7832 12.1005 28.2209 12.1124 29.6586 12.1354C30.7153 12.1519 31.2396 12.879 30.9256 13.8917C30.7493 14.46 30.5602 15.0255 30.383 15.5938C30.1773 16.2548 30.3389 16.7579 30.8329 17.0232C31.336 17.2932 31.8427 17.1609 32.2788 16.6248C33.8304 14.7133 35.3774 12.7982 36.9262 10.885C37.286 10.4406 37.4706 9.94025 37.4697 9.36462C37.4651 7.49908 37.4761 5.63262 37.4651 3.76708C37.4568 2.34773 36.4827 1.39201 35.056 1.38834C33.4374 1.38099 31.8161 1.38467 30.1948 1.38467ZM41.8278 11.4955C41.8278 8.11511 41.8278 4.76228 41.8278 1.38467C41.3063 1.38467 40.8179 1.38191 40.3304 1.38558C39.3765 1.39201 38.8587 1.90338 38.8495 2.86094C38.8413 3.656 38.8477 4.45197 38.8477 5.24703C38.8477 6.85275 38.8422 8.45939 38.8504 10.0651C38.8541 10.8446 39.2801 11.4294 39.9411 11.4845C40.559 11.5359 41.186 11.4955 41.8278 11.4955Z" fill="#404040"/>
<path d="M6.10352e-05 29.0205C0.259878 28.7001 0.593141 28.6101 1.0026 28.6147C2.71574 28.6331 4.42888 28.6505 6.1411 28.6129C7.26024 28.5881 8.28114 28.7332 9.02846 29.7348C9.97316 28.5697 10.8857 27.4442 11.7974 26.3177C12.4327 25.5336 13.0616 24.7441 13.7042 23.9656C14.5259 22.9685 15.7626 22.7005 16.8275 23.2752C17.8852 23.8462 18.3396 25.0406 17.9623 26.2681C17.7879 26.8336 17.6052 27.3955 17.3885 28.0758C18.9685 28.0758 20.4659 28.0538 21.9624 28.0832C23.0081 28.1043 23.8279 28.8296 24.0225 29.8431C24.1584 30.5473 23.961 31.1743 23.5029 31.7408C24.2704 32.7415 24.2989 33.7523 23.5112 34.7934C24.2107 35.7298 24.2695 36.7067 23.5663 37.7092C24.0795 38.328 24.3521 39.0111 24.1529 39.8282C23.9261 40.7582 23.1091 41.4908 22.1506 41.4954C18.6334 41.5128 15.1153 41.5156 11.5982 41.488C10.6259 41.4807 9.80883 41.0244 9.10741 40.2991C8.65113 40.8748 8.11589 41.3154 7.3851 41.4375C7.14548 41.4779 6.90035 41.5018 6.65706 41.5018C4.76031 41.5073 2.86355 41.4954 0.967717 41.5119C0.546319 41.5156 0.223154 41.41 0.000979115 41.0455C0.000979115 40.8922 0.000979115 40.7398 0.000979115 40.5865C0.221318 40.222 0.543564 40.1091 0.965881 40.1201C1.89039 40.144 2.81581 40.1274 3.73022 40.1274C3.73022 36.7177 3.73022 33.3695 3.73022 29.9974C2.80755 29.9974 1.92252 29.9863 1.03749 30.0019C0.617011 30.012 0.255287 29.9322 6.10352e-05 29.5714C6.10352e-05 29.3877 6.10352e-05 29.2041 6.10352e-05 29.0205ZM16.8477 40.1293C18.5306 40.1293 20.2125 40.132 21.8954 40.1274C22.4747 40.1256 22.8502 39.7868 22.8419 39.2966C22.8336 38.821 22.4719 38.496 21.9165 38.4859C21.3812 38.4767 20.846 38.4896 20.3107 38.4813C19.8425 38.4731 19.5552 38.2077 19.5533 37.8029C19.5524 37.4007 19.8389 37.1235 20.3043 37.1097C20.778 37.0959 21.2527 37.1088 21.7264 37.1051C22.3259 37.0996 22.6794 36.7957 22.6785 36.2917C22.6776 35.7904 22.3241 35.4783 21.7264 35.4654C21.283 35.4563 20.8396 35.4664 20.3961 35.4627C19.8471 35.4581 19.5506 35.2139 19.5542 34.7796C19.5579 34.3509 19.8609 34.0984 20.4053 34.0883C20.8487 34.0801 21.2922 34.0892 21.7356 34.0856C22.3544 34.081 22.6932 33.8019 22.7014 33.2942C22.7106 32.7709 22.359 32.467 21.7228 32.4587C21.2793 32.4523 20.8359 32.4633 20.3925 32.4551C19.8434 32.444 19.5487 32.1934 19.5542 31.7601C19.5598 31.3277 19.8545 31.0917 20.4108 31.0816C20.9304 31.0724 21.4602 31.1257 21.966 31.0385C22.2139 30.9962 22.5334 30.7373 22.6096 30.506C22.6867 30.2728 22.5738 29.8982 22.4104 29.6889C22.2828 29.5255 21.9532 29.4603 21.7108 29.4538C20.2281 29.4135 18.7445 29.4089 17.2609 29.3776C16.3143 29.3574 15.7883 28.6257 16.0573 27.7187C16.2354 27.1192 16.4355 26.5252 16.621 25.9275C16.8266 25.2646 16.6687 24.7606 16.1775 24.4944C15.6671 24.218 15.1723 24.3429 14.7334 24.8836C13.1809 26.7942 11.6349 28.7111 10.0843 30.6226C9.71335 31.0807 9.53249 31.5948 9.53432 32.187C9.54167 34.0222 9.53157 35.8584 9.53891 37.6936C9.54442 39.1772 10.5011 40.1247 11.9856 40.1284C13.6051 40.132 15.2264 40.1293 16.8477 40.1293ZM5.15967 40.1293C5.72429 40.1293 6.24209 40.1348 6.75988 40.1284C7.57606 40.1183 8.14251 39.6115 8.14894 38.7971C8.16822 36.3046 8.16363 33.8111 8.15077 31.3185C8.1471 30.707 7.77895 30.1433 7.25014 30.0791C6.56709 29.9964 5.86659 30.0589 5.16059 30.0589C5.15967 33.4071 5.15967 36.737 5.15967 40.1293Z" fill="#404040"/>
<path d="M47.0057 35.3555C46.9827 35.394 46.9487 35.4289 46.9377 35.4711C46.4539 37.3036 45.2154 38.2648 43.3104 38.2694C41.1841 38.2749 39.0578 38.2795 36.9325 38.263C36.5469 38.2603 36.2751 38.3723 36.019 38.6633C35.3231 39.4565 34.5951 40.2213 33.8854 41.0026C33.5035 41.423 33.0609 41.6296 32.4945 41.4267C31.9712 41.2394 31.7068 40.8208 31.6958 40.1644C31.6893 39.7365 31.6857 39.3078 31.6958 38.88C31.7059 38.4567 31.5176 38.2685 31.0907 38.2667C30.449 38.2648 29.8027 38.2805 29.1674 38.207C27.6002 38.0243 26.3534 36.7142 26.2451 35.1443C26.1946 34.4135 26.2093 33.6763 26.2212 32.9427C26.2286 32.4809 26.4829 32.2276 26.8813 32.2175C27.2963 32.2074 27.5681 32.4708 27.5837 32.9492C27.602 33.5294 27.5837 34.1115 27.5929 34.6926C27.6149 36.0284 28.4439 36.8629 29.7751 36.8914C30.1883 36.9006 30.6014 36.8923 31.0136 36.8932C32.354 36.8978 33.0655 37.6158 33.071 38.969C33.072 39.2096 33.071 39.4501 33.071 39.7916C33.2345 39.6401 33.3327 39.5612 33.4181 39.4685C33.968 38.8735 34.5299 38.2878 35.0596 37.6745C35.5333 37.1273 36.0998 36.8785 36.8297 36.885C38.9706 36.9061 41.1125 36.8942 43.2535 36.8914C44.8142 36.8896 45.6267 36.0743 45.6276 34.5145C45.6285 32.5718 45.6304 30.6292 45.6267 28.6865C45.6239 27.3167 44.7655 26.4583 43.3857 26.4565C38.8733 26.4528 34.3619 26.4528 29.8495 26.4565C28.4402 26.4574 27.6048 27.2984 27.5919 28.7159C27.5864 29.2511 27.5984 29.7864 27.5873 30.3216C27.5763 30.8339 27.3184 31.1268 26.9043 31.1286C26.4875 31.1304 26.2277 30.8413 26.2176 30.3271C26.2066 29.746 26.2029 29.1639 26.2176 28.5837C26.2699 26.5171 27.7186 25.0858 29.7889 25.0803C33.7807 25.0702 37.7734 25.0775 41.7653 25.0775C42.3923 25.0775 43.0203 25.0629 43.6464 25.0849C45.2237 25.1409 46.509 26.1838 46.9065 27.7078C46.9331 27.8098 46.9726 27.908 47.0057 28.0081C47.0057 30.4584 47.0057 32.9069 47.0057 35.3555Z" fill="#404040"/>
<path d="M6.10352e-05 2.94543C0.0790159 2.69938 0.146036 2.44874 0.238762 2.20821C0.738197 0.913715 1.96383 0.0204238 3.34646 0.0158334C8.04244 0.00114412 12.7384 -0.00344627 17.4344 0.0167515C19.2008 0.0240961 20.7009 1.41682 20.7533 3.1777C20.8221 5.45454 20.8194 7.73597 20.7542 10.0137C20.7055 11.7085 19.3073 13.0452 17.6153 13.1572C17.0516 13.1949 16.4842 13.1756 15.9177 13.1793C15.5055 13.182 15.2962 13.3675 15.3081 13.7971C15.321 14.2406 15.3182 14.6849 15.3081 15.1274C15.2934 15.7435 15.0134 16.1722 14.5158 16.3494C13.9723 16.5431 13.5289 16.3696 13.1543 15.962C12.4097 15.1504 11.6808 14.3232 10.9096 13.5382C10.7205 13.3464 10.3964 13.2187 10.1228 13.194C9.54626 13.1416 8.96144 13.1848 8.38029 13.1747C7.86525 13.1655 7.58248 12.913 7.58616 12.4889C7.58983 12.0831 7.86066 11.8196 8.34541 11.8086C9.03305 11.793 9.72161 11.8012 10.4102 11.8104C10.9941 11.8177 11.4641 12.0693 11.8543 12.5008C12.508 13.2252 13.1727 13.9394 13.9356 14.7694C13.9356 14.3223 13.9301 14.011 13.9365 13.6998C13.9595 12.6211 14.6462 11.8866 15.7259 11.8177C16.2437 11.7847 16.766 11.8104 17.2857 11.7994C18.5425 11.7737 19.3936 10.9584 19.4083 9.69607C19.4312 7.63131 19.4312 5.56563 19.4083 3.50086C19.3945 2.22382 18.5214 1.38836 17.2471 1.38744C12.6888 1.38377 8.13058 1.38377 3.57139 1.38744C2.25028 1.38836 1.38269 2.25319 1.37902 3.56788C1.37351 5.58674 1.37351 7.60652 1.37902 9.62537C1.38269 10.9245 2.22916 11.7792 3.52732 11.7994C4.13877 11.8086 4.75112 11.793 5.36257 11.8049C5.90332 11.8159 6.1971 12.0831 6.18333 12.5182C6.16956 12.9341 5.88495 13.1701 5.35981 13.1756C4.68686 13.182 4.01299 13.1958 3.34095 13.1692C1.74258 13.1058 0.494906 12.084 0.0946233 10.5407C0.0725894 10.4553 0.0321938 10.3745 6.10352e-05 10.2919C6.10352e-05 7.84246 6.10352e-05 5.39395 6.10352e-05 2.94543Z" fill="#404040"/>
<path d="M10.0585 4.50607C11.5402 4.50607 13.022 4.50516 14.5029 4.50699C15.0712 4.50791 15.3989 4.76589 15.3943 5.19922C15.3897 5.63072 15.0629 5.88228 14.4909 5.88228C11.4971 5.88411 8.50322 5.88411 5.51028 5.88228C4.94566 5.88228 4.63535 5.61511 4.6528 5.16434C4.6684 4.74937 4.96219 4.50883 5.47723 4.50791C7.00308 4.50424 8.53077 4.50607 10.0585 4.50607Z" fill="#404040"/>
<path d="M36.9959 33.8892C35.4995 33.8892 34.0021 33.891 32.5056 33.8882C31.9346 33.8873 31.6086 33.6312 31.6105 33.1979C31.6123 32.7664 31.941 32.513 32.5111 32.512C35.505 32.5111 38.4988 32.5102 41.4927 32.512C42.039 32.512 42.3428 32.7535 42.3548 33.1804C42.3667 33.6165 42.0647 33.8855 41.5331 33.8873C40.0201 33.8919 38.508 33.8892 36.9959 33.8892Z" fill="#404040"/>
<path d="M10.0015 8.81445C8.50504 8.81445 7.00765 8.83189 5.51118 8.79792C5.24769 8.7915 4.90341 8.63726 4.7455 8.43528C4.45264 8.06162 4.75652 7.50986 5.24494 7.45018C5.48639 7.4208 5.73336 7.43825 5.97757 7.43825C8.74191 7.43733 11.5062 7.43825 14.2706 7.43825C14.4083 7.43825 14.546 7.43274 14.6828 7.441C15.107 7.46762 15.3962 7.74947 15.3925 8.12681C15.3897 8.50138 15.0969 8.80068 14.6736 8.80894C13.8951 8.82455 13.1156 8.81445 12.3371 8.81445C11.5595 8.81445 10.781 8.81445 10.0015 8.81445Z" fill="#404040"/>
<path d="M36.9528 30.9551C35.471 30.9551 33.9892 30.956 32.5084 30.9542C31.9318 30.9533 31.6105 30.7054 31.6114 30.2711C31.6123 29.8396 31.9419 29.5789 32.5093 29.5789C35.5031 29.5771 38.497 29.5761 41.4899 29.5789C42.0536 29.5798 42.3676 29.847 42.3538 30.2941C42.3401 30.7247 42.0481 30.9533 41.4899 30.9542C39.9769 30.9569 38.4649 30.9551 36.9528 30.9551Z" fill="#404040"/>
</g>
<defs>
<clipPath id="clip0_20_446">
<rect width="47.0057" height="41.5137" fill="white"/>
</clipPath>
</defs>
</svg>
