<svg width="48" height="48" viewBox="0 0 48 48" fill="none" xmlns="http://www.w3.org/2000/svg">
<g clip-path="url(#clip0_20_455)">
<path d="M47.5548 25.8392C47.4359 26.6798 47.3634 27.5297 47.1916 28.3581C45.4111 36.9514 40.4392 42.9088 32.1533 45.7779C24.7833 48.3302 17.8247 47.0931 11.4661 42.5605C11.3779 42.4973 11.2868 42.437 11.206 42.3654C10.9088 42.1017 10.8549 41.706 11.0713 41.4097C11.2868 41.1134 11.6834 41.0345 12.0224 41.2565C12.6048 41.6373 13.1593 42.0617 13.7491 42.4295C17.4689 44.7488 21.5334 45.7946 25.9025 45.6051C35.6085 45.1844 43.8321 38.0957 45.7557 28.5281C47.8492 18.1171 41.785 7.61423 31.6862 4.28075C25.5765 2.26432 19.7037 2.92191 14.115 6.11793C13.7983 6.29905 13.6748 6.47552 13.7073 6.87397C13.7723 7.67368 13.7788 8.48545 13.7268 9.28608C13.6822 9.97154 13.8578 10.4945 14.4773 10.8335C15.1859 10.3895 15.8872 9.87494 16.6507 9.48113C22.9879 6.21545 29.1124 6.58512 35.0011 10.6198C35.5602 11.0025 35.6141 11.5598 35.1506 11.8709C34.7902 12.1134 34.4809 11.9666 34.1754 11.74C32.719 10.6644 31.1289 9.84058 29.3836 9.3576C24.4768 7.99876 19.9238 8.77245 15.7442 11.6917C15.6689 11.7446 15.5983 11.8031 15.5677 11.8264C16.5476 12.8109 17.5247 13.7917 18.512 14.7837C23.9994 11.1195 30.8939 12.9911 34.2236 17.5877C37.5451 22.1714 37.0983 28.4315 33.1295 32.4737C29.2183 36.4573 22.9415 37.0378 18.3773 33.8725C13.7584 30.669 11.7875 24.2426 14.9166 18.6568C13.9172 17.6602 12.9252 16.6701 11.9138 15.6614C11.0648 16.8791 10.4175 18.237 9.95957 19.685C7.1713 28.4928 12.7005 37.8979 21.7535 39.7546C30.6552 41.5806 39.2884 35.4709 40.4606 26.4513C41.0671 21.7813 39.7705 17.6342 36.7008 14.0518C36.58 13.9106 36.4463 13.7806 36.332 13.6338C36.0608 13.2855 36.0878 12.8982 36.3915 12.64C36.6813 12.3929 37.0695 12.3911 37.3472 12.705C37.8785 13.3087 38.4144 13.9143 38.8779 14.5691C45.9777 24.5863 40.3259 38.7394 28.2774 41.1385C19.0851 42.9692 10.071 37.022 8.20691 27.8287C7.27347 23.2237 8.11403 18.9122 10.6961 14.9629C10.7713 14.8468 10.8466 14.7307 10.932 14.6007C10.5299 14.0629 10.1165 13.6598 9.33913 13.7406C8.52735 13.8251 7.69979 13.7713 6.88058 13.7443C6.61494 13.736 6.50163 13.84 6.3846 14.0499C5.11028 16.3292 4.26228 18.759 3.91584 21.3438C3.15515 27.0244 4.40253 32.2266 7.77966 36.8781C8.43168 37.7762 9.21467 38.5796 9.94471 39.4202C10.3534 39.8911 10.2744 40.4298 9.75616 40.6286C9.41343 40.7595 9.15894 40.61 8.92767 40.3769C6.79885 38.2313 5.10192 35.7886 3.99479 32.9734C1.39692 26.3696 1.75916 19.9097 5.03505 13.6143C5.07777 13.5326 5.114 13.4481 5.14558 13.3793C3.31304 12.1579 1.96999 10.4322 0.405887 8.94428C0.225699 8.77338 0.133748 8.50681 0 8.2839C0 8.03591 0 7.78885 0 7.54086C0.378023 6.5879 1.09227 6.23031 2.08981 6.32319C2.51334 6.36313 2.94431 6.3297 3.24989 6.3297C3.90284 4.8659 4.83535 3.86558 6.31494 3.29436C6.31494 2.75101 6.30008 2.13522 6.31866 1.52035C6.33816 0.889689 6.66417 0.440148 7.23074 0.176367C7.81682 -0.0957724 8.41682 -0.0744098 8.87472 0.383491C10.3682 1.88072 11.9909 3.25814 13.2763 4.98664C13.3739 4.9337 13.4955 4.87054 13.6153 4.80274C18.7646 1.88537 24.2371 1.04666 30.0069 2.34977C38.8129 4.33927 45.6424 11.5496 47.1981 20.4401C47.3439 21.2751 47.4368 22.1194 47.5548 22.9599C47.5548 23.9194 47.5548 24.8798 47.5548 25.8392ZM16.0247 19.6497C13.8986 23.3175 14.3649 29.0984 18.8687 32.5025C23.1235 35.7189 29.1728 35.0223 32.6679 30.9161C36.1138 26.8683 35.7868 20.7735 31.9286 17.0797C27.9672 13.2864 22.3758 13.7787 19.5021 15.9187C20.456 16.8726 21.4006 17.8292 22.3656 18.7655C22.4492 18.8463 22.6675 18.8249 22.8133 18.7989C23.4653 18.6828 24.1099 18.4562 24.7628 18.4339C27.9291 18.3243 30.5298 20.676 30.8707 23.8999C31.2422 27.4173 28.0982 30.6476 24.5873 30.356C20.8266 30.0439 18.382 26.8043 19.099 23.0937C19.125 22.9599 19.1157 22.7565 19.034 22.6729C18.0429 21.6568 17.0343 20.6584 16.0247 19.6497ZM25.1102 23.8479C24.9022 23.5228 24.7443 23.1485 24.4777 22.881C18.5789 16.9617 12.668 11.0555 6.75984 5.1464C6.70504 5.0916 6.65024 5.03773 6.59637 4.982C6.39482 4.77488 6.19698 4.78045 5.99543 4.98479C5.71308 5.27086 5.42607 5.55322 5.14186 5.83836C4.68675 6.29533 4.68675 6.33434 5.15301 6.8006C11.0509 12.6985 16.9488 18.5973 22.8477 24.4943C22.9675 24.6141 23.0873 24.7405 23.2266 24.8333C23.6056 25.0869 24.0152 25.1018 24.4155 24.8993C24.8056 24.7005 25.0006 24.3634 25.1102 23.8479ZM20.3928 23.964C20.2006 26.0501 21.5464 28.0414 23.4746 28.7167C25.4056 29.3938 27.5892 28.647 28.7363 26.9185C29.8898 25.1789 29.7078 22.8838 28.3295 21.3308C27.044 19.8828 24.8121 19.489 23.6436 20.0779C24.2882 20.7178 24.9291 21.3429 25.5579 21.98C26.6446 23.0807 26.6966 24.6578 25.6889 25.6758C24.6774 26.6974 23.0408 26.6538 21.9541 25.568C21.4572 25.0693 20.9705 24.5575 20.3928 23.964ZM12.3429 8.72415C12.3429 8.07771 12.3633 7.53528 12.3382 6.99565C12.302 6.21267 12.0317 5.50678 11.48 4.94299C10.3747 3.81542 9.25461 2.70364 8.13447 1.59094C8.05552 1.51292 7.93013 1.48041 7.82703 1.42747C7.78617 1.551 7.71372 1.6736 7.71093 1.79713C7.69886 2.44729 7.68307 3.09839 7.71743 3.74669C7.72858 3.96589 7.82982 4.22874 7.98121 4.38292C9.31312 5.74362 10.6645 7.08388 12.0113 8.42879C12.0949 8.51146 12.1868 8.58576 12.3429 8.72415ZM8.73726 12.3446C7.65985 11.2719 6.6651 10.2762 5.66478 9.28608C5.13814 8.76502 4.68396 8.05356 4.04773 7.79349C3.40964 7.53343 2.58579 7.7229 1.84275 7.72847C1.70064 7.7294 1.55853 7.79442 1.41736 7.82971C1.48516 7.95603 1.52788 8.10836 1.62541 8.20588C2.67031 9.26286 3.7245 10.3106 4.77405 11.362C5.33041 11.9192 6.001 12.2675 6.77934 12.3335C7.38771 12.3855 8.00536 12.3446 8.73726 12.3446Z" fill="#404040"/>
</g>
<defs>
<clipPath id="clip0_20_455">
<rect width="47.5548" height="47.0867" fill="white"/>
</clipPath>
</defs>
</svg>
