<?xml version="1.0" encoding="utf-8"?>
<!-- Generator: Adobe Illustrator 24.1.2, SVG Export Plug-In . SVG Version: 6.00 Build 0)  -->
<svg version="1.1" id="Camada_1" xmlns="http://www.w3.org/2000/svg" xmlns:xlink="http://www.w3.org/1999/xlink" x="0px" y="0px"
	 viewBox="0 0 1000 1000" style="enable-background:new 0 0 1000 1000;" xml:space="preserve">
<path d="M233.2,708.4c-8.1,0-15.5,0-23,0c-33,0.1-66,0.3-99,0.3c-14.2,0-26.4-12.4-26.4-26.6c0-114,0-228,0-342
	c0-14.9,13.5-27.5,29.3-27.5c69,0,138,0,207,0c4.3,0,8.6,0,13.3,0c0.2-1.6,0.4-2.9,0.4-4.1c0-18-0.1-36,0.1-54
	c0-3.7-1.1-4.9-4.8-4.8c-7.5,0.3-15,0.1-22.5,0.1c-14.5-0.1-26.7-12.3-26.8-26.8c-0.1-46.7-0.1-93.3,0-140
	c0-14.5,12.4-26.7,26.9-26.7c65.5,0,131,0,196.5,0c14.8,0,27.1,12.2,27.1,27c0,46.5,0,93,0,139.5c0,14.9-12.2,26.9-27.1,27
	c-8.7,0-17.3,0-26.9,0c0,2.4,0,4.4,0,6.5c0,58.8,0,117.7,0,176.5c0,10.5-7.2,19.8-17.7,22.2c-3.7,0.9-7.5,1.3-11.3,1.3
	c-71.2,0.1-142.3,0.1-213.5,0.1c-2,0-3.9,0-6.3,0c-0.1,1.9-0.3,3.3-0.3,4.8c0,32.8,0,65.7,0,98.5c0,3-0.3,6.1,4.9,4.5
	c0-5.9,0-12,0-18.2c0-16.1,10.6-27.5,26.6-27.6c43.2-0.3,86.3-0.3,129.5,0c16,0.1,26.5,11.6,26.5,27.7c0,6,0,11.9,0,18.6
	c9.6,0,18.9,0,28.2,0c26.5-0.1,53-0.3,79.5-0.3c7.8,0,15.7-0.3,23.3,1.1c13,2.3,21.5,13.7,21.5,27.1c0,72.7,0,145.3,0,218
	c0,2.1,0,4.3,0,6.8c35.8,0,71.2,0,107.1,0c0-114.5,0-229.1,0-344.1c-1.4-0.1-2.8-0.4-4.2-0.4c-7.2,0-14.3,0-21.5,0
	c-15.9,0-27.9-11.9-27.9-27.7c0-46,0-92,0-138c0-15.8,12-27.8,27.8-27.8c41.7-0.1,83.3-0.3,125-0.3c23.7,0,47.3,0.2,71,0.3
	c14.5,0.1,26.7,12.3,26.7,26.9c0,46.5,0,93,0,139.5c0,15.1-12.2,27.1-27.4,27.2c-8.3,0-16.6,0-25.6,0c0,2.8,0,5.1,0,7.4
	c0,151.7-0.2,303.3,0.3,455c0,14.3-12.9,25.6-25.8,26.3c-1.2,0.1-2.3,0-3.5,0c-111.2,0-222.3-0.1-333.5,0.1
	c-20.5,0-32.1-17.4-32.1-32.2c0.2-71.3,0.1-142.7,0.1-214c0-2.1,0-4.3,0-6.7c-3.1,0-5.7,0-8.9,0c0,6.3,0,12.6,0,18.9
	c0,17-10.8,27.8-27.8,27.8c-42.3,0-84.7,0-127,0c-17,0-27.8-10.8-27.8-27.7C233.2,721.5,233.2,715.3,233.2,708.4z M711.2,473
	c0,126.8,0,253.1,0,379.3c-59.7,0-118.9,0-178.6,0c0-84.7,0-168.9,0-253.2c-39.1,0-77.7,0-116.4,0c0,24.7,0,49.2,0,74.3
	c14.8,0,29.4,0,44.4,0c0,84.6,0,168.5,0,252.6c107.9,0,215.3,0,322.9,0c0-151.1,0-302,0-453C759.3,473,735.7,473,711.2,473z
	 M444.4,421.3c0-57.6,0-114.3,0-171.1c-25.1,0-49.8,0-75.1,0c0,32.6,0,64.8,0,97.7c-83.2,0-165.9,0-248.7,0c0,108.7,0,216.8,0,325.1
	c37.6,0,74.8,0,112.1,0c0-24.8,0-49.3,0-74.4c-13.2,0-25.9,0-38.7,0c0-59.3,0-118,0-177.3C277.6,421.3,360.9,421.3,444.4,421.3z
	 M316.6,213.9c59.9,0,119.3,0,178.8,0c0-40.8,0-81.3,0-121.9c-59.8,0-119.2,0-178.8,0C316.6,132.7,316.6,173.1,316.6,213.9z
	 M657.5,436.9c60,0,119.4,0,178.8,0c0-40.8,0-81.3,0-121.8c-59.8,0-119.2,0-178.8,0C657.5,355.8,657.5,396.2,657.5,436.9z
	 M267.2,721.1c38.5,0,76.5,0,114.5,0c0-56.4,0-112.5,0-168.5c-38.4,0-76.3,0-114.5,0C267.2,608.9,267.2,664.8,267.2,721.1z"/>
<path d="M779.3,714.5c0,11.2,0,22.3,0,33.5c0,10.5-7.5,18.3-17.6,18.4c-10.3,0.1-17.9-7.8-17.9-18.6c0-22.5,0-45,0-67.4
	c0-10.8,7.6-18.7,17.9-18.6c10.3,0.1,17.6,7.9,17.6,18.8C779.3,691.8,779.3,703.2,779.3,714.5z"/>
<path d="M739.8,844.7c0-9.3-0.1-18.6,0-28c0.1-10.4,7.9-18.2,17.9-18.1c9.9,0.1,17.5,7.8,17.6,17.9c0.1,19,0.1,38,0,56.9
	c0,10.1-7.8,17.8-17.7,17.8c-9.9,0-17.6-7.6-17.8-17.6c0-0.2,0-0.3,0-0.5C739.8,863.7,739.8,854.2,739.8,844.7z"/>
<path d="M323.3,357.2c10.7,0,21.3,0,32,0c10.8,0,18.7,7.6,18.6,17.9c-0.1,10.3-7.9,17.6-18.8,17.6c-21.3,0-42.6,0-63.9,0
	c-11,0-18.8-7.3-18.9-17.6c-0.1-10.5,7.8-17.9,19.1-17.9C302,357.2,312.6,357.2,323.3,357.2z"/>
<path d="M199.5,390.7c-7.5,0-15,0.1-22.5,0c-10.2-0.1-17.8-7.7-17.8-17.6c0-9.9,7.6-17.8,17.6-17.9c15.5-0.1,31-0.1,46.5,0
	c10,0.1,17.7,8,17.6,17.9c-0.1,9.9-7.7,17.5-17.9,17.6C215.2,390.8,207.4,390.7,199.5,390.7z"/>
</svg>
