<?xml version="1.0" encoding="utf-8"?>
<!-- Generator: Adobe Illustrator 24.1.2, SVG Export Plug-In . SVG Version: 6.00 Build 0)  -->
<svg version="1.1" id="Camada_1" xmlns="http://www.w3.org/2000/svg" xmlns:xlink="http://www.w3.org/1999/xlink" x="0px" y="0px"
	 viewBox="0 0 1000 1000" style="enable-background:new 0 0 1000 1000;" xml:space="preserve">
<path d="M112.66,739.41c0-28.67,0-56.78,0-85.08c-12.93-2.35-24.87-6.65-35.46-14.3c-31.66-22.88-31.64-63.43,0.04-86.34
	c10.59-7.66,22.54-11.9,35.43-14.31c0-28.32,0-56.43,0-84.76c-4.74-1.28-9.58-2.34-14.26-3.89c-12.9-4.25-24.18-11.09-32.94-21.66
	c-17.8-21.47-15.59-50.71,5.3-70.06c11.74-10.88,25.89-16.69,41.79-19.56c0-28.23,0-56.46,0-84.64c-6.47-1.99-13.09-3.59-19.37-6.05
	c-13.18-5.17-24.19-13.31-31.88-25.43c-13.28-20.92-9.4-46.89,9.55-64.39c11.75-10.86,25.91-16.63,42.08-19.56c0-1.76,0-3.54,0-5.32
	c0-17.83-0.03-35.66,0.01-53.49c0.04-17.38,12.22-29.71,29.48-29.71c215.31-0.02,430.62-0.02,645.93,0
	c17.32,0,29.53,12.27,29.57,29.61c0.05,19.5,0.01,39,0.01,58.49c0,1.8,0,3.59,0,5.89c2.23,0,4.01,0,5.79,0
	c16.5,0,33-0.08,49.49,0.02c16.12,0.1,28.64,12.43,28.68,28.47c0.1,45.66,0.03,91.32,0.04,136.98c0,8.46-3.55,15.39-9.55,21.69
	c8.74,7.91,9.7,18.06,9.64,28.89c-0.24,41.99-0.2,83.99-0.02,125.98c0.04,9.49-2.29,17.74-9.4,24.7c0.81,1.08,1.53,2.12,2.34,3.09
	c4.67,5.58,6.99,11.98,6.99,19.29c-0.03,45.16,0.02,90.32-0.03,135.48c-0.02,17.11-12.2,29.32-29.25,29.38
	c-17.99,0.06-35.98,0.01-54.67,0.01c0,5.93-0.12,11.69,0.1,17.43c0.04,1.08,1.3,2.23,2.21,3.14
	c37.28,37.19,74.45,74.49,111.94,111.47c24.65,24.32,26.88,64.42,4.5,90.79c-22.69,26.73-62.1,31.48-90.06,10.7
	c-4.38-3.26-8.37-7.07-12.32-10.86c-5.26-5.05-10.31-10.33-16.44-16.52c0,5.65,0.02,10.04,0,14.43c-0.1,17.12-12.2,29.4-29.24,29.4
	c-215.48,0.03-430.95,0.02-646.43,0c-17.06,0-29.27-12.25-29.32-29.32c-0.06-19.83-0.01-39.66-0.01-59.49c0-1.8,0-3.61,0-4.31
	c-9.85-3.8-19.39-6.46-27.93-10.98c-17.21-9.11-29.11-22.85-31.15-43.03c-2.06-20.36,7.22-35.7,22.93-47.63
	C87.3,746.07,99.5,741.81,112.66,739.41z M780.91,911.67c0-13.52,0.14-26.51-0.13-39.48c-0.05-2.33-1.17-5.23-2.8-6.86
	C725.5,812.69,672.85,760.23,620.4,707.56c-4.15-4.16-7.69-9.26-10.35-14.52c-7.35-14.55-14.08-29.42-21.07-44.15
	c-0.82-1.73-1.75-3.41-2.64-5.12c-7.85,5.49-15.21,10.92-22.89,15.87c-2.77,1.79-3.63,3.58-3.62,6.78
	c0.12,34.66,0.08,69.33,0.08,103.99c0,1.75,0,3.5,0,5.4c-29.69-7.32-55.44,17.64-48.16,47.69c-31.9,0-63.75,0-95.76,0
	c3.13-13.52,0.77-25.5-8.18-35.82c-9.07-10.46-20.87-14.23-34.9-13.03c0-2.18,0-3.97,0-5.75c0-32.66-0.04-65.33,0.06-97.99
	c0.01-3.14-0.74-4.96-3.67-6.68c-7.45-4.38-14.89-8.9-21.73-14.16c-52.54-40.41-79.52-93.8-77.73-160.15
	c1.8-66.65,31.89-119.02,87.04-155.83c78.79-52.59,183.98-39.37,247.44,31.08c50.1,55.61,62.59,120.22,40.97,191.62
	c-1.76,5.82-4.19,11.45-6.38,17.36c20.42,9.66,40.63,19.04,60.65,28.84c5.01,2.45,9.97,5.62,13.91,9.5
	c21.37,21.05,42.41,42.43,63.57,63.69c1,1,2.09,1.91,3.54,3.22c0-197.52,0-394.37,0-591.17c-210.37,0-420.41,0-630.67,0
	c0,16.86-0.06,33.35,0.12,49.83c0.01,1.27,1.55,3.34,2.75,3.66c21.63,5.78,36.45,19.94,47.97,38.32c5.68,9.05,3.92,19.78-4.35,25.76
	c-8.14,5.89-19.11,4.08-25.73-4.36c-2.88-3.67-5.24-7.77-8.36-11.21c-3.34-3.68-7.29-6.82-10.97-10.19
	c-0.48,0.34-0.96,0.68-1.44,1.01c0,2.43,0,4.86,0,7.3c0,49.33,0,98.66,0,147.99c0,2.43-0.55,4.72,3.1,5.65
	c21.68,5.53,36.43,19.89,47.89,38.29c5.62,9.03,3.65,19.82-4.72,25.67c-8.1,5.67-18.85,3.89-25.36-4.35
	c-2.99-3.79-5.69-7.81-8.6-11.66c-3.11-4.12-6.86-7.42-11.99-9.35c0,53.85,0,107.09,0,160.73c22.21,4.88,37.55,18.65,49.5,37.09
	c6.59,10.16,5.51,21.05-3.37,27.43c-8.67,6.23-19.76,3.74-26.93-6.04c-2.36-3.22-4.43-6.72-7.13-9.63
	c-3.39-3.63-7.29-6.78-10.98-10.13c-0.47,0.35-0.93,0.7-1.4,1.05c0,1.61,0,3.22,0,4.84c0,17.5,0,35,0,52.5
	c0,32.66-0.01,65.33,0.02,97.99c0,2.17-0.8,4.58,2.67,5.46c21.5,5.42,36.28,19.44,47.82,37.62c6.04,9.51,4.38,20.49-4.3,26.51
	c-8.43,5.84-19.21,3.7-25.97-5.22c-2.72-3.58-5.25-7.31-7.97-10.89c-3.12-4.1-6.85-7.42-11.95-9.27c0,44.04,0,87.46,0,131.05
	C360.46,911.67,570.38,911.67,780.91,911.67z M605.04,557.95c31.79-71.24,5.81-160.01-69.01-199.94
	c-76.43-40.8-169.93-12.54-210.66,62.97c-20.45,37.92-24.87,78.21-12.14,119.44c15.32,49.6,48.49,83.09,96.86,102.12
	c0,7.03,0,13.97,0,21c37.75,0,75.12,0,112.82,0c0-7.12,0.15-13.93-0.07-20.73c-0.09-2.78,0.95-4.02,3.35-5.24
	c7.26-3.69,14.63-7.28,21.4-11.77c7.82-5.19,15.03-11.28,22.42-16.92c-3.43-7.35-6.57-13.6-9.29-20.02
	c-4.55-10.74-3.58-20.87,4.51-29.67c7.16-7.78,18.67-9.89,29.53-5.66C598.14,554.84,601.42,556.38,605.04,557.95z M780.91,814.24
	c0-1.23,0-2.64,0-4.06c0-24.49-0.07-48.98,0.08-73.47c0.02-3.3-1.07-5.52-3.35-7.78c-21.04-20.9-41.98-41.89-62.96-62.85
	c-1.13-1.13-2.36-2.17-3.92-3.6c-10.31,10.41-20.39,20.55-30.4,30.77c-0.72,0.74-1.05,1.98-1.29,3.04
	c-1.04,4.56-1.98,9.15-2.85,13.23C710.87,744.19,745.79,779.11,780.91,814.24z M409.92,701.05c0,13.82-0.08,27.14,0.13,40.45
	c0.02,1.35,1.52,3.23,2.84,3.91c16.35,8.43,28.14,21.1,35.38,37.93c1.21,2.8,2.64,3.65,5.53,3.58c6.99-0.19,14.01,0.1,20.99-0.19
	c1.49-0.06,3.65-1.45,4.25-2.79c8.47-18.97,22.09-32.63,41.13-40.96c1.12-0.49,2.61-1.9,2.63-2.9c0.18-12.94,0.12-25.88,0.12-39.01
	C485.07,701.05,447.81,701.05,409.92,701.05z M823.27,182.07c0,40.12,0,79.82,0,119.37c14.07,0,27.79,0,41.38,0
	c0-39.99,0-79.57,0-119.37C850.79,182.07,837.19,182.07,823.27,182.07z M823.26,362.08c0,40.08,0,79.78,0,119.37
	c14.06,0,27.77,0,41.4,0c0-39.98,0-79.56,0-119.37C850.82,362.08,837.22,362.08,823.26,362.08z M864.5,661.73
	c0-39.84,0-79.66,0-119.55c-13.86,0-27.57,0-41.21,0c0,40.04,0,79.73,0,119.55C837.13,661.73,850.6,661.73,864.5,661.73z
	 M882.61,834.88c-21.54-21.36-43.01-42.65-64.69-64.16c0,1.46,0,3.05,0,4.64c0,21,0.48,42.01-0.21,62.99
	c-0.33,10,1.44,17.84,9.97,24.06c5.26,3.83,9.33,9.29,13.68,13.77C855.55,861.97,869.07,848.43,882.61,834.88z M681.57,635.28
	c-19.11-9.06-38.27-18.19-57.51-27.15c-1.42-0.66-4.5-0.7-4.99,0.09c-1.72,2.81-6.34,4.49-4.1,9.14
	c4.39,9.13,8.62,18.35,13.09,27.44c0.62,1.26,2.15,2.2,3.45,2.96c3.94,2.29,8.35,3.94,11.87,6.73c3.58,2.83,6.31,6.72,9.19,9.91
	C662.62,654.29,671.87,645.01,681.57,635.28z M909.82,862.33c-13.45,13.46-26.93,26.96-40.37,40.42c9.96,8.25,26.5,7.2,36.87-2.7
	C916.85,890.01,918.28,873.17,909.82,862.33z M112.69,177.37c-8.08,2.22-14.75,5.62-19.55,11.98c-3.58,4.75-3.61,10-0.16,14.8
	c4.79,6.67,11.71,9.95,19.71,12.27C112.69,203.31,112.69,190.74,112.69,177.37z M112.74,377.41c-8.87,2.44-16.4,6.15-20.94,14.23
	c-2.12,3.78-1.82,7.78,0.46,11.39c4.71,7.45,11.99,10.96,20.48,13.38C112.74,403.2,112.74,390.61,112.74,377.41z M112.7,577.34
	c-8.56,2.44-15.8,6.05-20.5,13.49c-2.28,3.62-2.48,7.64-0.34,11.39c4.57,8.01,12.04,11.73,20.83,14.05
	C112.7,603.13,112.7,590.56,112.7,577.34z M112.58,816.39c0-13.17,0-25.82,0-38.99c-7.99,2.19-14.65,5.59-19.44,11.95
	c-3.57,4.75-3.61,10-0.16,14.8C97.77,810.82,104.69,814.09,112.58,816.39z"/>
<path d="M261,279.64c5.37-0.11,9.76,2.02,13.45,5.69c11.33,11.28,22.71,22.53,33.91,33.95c7.58,7.73,7.79,18.67,0.83,26.03
	c-7.16,7.57-18.39,8.08-26.36,0.44c-11.91-11.4-23.5-23.15-34.98-34.99c-5.62-5.8-6.78-12.93-3.44-20.33
	C247.57,283.42,253.38,280,261,279.64z"/>
<path d="M684.1,298c0.17,5.57-2.24,10.04-5.99,13.83c-11.03,11.12-22.01,22.28-33.24,33.2c-8.38,8.15-19.72,8.13-27.14,0.37
	c-7.24-7.57-6.76-18.56,1.35-26.75c11.13-11.25,22.31-22.46,33.6-33.55c5.79-5.69,12.83-7.11,20.26-3.94
	C680.15,284.23,683.87,290.08,684.1,298z"/>
<path d="M205.21,480.85c7.33,0,14.66-0.09,21.98,0.02c11.01,0.17,18.99,7.85,19.13,18.25c0.14,10.62-7.88,18.59-19.15,18.69
	c-14.82,0.13-29.64,0.13-44.46,0c-11.27-0.1-19.18-8-19.06-18.72c0.12-10.41,8.05-18.06,19.08-18.22
	C190.22,480.76,197.72,480.85,205.21,480.85z"/>
<path d="M721.64,517.85c-7.33,0-14.66,0.09-21.98-0.02c-11.27-0.18-19.29-8.08-19.15-18.7c0.14-10.39,8.11-18.14,19.13-18.24
	c14.82-0.13,29.64-0.13,44.46,0c11.24,0.09,19.2,8.04,19.09,18.71c-0.11,10.46-7.99,18-19.06,18.25c-0.33,0.01-0.67,0-1,0
	C735.96,517.85,728.8,517.85,721.64,517.85z"/>
<path d="M316.35,668.67c-1.16,2.18-2.59,7.02-5.68,10.32c-10.11,10.83-20.69,21.25-31.35,31.54c-7.9,7.62-19.17,7.42-26.4,0.01
	c-7.09-7.26-7.15-18.25,0.39-26.04c10.43-10.77,21.07-21.34,31.85-31.76c5.84-5.65,12.94-6.7,20.33-3.35
	C312.49,652.59,315.9,658.39,316.35,668.67z"/>
<path d="M443.92,234.16c0.01-6.99-0.12-13.99,0.03-20.98c0.23-10.69,7.94-18.48,18.19-18.6c10.55-0.13,18.56,7.6,18.71,18.55
	c0.19,14.15,0.18,28.31,0.01,42.46c-0.14,10.9-8.22,18.79-18.65,18.67c-10.21-0.13-17.91-7.97-18.27-18.61
	c-0.01-0.33-0.01-0.67-0.01-1C443.92,247.82,443.92,240.99,443.92,234.16z"/>
<path d="M430.91,540.85c-11.78,0-22.96-0.63-34.04,0.16c-14.64,1.04-27.32-10.08-20.15-29c0.88-2.32,2.07-4.54,3.31-6.7
	c24.62-42.69,49.3-85.34,73.89-128.04c3.6-6.25,8.13-10.93,15.73-11.61c11.11-0.99,20.19,7.19,20.23,18.47
	c0.08,22.33,0.02,44.66,0.02,67c0,0.99,0,1.98,0,3.42c1.61,0.11,3.03,0.29,4.46,0.3c10.33,0.02,20.68,0.34,31-0.06
	c16.32-0.63,25.15,13.35,18.95,29.81c-0.81,2.16-2.14,4.13-3.3,6.15c-24.13,41.82-48.27,83.63-72.4,125.44
	c-0.5,0.86-1.02,1.72-1.53,2.57c-5.13,8.48-12.88,12.07-21.42,9.92c-8.58-2.16-14.66-10.12-14.7-19.69
	c-0.09-20.67-0.03-41.33-0.03-62C430.91,545.16,430.91,543.35,430.91,540.85z M423.63,503.87c8.53,0,16.01-0.12,23.49,0.03
	c12.92,0.26,20.71,8.21,20.79,21.04c0.04,5.53,0.01,11.06,0.01,16.59c0.32,0.05,0.64,0.1,0.96,0.15
	c9.44-16.39,18.89-32.79,28.71-49.83c-8.65,0-16.13,0.1-23.61-0.02c-13.2-0.22-20.99-8.15-21.06-21.29c-0.03-5.18,0-10.36,0-15.54
	c-0.34-0.04-0.67-0.08-1.01-0.12C442.64,470.93,433.37,486.99,423.63,503.87z"/>
</svg>
