<?xml version="1.0" encoding="utf-8"?>
<!-- Generator: Adobe Illustrator 24.1.2, SVG Export Plug-In . SVG Version: 6.00 Build 0)  -->
<svg version="1.1" id="Camada_1" xmlns="http://www.w3.org/2000/svg" xmlns:xlink="http://www.w3.org/1999/xlink" x="0px" y="0px"
	 viewBox="0 0 1000 1000" style="enable-background:new 0 0 1000 1000;" xml:space="preserve">
<path d="M890.4,509.9c8.1,8.1,9.6,17.7,9.6,28.1c-0.2,42.2-0.1,84.3-0.1,126.5c0,10.7-2.5,20.1-11.5,26.9c-6,4.5-13,5.7-20.3,5.7
	c-15.2,0-30.3,0-45.5,0c-2,0-3.9,0-6.5,0c0.3,9.3-1.6,17.5,6.6,25.4c36.1,34.9,71.4,70.5,106.8,106c25,25,27.7,62.6,6.7,89.6
	c-22.9,29.4-65.8,34.1-94.3,10.1c-7.5-6.3-14.3-13.5-21.4-20.3c-1.2-1.1-2.3-2.2-4.9-3c0,5.4,0.3,10.8-0.1,16.2
	c-1,14.3-11.5,24.6-25.8,25.7c-3,0.2-6,0.4-9,0.4c-211.5,0-423,0-634.5,0c-4.8,0-9.7-0.3-14.3-1.4c-12.1-3-20.1-12.3-20.4-24.6
	c-0.6-20.5-0.5-41-0.4-61.5c0-4.1-1.2-5.9-5.1-7.5c-10.4-4.3-21.5-7.8-30.7-14.1c-32.3-22.2-31.4-64.5,1.1-86.6
	c8.9-6.1,18.7-10,29.2-12.5c1.6-0.4,3.2-0.8,4.9-1.2c0-28.4,0-56.5,0-84.3c-7.9-2.8-15.8-4.9-23.2-8.3c-15.4-7-27.3-17.8-32.9-34.3
	c-7.5-22.3,1.6-46.1,22.6-59.8c9.2-6,19.1-10,29.8-12.3c2.2-0.5,4-0.8,4-3.9c-0.1-27.1-0.1-54.3-0.1-80.6
	c-10.5-4.4-21-7.5-30.2-12.8c-17.8-10.3-29.1-25.6-28.8-47c0.3-19.9,10.7-34.4,27.2-44.4c7.5-4.6,16.4-7.1,24.7-10.4
	c2.1-0.9,4.5-1.2,6.8-1.9c0-28.2,0-56.1,0-84c-8.8-3.3-17.8-5.8-26-10.1c-19.9-10.4-33.1-26.1-32.6-49.7c0.4-19.8,11-34.4,27.5-44.2
	c8.3-4.9,17.9-7.7,27.2-10.8c3.6-1.2,4.6-2.5,4.6-6.1c0-19.2-0.2-38.3,0.5-57.5c0.5-14.2,11.4-24.6,25.7-25.8c2.5-0.2,5-0.4,7.5-0.4
	c212.5,0,425,0,637.5,0c11,0,20.9,2,27.9,11.4c4.8,6.3,5.8,13.6,5.8,21.3c0,18.2,0,36.3,0,54.5c0,2,0,4,0,6.9c2.2,0,4.1,0,6,0
	c17.5,0.1,35-0.2,52.5,0.6c13.7,0.6,23.9,11.5,25.1,25.3c0.2,2.6,0.3,5.3,0.3,8c0,41.8-0.1,83.7,0.1,125.5
	c0.1,10.4-1.6,19.9-9.7,27.7c9.4,8.5,9.8,19.7,9.8,31c0,29.3-0.1,58.7-0.2,88c0,10.7,0.1,21.3,0.2,32
	C900.1,491.5,898.9,501.7,890.4,509.9z M584.4,642c-7.3,5-13.8,9.8-20.5,14c-4.4,2.8-6.2,6.2-6.1,11.5c0.2,33.3,0.1,66.7,0.1,100
	c0,1.9,0,3.8,0,6.4c-14.9-3-27.7-0.2-38,10.2c-10.3,10.3-13.1,23-10.4,37.2c-32,0-63.4,0-94.9,0c0.2-34.6-8-43.9-43.7-49.1
	c0-1.9,0-3.8,0-5.8c0-29.7-0.5-59.3,0.3-89c0.2-9.7-3.1-14.8-11.2-19.7c-29.9-18.2-53.6-42.7-70.3-73.5
	c-17.3-31.9-23.4-66.2-21.4-102.2c2.5-44.9,17.4-84.7,48.7-117.3c49.5-51.6,109.6-73.4,180.7-60.5c35.2,6.4,66,22.5,92.3,46.9
	c21.2,19.7,38.1,42.7,49.4,69.5c17.2,40.8,17.8,82.5,6.5,124.8c-2.4,9.1-5.6,18-8.4,27.2c1.5,0.8,3,1.5,4.5,2.2
	c17.4,8.3,35.1,16.2,52.2,25.1c7.7,4,15.2,9.2,21.4,15.2c19.7,19,38.7,38.6,58.1,57.9c1.3,1.3,2.8,2.5,4.6,4.2
	c0-197.4,0-393.8,0-590.3c-210.2,0-420,0-630.1,0c0,16.5-0.1,32.7,0.2,48.8c0,1.7,2.6,4.3,4.5,4.9c20.6,6.4,34.9,20.2,45.9,38
	c5.7,9.2,3.6,19.9-4.7,25.7c-8.2,5.7-18.5,3.9-25.3-4.5c-2.6-3.2-4.8-6.9-7.6-9.9c-3.7-4.1-7.8-7.7-11.8-11.5
	c-1.3,2.4-1.4,4-1.4,5.6c0,49.7,0,99.3-0.1,149c0,4.8,1.5,7.1,6.2,8.5c20.9,6.1,35,20.6,45.6,38.8c3.8,6.6,3.5,13.5-1.2,19.7
	c-7.2,9.7-20.3,10.2-28.6,1c-3.8-4.2-6.8-9-10.4-13.5c-2.9-3.6-6.1-6.8-10.8-8c-0.2,0.9-0.4,1.2-0.4,1.6c0,51.8,0,103.7-0.1,155.5
	c0,2.9,1.6,3.3,3.7,4.3c8,3.6,16.3,6.8,23.6,11.6c10.3,6.8,17.9,16.4,23.8,27.2c5,9.1,2.7,19.1-5,24.5c-7.9,5.6-17.4,4.3-24.7-3.6
	c-2.4-2.6-4.1-5.7-6.4-8.3c-4.4-4.8-9-9.4-14.5-15c-0.4,3-0.7,4.3-0.7,5.6c0,50.7,0,101.3-0.1,152c0,3.4,1.1,5.1,4.5,6
	c21,5.7,35.4,19.8,46.4,37.8c5.6,9.2,3.6,19.6-4.4,25.4c-8.1,5.9-18.1,4.4-25.3-4.1c-3.3-3.9-6-8.4-9.5-12.2c-3-3.3-6.7-5.9-11-9.7
	c0,45.1,0,88.3,0,131.5c210.2,0,419.9,0,630.1,0c0-11.7-0.2-23.2,0.1-34.6c0.2-6.2-2-10.6-6.4-14.9
	C722.1,809.7,672,759.4,621.8,709.2c-1.6-1.6-3.6-3.2-4.7-5.1c-6.4-10.9-12.8-21.7-18.6-32.9C593.5,661.8,589.2,652,584.4,642z
	 M408.1,661.2c38.1,0,75.3,0,112.8,0c0-6.1,0.3-11.8-0.1-17.4c-0.3-4.7,1.3-7.4,5.6-9.3c14-6.4,26.4-15.4,38.5-24.9
	c2.4-1.9,3-3.3,1.5-6.2c-3.1-6.2-6.2-12.6-8.6-19.1c-2.9-7.7-2.5-15.3,2-22.5c6.8-10.7,18.3-14.8,30.9-10.7c4.1,1.3,8,3.1,12,4.6
	c0.4-0.7,0.7-1,0.9-1.5c15.5-36.9,16.9-74.3,3.9-112.1c-12.5-36.4-36.1-63.8-69.2-83.5c-54.4-32.3-127.8-27.3-175.9,13.5
	c-43.2,36.6-63.7,83.5-56.8,140.4c4.6,37.7,21,70.2,49.4,96.1c14.2,12.9,30.5,22.5,48.2,29.8c3.9,1.6,5.2,3.7,4.9,7.8
	C407.8,651.1,408.1,656.1,408.1,661.2z M880.5,832C823.4,774.8,766,717.5,708.9,660.4c-13.8,13.7-27.9,27.7-41.5,41.2
	c57.4,57.3,114.8,114.7,171.6,171.5C852.8,859.5,866.8,845.6,880.5,832z M408.2,699.6c0,13.4-0.1,26.5,0.1,39.7
	c0,1.6,1.8,3.7,3.3,4.5c15.8,8.6,27.2,21.2,34.8,37.4c0.8,1.8,3.7,3.5,5.7,3.6c6.3,0.5,12.7,0.5,19,0c2.3-0.2,5.5-2.2,6.5-4.2
	c8.6-17.6,21.5-30.7,39.3-38.8c2.8-1.3,3.9-3.1,3.8-6.2c-0.1-6.3,0.1-12.7,0.1-19c0-5.6,0-11.2,0-16.9
	C482.9,699.6,445.6,699.6,408.2,699.6z M821.7,180.5c0,39.9,0,79.3,0,118.6c13.8,0,27.2,0,40.5,0c0-39.7,0-79.1,0-118.6
	C848.5,180.5,835.2,180.5,821.7,180.5z M862.2,479.3c0-39.8,0-79.2,0-118.7c-13.7,0-27.1,0-40.6,0c0,39.7,0,79.1,0,118.7
	C835.2,479.3,848.5,479.3,862.2,479.3z M862.1,540.6c-13.6,0-27,0-40.6,0c0,39.7,0,79.1,0,118.7c13.6,0,27,0,40.6,0
	C862.1,619.6,862.1,580.2,862.1,540.6z M600.2,593c13.7,28.4,26.8,55.9,39.6,82.5c14.4-14.4,28.6-28.7,42.8-42.9
	C655.9,619.8,628.6,606.7,600.2,593z M908.4,861.8c-13.2,13.2-26.5,26.5-39.8,39.7c10.5,7.6,26.1,6.1,35.9-3.8
	C914.7,887.6,916.1,872.2,908.4,861.8z M110.4,175.8c-7.7,1.9-13.9,5.3-18.6,11c-4.1,5-4.5,10.1-0.9,15.1
	c4.7,6.7,11.4,10.3,19.5,12.3C110.4,201.3,110.4,188.9,110.4,175.8z M110.2,776c-7.9,1.6-14.2,5.4-18.9,11.5
	c-3.9,5.1-3.7,10.5,0.4,15.6c4.7,5.9,11.1,9.3,18.6,11.2C110.2,801.3,110.2,788.8,110.2,776z M110.3,375.8
	c-8.4,2.4-15.8,5.7-19.9,13.4c-1.4,2.7-2.1,7.1-0.9,9.8c3.8,8.8,11.6,12.9,20.8,15.2C110.3,401.2,110.3,388.7,110.3,375.8z
	 M110.3,575.9c-9,2.2-16.5,6.4-20.6,14.5c-1.3,2.6-1.1,7.1,0.2,9.8c4.1,8,11.5,11.8,20.3,13.9C110.3,601.1,110.3,588.7,110.3,575.9z
	"/>
<path d="M261.8,277.8c2,1,6.3,2,9.1,4.7c12.4,11.8,24.8,23.7,36.3,36.4c10,11,4.2,27.2-10.2,30.1c-5.6,1.2-10.8-0.2-14.8-4.1
	c-12.6-12.3-25.2-24.7-37.4-37.4c-5.3-5.5-5.5-12.3-2.3-19C245.9,281.3,251.9,278.1,261.8,277.8z"/>
<path d="M682.1,298.8c-0.9,1.9-1.8,6.3-4.5,9.1c-11.9,12.5-23.9,25-36.7,36.6c-11,9.9-27.6,3.7-30-10.5c-1-5.8,0.7-11.1,4.6-15.2
	c12.1-12.4,24.2-24.7,36.6-36.7c5.4-5.2,12.1-5.7,19-2.5C678.5,282.9,681.7,288.8,682.1,298.8z"/>
<path d="M202.8,515.6c-8.2,0-16.3,0.4-24.5-0.1c-9.8-0.6-16.5-8.2-16.7-17.8c-0.2-9.4,6.6-17.9,16.3-18.2c16.6-0.6,33.3-0.6,49.9,0
	c10,0.4,16.7,8.8,16.5,18.5c-0.2,9.5-7.1,16.6-17,17.6c-1.2,0.1-2.3,0.3-3.5,0.3c-7,0-14,0-21,0
	C202.8,515.9,202.8,515.8,202.8,515.6z"/>
<path d="M719.7,515.7c-8.2,0-16.3,0.5-24.5-0.1c-10.1-0.7-16.9-8.5-16.8-18.3c0.1-9.6,6.9-17.5,16.8-17.8c16.5-0.5,33-0.5,49.4,0
	c9.7,0.3,16.5,8.5,16.5,18c0,9.3-6.6,16.8-16,18.1c-1,0.1-2,0.3-3,0.3c-7.5,0-15,0-22.5,0C719.7,515.8,719.7,515.7,719.7,515.7z"/>
<path d="M266.6,714.3c-16.1,0-25.1-14.7-18.7-26.7c1.2-2.3,3-4.4,4.8-6.3c9.7-9.8,19.6-19.5,29.4-29.3c5.5-5.5,11.8-7.9,19.5-5.1
	c8.1,3,12.5,9.4,12.3,17.6c-0.1,4.2-2.4,9.2-5.3,12.4c-10.1,11-20.7,21.7-31.6,31.9C273.6,711.8,268.7,713.2,266.6,714.3z"/>
<path d="M478.7,232.5c0,6.8,0.1,13.7,0,20.5c-0.2,11.5-7.4,19.2-17.8,19.4c-10.2,0.2-18.2-7-18.6-18.1c-0.5-14.5-0.5-29,0-43.5
	c0.4-11.2,8.5-18.6,18.5-18.2c10.9,0.4,17.8,8,18,19.8C478.7,219.2,478.7,225.8,478.7,232.5z"/>
<path d="M487.9,453c8.4,0,16,0,23.6,0c5.2,0,10.3,0,15.5,0.4c10.5,0.8,17.9,9,17.1,19.5c-0.4,4.7-1.6,9.7-3.9,13.7
	c-24.5,42.9-49.3,85.7-74,128.5c-5.7,9.9-12.9,13.7-21.5,11.8c-8.8-1.9-15.1-8.6-15.4-17.9c-0.5-16.8-0.3-33.7-0.4-50.5
	c0-6.3,0-12.6,0-19.4c-11.3,0-22.1-0.3-32.8,0.1c-12.9,0.4-22.3-5.6-23-16.9c-0.4-5.5,1.2-11.8,3.9-16.6
	c24.8-43.7,50.1-87.2,75.2-130.7c4.4-7.6,10.7-12.5,20-11c10.3,1.6,15.6,8.7,15.7,20.4c0.1,20.5,0,41,0,61.5
	C487.9,448,487.9,449.9,487.9,453z M495.5,490c-3,0-4.8,0-6.6,0c-6.3-0.1-12.7,0.1-19-0.3c-11.6-0.9-17.9-7.2-18.7-18.7
	c-0.4-5.7-0.1-11.4-0.1-17c-0.5-0.1-1.1-0.2-1.6-0.2c-9.1,15.8-18.3,31.7-27.9,48.3c7.6,0,14.1-0.1,20.6,0
	c16.6,0.2,23.5,7.3,23.7,23.9c0,4.4,0,8.7,0,13.1c0.4,0.1,0.9,0.1,1.3,0.2C476.4,523.2,485.7,507.1,495.5,490z"/>
</svg>
