<svg width="21" height="21" viewBox="0 0 21 21" fill="none" xmlns="http://www.w3.org/2000/svg">
<path d="M9.43319 20.4889C8.52641 20.4889 7.46727 20.4839 6.42205 20.4242C4.8928 20.4586 3.41164 19.8884 2.30015 18.8375C1.24904 17.7264 0.678836 16.2455 0.713485 14.7164C0.648774 13.5344 0.648773 12.3393 0.648773 11.1835C0.648773 11.0087 0.648773 10.834 0.648773 10.6592C0.648773 10.4844 0.648773 10.3097 0.648773 10.135C0.648773 8.97918 0.648774 7.78406 0.713485 6.60286C0.679082 5.07354 1.2492 3.59245 2.30015 2.48097C3.41164 1.43002 4.8928 0.859898 6.42205 0.894302C7.47054 0.834505 8.52641 0.82959 9.43319 0.82959H11.5244C12.4312 0.82959 13.4904 0.834505 14.5364 0.894302C16.0655 0.859653 17.5464 1.42985 18.6575 2.48097C19.7084 3.59245 20.2786 5.07354 20.2442 6.60286C20.308 7.78406 20.308 8.97918 20.308 10.1358C20.308 10.3105 20.308 10.4852 20.308 10.66C20.308 10.8348 20.308 11.0092 20.308 11.1835C20.308 12.3393 20.308 13.5344 20.2433 14.7172C20.278 16.2463 19.7078 17.7272 18.6567 18.8383C17.5456 19.8894 16.0647 20.4596 14.5356 20.425C13.4863 20.4848 12.4304 20.4897 11.5236 20.4897L9.43319 20.4889Z" fill="white"/>
<path d="M15.0705 6.39046C15.2643 6.51989 15.492 6.58894 15.725 6.58894L15.7258 6.58976C16.0381 6.58935 16.3375 6.465 16.5583 6.244C16.7789 6.023 16.9029 5.72336 16.9029 5.41102C16.9029 5.17806 16.8338 4.95034 16.7044 4.75661C16.575 4.56297 16.391 4.41192 16.1757 4.3228C15.9605 4.23368 15.7236 4.21033 15.4952 4.25579C15.2667 4.30126 15.0568 4.41339 14.8921 4.57812C14.7273 4.74285 14.6152 4.9528 14.5697 5.18125C14.5243 5.40979 14.5476 5.6466 14.6367 5.86179C14.7259 6.07706 14.8769 6.26104 15.0705 6.39046Z" fill="#00646A"/>
<path fill-rule="evenodd" clip-rule="evenodd" d="M10.4787 15.7017C9.48137 15.7015 8.50651 15.4057 7.67738 14.8514C6.84825 14.2973 6.20204 13.5097 5.82056 12.5882C5.43901 11.6668 5.33924 10.653 5.53387 9.67482C5.72858 8.69669 6.20892 7.79826 6.91411 7.09315C7.61939 6.38795 8.5179 5.90777 9.49603 5.71331C10.4742 5.51877 11.4881 5.6187 12.4095 6.00042C13.3308 6.38205 14.1183 7.02843 14.6723 7.85765C15.2264 8.68686 15.5221 9.66179 15.5221 10.6591C15.5209 11.9963 14.9891 13.2784 14.0435 14.2239C13.0979 15.1694 11.8159 15.7004 10.4787 15.7017ZM10.4787 7.38296C9.83065 7.38296 9.19713 7.57513 8.6583 7.93514C8.11947 8.29515 7.6995 8.80694 7.45155 9.40565C7.20351 10.0044 7.13864 10.6631 7.26503 11.2988C7.39151 11.9343 7.70351 12.5181 8.16182 12.9763C8.62005 13.4346 9.20384 13.7467 9.83941 13.8731C10.475 13.9995 11.1338 13.9347 11.7325 13.6866C12.3312 13.4387 12.8429 13.0187 13.203 12.4799C13.563 11.941 13.7552 11.3075 13.7552 10.6595C13.7552 9.79048 13.41 8.95709 12.7955 8.34266C12.1811 7.72814 11.3477 7.38296 10.4787 7.38296Z" fill="#00646A"/>
</svg>
