<?xml version="1.0" encoding="utf-8"?>
<!-- Generator: Adobe Illustrator 24.1.2, SVG Export Plug-In . SVG Version: 6.00 Build 0)  -->
<svg version="1.1" id="Camada_1" xmlns="http://www.w3.org/2000/svg" xmlns:xlink="http://www.w3.org/1999/xlink" x="0px" y="0px"
	 viewBox="0 0 300 100" style="enable-background:new 0 0 300 100;" xml:space="preserve">
<style type="text/css">
	.st0{fill:#914547;}
	.st1{fill:#914647;}
</style>
<g>
	<path class="st0" d="M146.5,37.8c0.1-7.2,2.4-13.4,7.8-18.4c2.5-2.4,5.4-3.1,8.8-2.7c1.2,0.2,2,0.9,2.8,1.8
		c2.7,3.3,0.7,11.5-3,12.6c-0.5,0.1-0.9,0.6-1.4,0.2c-0.5-0.5-0.2-1,0.1-1.5c1.4-2,2.3-4.1,2.8-6.5c0.4-1.8-0.1-3.4-1.4-4.4
		c-1.3-1-3-0.7-4.5-0.1c-2,0.8-3.3,2.4-4.4,4.2c-3.7,6.2-5.3,12.9-3.6,20.1c1,4,3,5.5,7.1,5.5c2.2,0,3.6-1.2,4.7-3
		c0.9-1.5,1.4-3.2,1.8-4.9c0.3-1.3-0.2-2-1.5-2.2c-1.4-0.2-2.8-0.7-4.1-1.2c-0.6-0.2-1.5-0.4-1.2-1.4c0.2-0.9,1.1-0.5,1.6-0.4
		c2.7,0.5,5.4,0.5,8.2,0c0.8-0.1,1.9-0.7,2.2,0.5c0.3,1.1-0.2,2.2-1.1,2.6c-1.5,0.6-1.6,1.8-1.9,3.1c-1.1,4.9-5,9.5-10.7,9
		c-2.8-0.3-4.9-1.6-6.5-3.8C147.2,44.5,146.5,41.7,146.5,37.8z"/>
	<path class="st0" d="M133,51.5c-0.6,0-1.2,0.1-1.4-0.5c-0.2-0.8,0.2-1.4,0.9-1.9c1.1-0.7,2.3-0.5,3.5-0.7c1.4-0.2,1.8-0.8,1.9-2.2
		c0.5-8,0.8-16.1,1.8-24c0.1-0.6,0.2-1.2,0.7-1.7c0.4-0.4,0.9-0.8,1.5-0.6c0.7,0.3,0.8,0.9,0.7,1.6c-0.3,2.2-0.6,4.3-0.9,6.5
		c-0.8,5.9-1.2,11.8-1.7,17.7c-0.2,1.8,0.2,2.8,2.2,2.5c1-0.1,2.6,0,2.6,0.8c0,1.2-1.6,0.8-2.4,0.9C139.2,50.1,136,50.6,133,51.5z"
		/>
	<path class="st1" d="M130.9,17c0.3-1,0.8-2,1.9-2.5c0.9-0.4,1.8-0.8,1.8,0.9c0,1,0.8,1.3,1.6,1.5c1.8,0.3,3.6,0.2,5.4-0.3
		c1.7-0.4,3.5-0.5,5.2-0.3c1.3,0.1,2.2,0.9,1.8,2.2c-0.2,0.8-0.4,2.3-2,0.8c-1.2-1.1-3-0.5-4.5-0.3c-2,0.3-4,0.7-6.1,1
		c-1.3,0.2-2.6-0.1-3.8-0.7C131.3,18.9,130.7,18.2,130.9,17z"/>
</g>
<g>
	<path d="M58.4,70.8V71H55v-0.2h0.3c0.3,0,0.6-0.1,0.7-0.3c0.1-0.1,0.1-0.4,0.1-0.9v-5.1c0-0.4,0-0.7-0.1-0.8c0-0.1-0.1-0.2-0.2-0.3
		c-0.2-0.1-0.4-0.1-0.5-0.1H55v-0.2h3.4v0.2h-0.3c-0.3,0-0.6,0.1-0.7,0.3c-0.1,0.1-0.1,0.4-0.1,0.9v5.1c0,0.4,0,0.7,0.1,0.8
		c0,0.1,0.1,0.2,0.2,0.3c0.2,0.1,0.3,0.1,0.5,0.1H58.4z"/>
	<path d="M74.7,63.1v0.2c-0.3,0.1-0.5,0.1-0.6,0.3c-0.2,0.2-0.4,0.5-0.6,0.9l-2.8,6.8h-0.2l-3-6.8c-0.2-0.4-0.3-0.6-0.3-0.6
		c-0.1-0.1-0.2-0.2-0.4-0.3s-0.3-0.1-0.6-0.1v-0.2h3.2v0.2c-0.4,0-0.6,0.1-0.7,0.2s-0.2,0.2-0.2,0.3c0,0.2,0.1,0.5,0.3,0.9l2,4.7
		l1.9-4.6c0.2-0.5,0.3-0.8,0.3-0.9c0-0.1-0.1-0.2-0.2-0.3s-0.3-0.2-0.6-0.2c0,0-0.1,0-0.1,0v-0.2H74.7z"/>
	<path d="M86.3,68.4h-3.1l-0.5,1.3c-0.1,0.3-0.2,0.5-0.2,0.7c0,0.1,0.1,0.2,0.2,0.3s0.4,0.2,0.7,0.2V71h-2.5v-0.2
		c0.3-0.1,0.5-0.1,0.6-0.2c0.2-0.2,0.4-0.6,0.7-1.1l2.8-6.5h0.2l2.8,6.6c0.2,0.5,0.4,0.9,0.6,1s0.4,0.2,0.8,0.3V71h-3.1v-0.2
		c0.3,0,0.5-0.1,0.6-0.2s0.2-0.2,0.2-0.3c0-0.2-0.1-0.4-0.2-0.8L86.3,68.4z M86.2,67.9l-1.3-3.2l-1.4,3.2H86.2z"/>
	<path d="M96.9,63.1H99l4.9,6v-4.6c0-0.5-0.1-0.8-0.2-0.9c-0.1-0.2-0.4-0.2-0.7-0.2h-0.3v-0.2h2.8v0.2h-0.3c-0.3,0-0.6,0.1-0.7,0.3
		c-0.1,0.1-0.1,0.4-0.1,0.9v6.7h-0.2l-5.2-6.4v4.9c0,0.5,0.1,0.8,0.2,0.9c0.1,0.2,0.4,0.2,0.7,0.2h0.3V71h-2.8v-0.2h0.3
		c0.3,0,0.6-0.1,0.7-0.3c0.1-0.1,0.1-0.4,0.1-0.9v-5.5c-0.2-0.3-0.4-0.4-0.5-0.5s-0.3-0.2-0.5-0.2c-0.1,0-0.3-0.1-0.5-0.1V63.1z"/>
	<path d="M131.1,62.9l0.2,2.5h-0.2c-0.2-0.6-0.5-1.1-0.8-1.4c-0.5-0.5-1.1-0.7-1.8-0.7c-1,0-1.8,0.4-2.3,1.2
		c-0.4,0.7-0.7,1.5-0.7,2.4c0,0.8,0.1,1.4,0.4,2.1s0.7,1.1,1.2,1.4s1,0.4,1.5,0.4c0.3,0,0.6,0,0.8-0.1s0.5-0.2,0.8-0.3v-2.3
		c0-0.4,0-0.7-0.1-0.8s-0.2-0.2-0.3-0.3s-0.4-0.1-0.7-0.1v-0.2h3.1v0.2h-0.1c-0.3,0-0.5,0.1-0.6,0.3c-0.1,0.1-0.1,0.4-0.1,0.9v2.4
		c-0.4,0.2-0.9,0.4-1.3,0.5s-0.9,0.2-1.5,0.2c-1.5,0-2.7-0.5-3.5-1.5c-0.6-0.7-0.9-1.6-0.9-2.6c0-0.7,0.2-1.4,0.5-2
		c0.4-0.8,0.9-1.3,1.6-1.8c0.6-0.3,1.3-0.5,2.1-0.5c0.3,0,0.6,0,0.8,0.1s0.6,0.2,1,0.3c0.2,0.1,0.4,0.1,0.4,0.1s0.1,0,0.2-0.1
		s0.1-0.2,0.1-0.4H131.1z"/>
	<path d="M142.4,63.5v3.1h1.7c0.5,0,0.8-0.1,0.9-0.2c0.2-0.2,0.3-0.5,0.3-0.9h0.2v2.8h-0.2c-0.1-0.4-0.1-0.6-0.2-0.7
		c-0.1-0.1-0.2-0.2-0.3-0.3s-0.4-0.1-0.7-0.1h-1.7v2.6c0,0.4,0,0.6,0,0.6s0.1,0.1,0.2,0.2s0.2,0.1,0.4,0.1h1.3c0.4,0,0.8,0,1-0.1
		s0.4-0.2,0.6-0.4c0.2-0.2,0.5-0.6,0.7-1.1h0.2l-0.7,2h-6.1v-0.2h0.3c0.2,0,0.4,0,0.5-0.1c0.1-0.1,0.2-0.2,0.3-0.3s0.1-0.4,0.1-0.8
		v-5.2c0-0.5-0.1-0.8-0.2-0.9c-0.1-0.2-0.4-0.2-0.7-0.2h-0.3v-0.2h6.1l0.1,1.7h-0.2c-0.1-0.4-0.2-0.7-0.3-0.9s-0.2-0.3-0.4-0.4
		c-0.2-0.1-0.4-0.1-0.8-0.1H142.4z"/>
	<path d="M162.8,71h-2.1l-2.7-3.7c-0.2,0-0.4,0-0.5,0c-0.1,0-0.1,0-0.2,0s-0.1,0-0.2,0v2.3c0,0.5,0.1,0.8,0.2,0.9
		c0.1,0.2,0.4,0.3,0.7,0.3h0.3V71h-3.4v-0.2h0.3c0.3,0,0.6-0.1,0.7-0.3c0.1-0.1,0.1-0.4,0.1-0.9v-5.1c0-0.5-0.1-0.8-0.2-0.9
		c-0.2-0.2-0.4-0.3-0.7-0.3h-0.3v-0.2h2.9c0.8,0,1.5,0.1,1.9,0.2s0.7,0.3,1,0.7s0.4,0.7,0.4,1.2c0,0.5-0.2,0.9-0.5,1.3
		s-0.8,0.6-1.5,0.8l1.6,2.3c0.4,0.5,0.7,0.9,1,1s0.6,0.3,1.1,0.3V71z M157.2,67c0.1,0,0.1,0,0.2,0s0.1,0,0.1,0
		c0.8,0,1.3-0.2,1.7-0.5s0.6-0.7,0.6-1.3c0-0.5-0.2-0.9-0.5-1.2s-0.7-0.5-1.2-0.5c-0.2,0-0.5,0-0.9,0.1V67z"/>
	<path d="M172.7,66.8h3.7v-2.3c0-0.4,0-0.7-0.1-0.8c0-0.1-0.1-0.2-0.2-0.3c-0.2-0.1-0.3-0.1-0.5-0.1h-0.3v-0.2h3.4v0.2h-0.3
		c-0.2,0-0.4,0-0.5,0.1c-0.1,0.1-0.2,0.2-0.3,0.3s-0.1,0.4-0.1,0.8v5.1c0,0.4,0,0.7,0.1,0.8c0,0.1,0.1,0.2,0.2,0.3
		c0.2,0.1,0.4,0.1,0.5,0.1h0.3V71h-3.4v-0.2h0.3c0.3,0,0.6-0.1,0.7-0.3c0.1-0.1,0.1-0.4,0.1-0.9v-2.4h-3.7v2.4c0,0.4,0,0.7,0.1,0.8
		c0,0.1,0.1,0.2,0.2,0.3c0.2,0.1,0.3,0.1,0.5,0.1h0.3V71h-3.4v-0.2h0.3c0.3,0,0.6-0.1,0.7-0.3c0.1-0.1,0.1-0.4,0.1-0.9v-5.1
		c0-0.4,0-0.7-0.1-0.8c0-0.1-0.1-0.2-0.2-0.3c-0.2-0.1-0.4-0.1-0.5-0.1h-0.3v-0.2h3.4v0.2h-0.3c-0.2,0-0.4,0-0.5,0.1
		c-0.1,0.1-0.2,0.2-0.3,0.3s-0.1,0.4-0.1,0.8V66.8z"/>
	<path d="M191.9,68.4h-3.1l-0.5,1.3c-0.1,0.3-0.2,0.5-0.2,0.7c0,0.1,0.1,0.2,0.2,0.3s0.4,0.2,0.7,0.2V71h-2.5v-0.2
		c0.3-0.1,0.5-0.1,0.6-0.2c0.2-0.2,0.4-0.6,0.7-1.1l2.8-6.5h0.2l2.8,6.6c0.2,0.5,0.4,0.9,0.6,1s0.4,0.2,0.8,0.3V71h-3.1v-0.2
		c0.3,0,0.5-0.1,0.6-0.2s0.2-0.2,0.2-0.3c0-0.2-0.1-0.4-0.2-0.8L191.9,68.4z M191.7,67.9l-1.3-3.2l-1.4,3.2H191.7z"/>
	<path d="M210.7,71h-2.1l-2.7-3.7c-0.2,0-0.4,0-0.5,0c-0.1,0-0.1,0-0.2,0s-0.1,0-0.2,0v2.3c0,0.5,0.1,0.8,0.2,0.9
		c0.1,0.2,0.4,0.3,0.7,0.3h0.3V71h-3.4v-0.2h0.3c0.3,0,0.6-0.1,0.7-0.3c0.1-0.1,0.1-0.4,0.1-0.9v-5.1c0-0.5-0.1-0.8-0.2-0.9
		c-0.2-0.2-0.4-0.3-0.7-0.3h-0.3v-0.2h2.9c0.8,0,1.5,0.1,1.9,0.2s0.7,0.3,1,0.7s0.4,0.7,0.4,1.2c0,0.5-0.2,0.9-0.5,1.3
		s-0.8,0.6-1.5,0.8l1.6,2.3c0.4,0.5,0.7,0.9,1,1s0.6,0.3,1.1,0.3V71z M205.1,67c0.1,0,0.1,0,0.2,0s0.1,0,0.1,0
		c0.8,0,1.3-0.2,1.7-0.5s0.6-0.7,0.6-1.3c0-0.5-0.2-0.9-0.5-1.2s-0.7-0.5-1.2-0.5c-0.2,0-0.5,0-0.9,0.1V67z"/>
	<path d="M218.3,71v-0.2h0.3c0.3,0,0.6-0.1,0.7-0.3c0.1-0.1,0.1-0.4,0.1-0.9v-5.1c0-0.5-0.1-0.8-0.2-0.9c-0.2-0.2-0.4-0.3-0.7-0.3
		h-0.3v-0.2h3.2c1.2,0,2.1,0.1,2.7,0.4s1.1,0.7,1.5,1.3s0.6,1.4,0.6,2.2c0,1.1-0.3,2-1,2.8c-0.8,0.8-1.9,1.2-3.4,1.2H218.3z
		 M220.6,70.5c0.5,0.1,0.9,0.2,1.2,0.2c0.9,0,1.7-0.3,2.3-1s0.9-1.5,0.9-2.6c0-1.1-0.3-2-0.9-2.6s-1.4-0.9-2.3-0.9
		c-0.4,0-0.8,0.1-1.2,0.2V70.5z"/>
	<path d="M241.2,63.1l0.1,1.9h-0.2c0-0.3-0.1-0.6-0.2-0.7c-0.1-0.2-0.3-0.4-0.5-0.5s-0.5-0.2-0.8-0.2h-1.1v6.1
		c0,0.5,0.1,0.8,0.2,0.9c0.1,0.2,0.4,0.2,0.7,0.2h0.3V71h-3.4v-0.2h0.3c0.3,0,0.6-0.1,0.7-0.3c0.1-0.1,0.1-0.4,0.1-0.9v-6.1h-1
		c-0.4,0-0.6,0-0.8,0.1c-0.2,0.1-0.4,0.2-0.5,0.4s-0.2,0.5-0.3,0.9h-0.2l0.1-1.9H241.2z"/>
</g>
<g>
	<path d="M119.6,85.3c-0.1,0-0.3,0-0.4-0.1s-0.1-0.2-0.1-0.4v-7.6c0-0.2,0-0.3,0.1-0.4c0.1-0.1,0.2-0.1,0.4-0.1h5
		c0.1,0,0.3,0,0.4,0.1s0.1,0.2,0.1,0.4c0,0.1,0,0.2-0.1,0.3s-0.2,0.1-0.4,0.1h-4.5v2.8h3.3c0.2,0,0.3,0,0.4,0.1
		c0.1,0.1,0.1,0.2,0.1,0.3c0,0.1,0,0.3-0.1,0.3s-0.2,0.1-0.4,0.1h-3.3v2.9h4.5c0.1,0,0.3,0,0.4,0.1s0.1,0.2,0.1,0.3
		c0,0.1,0,0.3-0.1,0.4s-0.2,0.1-0.4,0.1H119.6z"/>
	<path d="M127.1,85.3c-0.1,0-0.3,0-0.4-0.1s-0.1-0.2-0.1-0.4v-5c0-0.2,0-0.3,0.1-0.4c0.1-0.1,0.2-0.1,0.4-0.1c0.2,0,0.3,0,0.4,0.1
		c0.1,0.1,0.1,0.2,0.1,0.4v5c0,0.1,0,0.3-0.1,0.4C127.4,85.3,127.3,85.3,127.1,85.3z M131.7,85.3c-0.1,0-0.3,0-0.4-0.1
		c-0.1-0.1-0.1-0.2-0.1-0.4V82c0-0.4-0.1-0.8-0.2-1.1c-0.2-0.3-0.4-0.5-0.6-0.6c-0.3-0.1-0.6-0.2-0.9-0.2c-0.3,0-0.6,0.1-0.9,0.2
		c-0.3,0.1-0.5,0.3-0.6,0.5s-0.2,0.5-0.2,0.8H127c0-0.5,0.1-0.9,0.4-1.2c0.2-0.4,0.5-0.6,0.9-0.9c0.4-0.2,0.8-0.3,1.3-0.3
		c0.5,0,1,0.1,1.4,0.3c0.4,0.2,0.7,0.5,1,1c0.2,0.4,0.4,0.9,0.4,1.5v2.8c0,0.1,0,0.3-0.1,0.4C132,85.3,131.9,85.3,131.7,85.3z"/>
	<path d="M136.7,85.3c-0.6,0-1.1-0.1-1.5-0.4c-0.4-0.3-0.8-0.6-1-1.1c-0.2-0.5-0.4-1-0.4-1.6c0-0.6,0.1-1.1,0.4-1.6
		c0.3-0.5,0.6-0.8,1.1-1.1c0.5-0.3,1-0.4,1.6-0.4c0.6,0,1.1,0.1,1.6,0.4c0.5,0.3,0.8,0.6,1.1,1.1c0.3,0.5,0.4,1,0.4,1.6l-0.6,0.1
		c0,0.6-0.1,1.1-0.3,1.5c-0.2,0.4-0.5,0.8-0.9,1S137.2,85.3,136.7,85.3z M136.8,87.8c-0.5,0-1-0.1-1.5-0.3s-0.8-0.5-1.1-0.9
		c-0.1-0.1-0.1-0.2-0.1-0.3c0-0.1,0.1-0.2,0.2-0.3c0.1-0.1,0.2-0.1,0.4-0.1s0.2,0.1,0.3,0.2c0.2,0.3,0.5,0.5,0.8,0.6
		c0.3,0.1,0.7,0.2,1.1,0.2c0.4,0,0.7-0.1,1-0.3c0.3-0.2,0.6-0.4,0.7-0.8c0.2-0.3,0.3-0.7,0.3-1.2V83l0.3-0.8l0.6,0.2v2.3
		c0,0.6-0.1,1.1-0.4,1.6c-0.3,0.5-0.6,0.8-1.1,1.1C137.9,87.6,137.4,87.8,136.8,87.8z M136.8,84.4c0.4,0,0.8-0.1,1.1-0.3
		c0.3-0.2,0.5-0.4,0.7-0.8c0.2-0.3,0.3-0.7,0.3-1.1s-0.1-0.8-0.3-1.1c-0.2-0.3-0.4-0.6-0.7-0.8c-0.3-0.2-0.7-0.3-1.1-0.3
		c-0.4,0-0.7,0.1-1.1,0.3c-0.3,0.2-0.6,0.4-0.7,0.8c-0.2,0.3-0.3,0.7-0.3,1.1s0.1,0.8,0.3,1.1c0.2,0.3,0.4,0.6,0.7,0.8
		C136.1,84.4,136.4,84.4,136.8,84.4z"/>
	<path d="M144.3,85.3c-0.6,0-1.1-0.1-1.6-0.4c-0.5-0.3-0.8-0.6-1.1-1.1c-0.3-0.5-0.4-1-0.4-1.6c0-0.6,0.1-1.1,0.4-1.6
		c0.2-0.5,0.6-0.8,1-1.1c0.4-0.3,0.9-0.4,1.5-0.4c0.6,0,1.1,0.1,1.5,0.4s0.7,0.6,0.9,1c0.2,0.4,0.3,1,0.3,1.5c0,0.1,0,0.2-0.1,0.3
		c-0.1,0.1-0.2,0.1-0.3,0.1h-4.5v-0.8h4.5l-0.5,0.3c0-0.4-0.1-0.7-0.2-1c-0.1-0.3-0.4-0.5-0.6-0.7c-0.3-0.2-0.6-0.3-1-0.3
		c-0.4,0-0.8,0.1-1.1,0.3c-0.3,0.2-0.5,0.5-0.7,0.8s-0.2,0.7-0.2,1.1s0.1,0.8,0.3,1.1s0.4,0.6,0.8,0.8c0.3,0.2,0.7,0.3,1.1,0.3
		c0.2,0,0.5,0,0.7-0.1s0.5-0.2,0.6-0.3c0.1-0.1,0.2-0.1,0.3-0.1s0.2,0,0.3,0.1c0.1,0.1,0.2,0.2,0.2,0.3c0,0.1,0,0.2-0.2,0.3
		c-0.2,0.2-0.6,0.4-0.9,0.5C145,85.3,144.7,85.3,144.3,85.3z"/>
	<path d="M148.8,85.3c-0.1,0-0.3,0-0.4-0.1s-0.1-0.2-0.1-0.4v-5c0-0.2,0-0.3,0.1-0.4c0.1-0.1,0.2-0.1,0.4-0.1c0.2,0,0.3,0,0.4,0.1
		c0.1,0.1,0.1,0.2,0.1,0.4v5c0,0.1,0,0.3-0.1,0.4C149.1,85.3,149,85.3,148.8,85.3z M153.4,85.3c-0.1,0-0.3,0-0.4-0.1
		c-0.1-0.1-0.1-0.2-0.1-0.4V82c0-0.4-0.1-0.8-0.2-1.1c-0.2-0.3-0.4-0.5-0.6-0.6c-0.3-0.1-0.6-0.2-0.9-0.2c-0.3,0-0.6,0.1-0.9,0.2
		c-0.3,0.1-0.5,0.3-0.6,0.5s-0.2,0.5-0.2,0.8h-0.7c0-0.5,0.1-0.9,0.4-1.2c0.2-0.4,0.5-0.6,0.9-0.9s0.8-0.3,1.3-0.3
		c0.5,0,1,0.1,1.4,0.3c0.4,0.2,0.7,0.5,1,1s0.4,0.9,0.4,1.5v2.8c0,0.1-0.1,0.3-0.1,0.4C153.7,85.3,153.6,85.3,153.4,85.3z"/>
	<path d="M156.3,83c-0.1,0-0.3,0-0.4-0.1c-0.1-0.1-0.1-0.2-0.1-0.4v-5.3c0-0.2,0-0.3,0.1-0.4c0.1-0.1,0.2-0.1,0.4-0.1
		c0.2,0,0.3,0,0.4,0.1s0.1,0.2,0.1,0.4v5.3c0,0.1,0,0.3-0.1,0.4S156.5,83,156.3,83z M156.3,85.3c-0.1,0-0.3,0-0.4-0.1
		c-0.1-0.1-0.1-0.2-0.1-0.4v-5c0-0.2,0-0.3,0.1-0.4c0.1-0.1,0.2-0.1,0.4-0.1c0.2,0,0.3,0,0.4,0.1c0.1,0.1,0.1,0.2,0.1,0.4v5
		c0,0.1,0,0.3-0.1,0.4S156.5,85.3,156.3,85.3z M160.9,85.3c-0.1,0-0.3,0-0.4-0.1c-0.1-0.1-0.1-0.2-0.1-0.4V82c0-0.4-0.1-0.8-0.2-1.1
		c-0.2-0.3-0.4-0.5-0.6-0.6c-0.3-0.1-0.6-0.2-0.9-0.2c-0.3,0-0.6,0.1-0.9,0.2s-0.5,0.3-0.6,0.5c-0.2,0.2-0.2,0.5-0.2,0.8h-0.7
		c0-0.5,0.1-0.9,0.4-1.2c0.2-0.4,0.5-0.6,0.9-0.9s0.8-0.3,1.3-0.3c0.5,0,1,0.1,1.4,0.3c0.4,0.2,0.7,0.5,1,1s0.4,0.9,0.4,1.5v2.8
		c0,0.1,0,0.3-0.1,0.4C161.2,85.3,161.1,85.3,160.9,85.3z"/>
	<path d="M165.9,85.3c-0.5,0-1-0.1-1.5-0.4s-0.8-0.6-1-1.1s-0.4-1-0.4-1.6s0.1-1.1,0.4-1.6c0.3-0.5,0.6-0.8,1.1-1.1
		c0.5-0.3,1-0.4,1.5-0.4c0.6,0,1.1,0.1,1.6,0.4c0.5,0.3,0.8,0.6,1.1,1.1c0.3,0.5,0.4,1,0.4,1.6l-0.4,0.1c0,0.6-0.1,1.1-0.4,1.5
		c-0.2,0.4-0.6,0.8-1,1.1C166.9,85.2,166.4,85.3,165.9,85.3z M166,84.4c0.4,0,0.7-0.1,1.1-0.3c0.3-0.2,0.6-0.4,0.7-0.8
		s0.3-0.7,0.3-1.1c0-0.4-0.1-0.8-0.3-1.1s-0.4-0.6-0.7-0.8c-0.3-0.2-0.7-0.3-1-0.3s-0.7,0.1-1.1,0.3c-0.3,0.2-0.6,0.4-0.7,0.8
		c-0.2,0.3-0.3,0.7-0.3,1.1c0,0.4,0.1,0.8,0.3,1.1s0.4,0.6,0.7,0.8C165.3,84.4,165.6,84.4,166,84.4z M168.6,85.3
		c-0.1,0-0.3,0-0.4-0.1c-0.1-0.1-0.1-0.2-0.1-0.4v-1.8l0.2-1.1l0.8,0.3v2.5c0,0.1,0,0.3-0.1,0.4C168.8,85.3,168.7,85.3,168.6,85.3z"
		/>
	<path d="M171.2,85.3c-0.2,0-0.3,0-0.4-0.1c-0.1-0.1-0.1-0.2-0.1-0.4v-5c0-0.2,0-0.3,0.1-0.4s0.2-0.1,0.4-0.1c0.2,0,0.3,0,0.4,0.1
		c0.1,0.1,0.1,0.2,0.1,0.4v5c0,0.2,0,0.3-0.1,0.4S171.4,85.3,171.2,85.3z M171.2,81.6c0-0.4,0.1-0.8,0.3-1.2
		c0.2-0.4,0.5-0.6,0.9-0.8c0.4-0.2,0.8-0.3,1.2-0.3c0.4,0,0.7,0.1,0.9,0.2c0.2,0.1,0.3,0.3,0.2,0.5c0,0.1-0.1,0.2-0.1,0.2
		c-0.1,0-0.1,0.1-0.2,0.1s-0.2,0-0.3,0c-0.4-0.1-0.8-0.1-1.2,0c-0.4,0.1-0.6,0.3-0.8,0.5c-0.2,0.2-0.3,0.5-0.3,0.9H171.2z"/>
	<path d="M176.6,78.2c-0.2,0-0.3-0.1-0.5-0.2s-0.2-0.3-0.2-0.5c0-0.2,0.1-0.3,0.2-0.5c0.1-0.1,0.3-0.2,0.5-0.2
		c0.2,0,0.3,0.1,0.5,0.2c0.1,0.1,0.2,0.3,0.2,0.5c0,0.2-0.1,0.4-0.2,0.5S176.8,78.2,176.6,78.2z M176.6,85.3c-0.2,0-0.3,0-0.4-0.1
		c-0.1-0.1-0.1-0.2-0.1-0.4v-5c0-0.2,0-0.3,0.1-0.4c0.1-0.1,0.2-0.1,0.4-0.1c0.1,0,0.3,0,0.4,0.1c0.1,0.1,0.1,0.2,0.1,0.4v5
		c0,0.1,0,0.3-0.1,0.4C176.9,85.3,176.8,85.3,176.6,85.3z"/>
	<path d="M181.8,85.3c-0.5,0-1-0.1-1.5-0.4s-0.8-0.6-1-1.1s-0.4-1-0.4-1.6s0.1-1.1,0.4-1.6c0.3-0.5,0.6-0.8,1.1-1.1
		c0.5-0.3,1-0.4,1.5-0.4c0.6,0,1.1,0.1,1.6,0.4c0.5,0.3,0.8,0.6,1.1,1.1c0.3,0.5,0.4,1,0.4,1.6l-0.4,0.1c0,0.6-0.1,1.1-0.4,1.5
		c-0.2,0.4-0.6,0.8-1,1.1C182.8,85.2,182.3,85.3,181.8,85.3z M182,84.4c0.4,0,0.7-0.1,1.1-0.3c0.3-0.2,0.6-0.4,0.7-0.8
		s0.3-0.7,0.3-1.1c0-0.4-0.1-0.8-0.3-1.1s-0.4-0.6-0.7-0.8c-0.3-0.2-0.7-0.3-1-0.3s-0.7,0.1-1.1,0.3c-0.3,0.2-0.6,0.4-0.7,0.8
		c-0.2,0.3-0.3,0.7-0.3,1.1c0,0.4,0.1,0.8,0.3,1.1s0.4,0.6,0.7,0.8C181.2,84.4,181.6,84.4,182,84.4z M184.5,85.3
		c-0.1,0-0.3,0-0.4-0.1c-0.1-0.1-0.1-0.2-0.1-0.4v-1.8l0.2-1.1l0.8,0.3v2.5c0,0.1,0,0.3-0.1,0.4C184.8,85.3,184.6,85.3,184.5,85.3z"
		/>
</g>
</svg>
