<svg width="18" height="18" viewBox="0 0 18 18" fill="none" xmlns="http://www.w3.org/2000/svg">
<g clip-path="url(#clip0_12_19)">
<path d="M6.12416 17.4266C6.12416 13.7405 6.12665 10.0834 6.11869 6.42619C6.11819 6.18576 6.18439 6.11856 6.42333 6.12155C7.46866 6.13399 8.51449 6.1315 9.56032 6.12254C9.76839 6.12055 9.83609 6.18725 9.82763 6.39284C9.81369 6.73232 9.82265 7.0728 9.82514 7.41328C9.82564 7.48944 9.83957 7.5656 9.85202 7.68656C10.1148 7.3859 10.3244 7.11063 10.5698 6.87269C11.2348 6.22707 12.0492 5.92044 12.9686 5.87863C13.784 5.84179 14.5705 5.94981 15.3116 6.31817C16.3445 6.83138 16.9414 7.69353 17.2833 8.75977C17.5312 9.53282 17.5974 10.3298 17.5945 11.1382C17.5875 13.1377 17.5885 15.1373 17.5969 17.1369C17.5979 17.3703 17.5417 17.452 17.2948 17.449C16.241 17.436 15.1867 17.437 14.1329 17.4485C13.9034 17.451 13.8377 17.3843 13.8387 17.1543C13.8467 15.0965 13.8517 13.0392 13.8372 10.9814C13.8327 10.3751 13.6695 9.80211 13.2533 9.33072C12.7605 8.77321 11.864 8.63732 11.1886 8.93648C10.293 9.33371 9.82663 10.041 9.82464 11.0291C9.82016 13.0621 9.81867 15.0945 9.82912 17.1274C9.83012 17.3788 9.76441 17.452 9.51005 17.4485C8.47268 17.434 7.43531 17.443 6.39794 17.442C6.30286 17.443 6.20679 17.4316 6.12416 17.4266Z" fill="white"/>
<path d="M3.94738 11.8124C3.94738 13.587 3.9434 15.3621 3.95236 17.1367C3.95335 17.3696 3.8976 17.4518 3.65071 17.4488C2.58895 17.4358 1.52719 17.4388 0.465425 17.4473C0.261834 17.4488 0.194634 17.3905 0.195132 17.1815C0.200608 13.5825 0.200608 9.98312 0.195132 6.38418C0.194634 6.16815 0.273781 6.12235 0.470901 6.12385C1.53266 6.13131 2.59442 6.1333 3.65618 6.12285C3.88167 6.12086 3.95435 6.18109 3.95335 6.41455C3.9434 8.21352 3.94738 10.013 3.94738 11.8124Z" fill="white"/>
<path d="M2.06927 4.49875C1.14091 4.54654 0.391758 4.00247 0.133411 3.3021C-0.347442 2.00041 0.526656 0.700212 1.91595 0.651928C2.5093 0.631519 3.06084 0.730576 3.54418 1.12681C4.16242 1.63355 4.3909 2.75603 3.98671 3.46387C3.56758 4.19611 3.00758 4.49826 2.06927 4.49875Z" fill="white"/>
</g>
<defs>
<clipPath id="clip0_12_19">
<rect width="17.5974" height="16.8005" fill="white" transform="translate(0 0.648926)"/>
</clipPath>
</defs>
</svg>
