<svg width="47" height="47" viewBox="0 0 47 47" fill="none" xmlns="http://www.w3.org/2000/svg">
<g clip-path="url(#clip0_7_183)">
<path d="M40.1987 3.60945C31.22 3.60945 22.3098 3.60945 13.3321 3.60945C13.3321 3.80401 13.3321 3.97705 13.3321 4.15107C13.3321 5.3086 13.3399 6.46515 13.3291 7.62268C13.3135 9.29152 12.2058 10.409 10.537 10.4314C9.38044 10.4471 8.22291 10.4344 7.06636 10.4344C6.89234 10.4344 6.71734 10.4344 6.48662 10.4344C6.48662 10.6827 6.48662 10.8743 6.48662 11.065C6.48662 14.8132 6.48662 18.5625 6.48564 22.3108C6.48564 22.4897 6.49444 22.6715 6.46902 22.8475C6.41525 23.219 6.17671 23.4312 5.814 23.4595C5.44836 23.4888 5.18146 23.309 5.07686 22.9502C5.02797 22.782 5.02211 22.5972 5.02211 22.4193C5.01918 18.28 5.02406 14.1396 5.01429 10.0003C5.01331 9.57796 5.14529 9.26121 5.44641 8.96303C7.58647 6.83959 9.71968 4.7093 11.8392 2.56533C12.1657 2.23489 12.5069 2.11268 12.9625 2.11366C21.8923 2.12344 30.8211 2.11855 39.7509 2.12637C40.1537 2.12637 40.402 2.0638 40.6142 1.64341C41.2604 0.36368 42.7259 -0.246369 44.1357 0.0899398C45.5131 0.418428 46.5309 1.66199 46.5465 3.10401C46.568 5.0593 46.5534 7.01556 46.5534 8.97085C46.5534 15.2454 46.5583 21.5209 46.5426 27.7954C46.5416 28.1854 46.436 28.6009 46.2786 28.9597C45.738 30.1965 45.1475 31.4126 44.5854 32.6406C44.3439 33.1685 43.9998 33.5439 43.377 33.5449C42.7542 33.5459 42.4091 33.1704 42.1677 32.6425C41.5908 31.3853 40.9886 30.1398 40.4294 28.8747C40.2896 28.5599 40.2085 28.1903 40.2085 27.8462C40.1967 19.9742 40.1987 12.1022 40.1987 4.23026C40.1987 4.03864 40.1987 3.84604 40.1987 3.60945ZM43.377 31.7509C43.9127 30.6022 44.4113 29.561 44.8796 28.5061C44.9999 28.2343 45.0791 27.9185 45.0801 27.6223C45.0918 21.5277 45.0889 15.434 45.0889 9.33942C45.0889 9.16735 45.0889 8.99529 45.0889 8.83593C43.9079 8.83593 42.7943 8.83593 41.6808 8.83593C41.6749 8.94054 41.6671 9.00507 41.6671 9.06959C41.6661 15.3109 41.6661 21.5512 41.6681 27.7924C41.6681 27.9205 41.6681 28.0613 41.7189 28.1737C42.2527 29.341 42.7973 30.5044 43.377 31.7509ZM7.64806 8.94445C8.72444 8.94445 9.75879 8.97183 10.7922 8.9337C11.3299 8.91317 11.7747 8.56317 11.8089 8.04013C11.8793 6.95104 11.8294 5.8551 11.8294 4.77969C10.4422 6.1611 9.06564 7.53176 7.64806 8.94445ZM45.0859 4.37788C45.0859 3.92132 45.1006 3.51658 45.083 3.11183C45.0458 2.23489 44.3722 1.5349 43.5178 1.46646C42.6594 1.39803 41.848 1.97288 41.7131 2.83418C41.6348 3.33376 41.6984 3.85582 41.6984 4.37788C42.8315 4.37788 43.9303 4.37788 45.0859 4.37788ZM41.6876 7.29517C42.8393 7.29517 43.9509 7.29517 45.0488 7.29517C45.0488 6.7995 45.0488 6.33806 45.0488 5.88736C43.9088 5.88736 42.809 5.88736 41.6876 5.88736C41.6876 6.3625 41.6876 6.81221 41.6876 7.29517Z" fill="black"/>
<path d="M31.9826 41.5381C28.8864 41.5381 25.7902 41.541 22.695 41.5332C22.3822 41.5322 22.1749 41.6143 21.9491 41.8607C21.2559 42.6164 20.5256 43.3408 19.7806 44.0457C19.1579 44.6343 18.2751 44.6499 17.5888 44.123C17.2016 43.8258 16.8389 43.4963 16.4567 43.1913C16.1604 42.9547 15.5797 43.1707 15.524 43.5491C15.4536 44.032 15.4282 44.5218 15.3725 45.0067C15.2698 45.8954 14.5943 46.5299 13.7036 46.5456C12.726 46.5632 11.7483 46.5622 10.7707 46.5456C9.87615 46.5309 9.19571 45.8993 9.09403 45.0155C9.04515 44.5952 8.99822 44.1728 8.98063 43.7505C8.96694 43.4093 8.80367 43.2538 8.49669 43.1189C8.1858 42.982 8.04796 43.16 7.86611 43.3105C7.55229 43.5696 7.24433 43.8375 6.92367 44.0878C6.18359 44.6675 5.28709 44.6352 4.61838 43.9871C3.92719 43.3184 3.24773 42.6379 2.57902 41.9477C1.92693 41.2741 1.88978 40.3776 2.46561 39.6424C2.71687 39.3218 2.98279 39.0128 3.24382 38.7009C3.40806 38.5044 3.57426 38.351 3.42957 38.0234C3.28586 37.6979 3.09033 37.5923 2.77162 37.5737C2.34927 37.5493 1.92693 37.5102 1.50655 37.4584C0.67555 37.3567 0.0361717 36.6821 0.0175965 35.8443C-0.00488929 34.8344 -0.00391165 33.8235 0.0166188 32.8126C0.0342164 31.9523 0.677505 31.2826 1.54174 31.1829C1.97875 31.132 2.41673 31.0783 2.85569 31.0656C3.19689 31.0548 3.3103 30.8593 3.43739 30.5875C3.56644 30.3128 3.43544 30.1681 3.28586 29.9921C3.01114 29.6695 2.7374 29.3459 2.47441 29.0135C1.89369 28.2783 1.92302 27.3769 2.57022 26.7082C3.24968 26.0053 3.94088 25.3121 4.64478 24.6346C5.28123 24.0226 6.17088 23.9845 6.87381 24.5202C7.21011 24.7764 7.52883 25.057 7.85536 25.3278C8.05089 25.4901 8.20145 25.6651 8.53091 25.5184C8.85451 25.3747 8.96498 25.1831 8.98356 24.8624C9.008 24.4401 9.04808 24.0177 9.09892 23.5973C9.19962 22.7654 9.87126 22.124 10.7081 22.1045C11.718 22.081 12.7289 22.083 13.7388 22.1035C14.6001 22.1211 15.2718 22.7615 15.3725 23.6247C15.4253 24.0774 15.482 24.532 15.4966 24.9866C15.5074 25.3209 15.7068 25.4607 15.9718 25.4989C16.1467 25.5243 16.3745 25.492 16.5143 25.3943C16.8868 25.1332 17.2163 24.8126 17.577 24.5329C18.277 23.9894 19.1677 24.0128 19.807 24.6209C20.5266 25.3063 21.2285 26.0111 21.9158 26.7287C22.5308 27.3701 22.5708 28.2499 22.0351 28.9587C21.7604 29.3224 21.4661 29.6734 21.1621 30.0126C20.9939 30.2003 20.9235 30.3568 21.0418 30.6129C21.1601 30.8691 21.2755 31.048 21.5912 31.0616C22.0302 31.0792 22.4682 31.1311 22.9052 31.1809C23.8193 31.2845 24.4411 31.963 24.4538 32.8908C24.4665 33.8362 24.4645 34.7816 24.4548 35.727C24.444 36.6831 23.8271 37.3596 22.8837 37.4672C22.4633 37.5151 22.041 37.5679 21.6186 37.5806C21.2813 37.5903 21.1581 37.7751 21.032 38.0528C20.9098 38.3236 21.0262 38.4683 21.1767 38.6491C21.5111 39.049 21.82 39.4704 22.1661 39.8585C22.2658 39.9709 22.4574 40.0609 22.607 40.0609C28.8317 40.0706 35.0563 40.0726 41.281 40.0648C42.1804 40.0638 42.6409 39.5623 42.6438 38.6433C42.6477 37.5512 42.6428 36.4592 42.6458 35.3672C42.6477 34.765 42.9254 34.4159 43.3888 34.4238C43.8492 34.4306 44.1103 34.7747 44.1112 35.3887C44.1132 36.4485 44.1132 37.5072 44.1112 38.567C44.1093 40.4333 43.0055 41.5342 41.1245 41.5361C38.0772 41.54 35.0299 41.5381 31.9826 41.5381ZM20.9538 40.7247C20.8668 40.6025 20.7994 40.493 20.7182 40.3942C20.335 39.9289 19.9537 39.4616 19.5626 39.004C19.2977 38.6941 19.2684 38.3783 19.4443 38.0117C19.6272 37.6314 19.8022 37.2433 19.9322 36.8425C20.0739 36.4054 20.3575 36.2197 20.7954 36.1874C21.3967 36.1434 21.995 36.076 22.5963 36.0291C22.8729 36.0075 22.9981 35.8912 22.9942 35.5979C22.9815 34.7503 22.9824 33.9027 22.9942 33.056C22.9981 32.7667 22.8827 32.6425 22.6011 32.621C22.0009 32.575 21.4016 32.5066 20.8003 32.4626C20.3643 32.4303 20.0749 32.2505 19.9341 31.8115C19.81 31.4263 19.6467 31.0499 19.4658 30.6872C19.2664 30.2883 19.2938 29.9491 19.589 29.6098C19.985 29.1562 20.3535 28.6772 20.7514 28.2245C20.9548 27.9938 20.9597 27.8247 20.7329 27.6057C20.1238 27.0171 19.5255 26.4159 18.935 25.8088C18.7336 25.6025 18.5733 25.5966 18.3552 25.7863C17.8762 26.2037 17.3766 26.5968 16.8917 27.0064C16.5955 27.2557 16.2895 27.2831 15.9414 27.1198C15.5592 26.9409 15.175 26.7532 14.7732 26.628C14.3117 26.4853 14.123 26.192 14.0927 25.7345C14.0536 25.1498 13.9832 24.5672 13.9412 23.9825C13.9197 23.6844 13.7975 23.5533 13.4817 23.5602C12.6507 23.5758 11.8197 23.5758 10.9887 23.5602C10.6768 23.5543 10.5468 23.6746 10.5243 23.9776C10.4823 24.5623 10.4109 25.145 10.3728 25.7296C10.3435 26.1871 10.1548 26.4853 9.69724 26.63C9.31205 26.7522 8.93761 26.9194 8.57295 27.0983C8.19167 27.285 7.8622 27.2606 7.53763 26.98C7.06933 26.5752 6.58247 26.192 6.11516 25.7863C5.90105 25.6005 5.73876 25.5947 5.53346 25.8049C4.94296 26.413 4.34464 27.0132 3.73557 27.6018C3.51169 27.8178 3.50387 27.984 3.71113 28.2187C4.12076 28.6821 4.50107 29.1719 4.90288 29.6431C5.16684 29.953 5.19422 30.2707 5.02117 30.6364C4.84031 31.0177 4.66531 31.4058 4.53431 31.8056C4.39157 32.2417 4.10708 32.4284 3.67007 32.4607C3.06882 32.5046 2.4705 32.5721 1.86925 32.619C1.5916 32.6405 1.46842 32.7579 1.47233 33.0502C1.48504 33.8978 1.48504 34.7454 1.47233 35.592C1.46842 35.8824 1.58476 36.0056 1.86534 36.0271C2.46561 36.074 3.06491 36.1425 3.66616 36.1855C4.10317 36.2168 4.38962 36.4006 4.53235 36.8366C4.66336 37.2364 4.83738 37.6255 5.01922 38.0068C5.19324 38.3715 5.1688 38.6902 4.90483 39.0011C4.49325 39.485 4.0973 39.9826 3.68278 40.4636C3.51071 40.6631 3.50778 40.8185 3.6994 41.0072C4.31629 41.6114 4.92927 42.2205 5.53053 42.8393C5.7329 43.0476 5.89519 43.0495 6.11124 42.8618C6.59127 42.4463 7.08987 42.0513 7.5738 41.6397C7.87002 41.3885 8.17603 41.365 8.52407 41.5263C8.90633 41.7043 9.29249 41.8861 9.69333 42.0142C10.1499 42.1599 10.3435 42.4531 10.3728 42.9117C10.4109 43.4963 10.4813 44.079 10.5243 44.6636C10.5458 44.9628 10.669 45.0918 10.9838 45.0859C11.8148 45.0703 12.6458 45.0703 13.4768 45.0859C13.7887 45.0918 13.9177 44.9696 13.9392 44.6675C13.9822 44.0663 14.0487 43.467 14.0966 42.8667C14.1299 42.4522 14.3039 42.1735 14.7223 42.0347C15.1222 41.9027 15.5132 41.7326 15.8916 41.5469C16.2738 41.3592 16.6014 41.3865 16.9269 41.6661C17.3962 42.0699 17.884 42.4522 18.3504 42.8589C18.5654 43.0466 18.7287 43.0505 18.9321 42.8413C19.5343 42.2224 20.1512 41.6182 20.7583 41.0043C20.8345 40.929 20.8844 40.8263 20.9538 40.7247Z" fill="black"/>
<path d="M30.4556 15.2092C30.4556 14.7957 30.4438 14.389 30.4575 13.9842C30.4869 13.1219 30.9463 12.6654 31.8086 12.6468C32.4734 12.6331 33.1382 12.6439 33.8773 12.6439C33.8773 12.2342 33.8705 11.8666 33.8783 11.4981C33.8998 10.5771 34.3554 10.1157 35.2714 10.102C35.9881 10.0912 36.7056 10.0883 37.4223 10.103C38.2875 10.1206 38.7597 10.5791 38.7616 11.4394C38.7704 15.3021 38.7704 19.1638 38.7616 23.0264C38.7597 23.922 38.2992 24.3736 37.3929 24.3756C33.2546 24.3824 29.1162 24.3824 24.9778 24.3746C24.0853 24.3727 23.6248 23.9083 23.614 23.0108C23.5994 21.7399 23.5994 20.4679 23.614 19.197C23.6248 18.3044 24.0931 17.8449 24.9817 17.8283C25.6446 17.8156 26.3084 17.8264 27.0319 17.8264C27.0319 17.4519 27.0299 17.1313 27.0319 16.8096C27.0387 15.7322 27.4767 15.2904 28.5413 15.2825C29.1279 15.2786 29.7135 15.2747 30.3001 15.2688C30.3304 15.2708 30.3588 15.2493 30.4556 15.2092ZM37.2649 22.8817C37.2649 19.0963 37.2649 15.3588 37.2649 11.5685C36.778 11.5685 36.3234 11.5988 35.8737 11.5597C35.4308 11.5215 35.3321 11.6858 35.334 12.1091C35.3506 15.5299 35.3438 18.9516 35.3438 22.3724C35.3438 22.5318 35.3438 22.6911 35.3438 22.8817C36.0076 22.8817 36.6177 22.8817 37.2649 22.8817ZM33.8372 22.8866C33.8372 19.9371 33.8372 17.0462 33.8372 14.1113C33.3455 14.1113 32.8909 14.1348 32.4392 14.1045C32.0423 14.0771 31.9083 14.1973 31.9113 14.6148C31.9299 17.2212 31.9201 19.8276 31.922 22.434C31.922 22.5767 31.9387 22.7195 31.9484 22.8876C32.5927 22.8866 33.2027 22.8866 33.8372 22.8866ZM30.4546 22.8866C30.4546 21.8171 30.4546 20.8091 30.4546 19.8002C30.4546 18.7981 30.4546 17.797 30.4546 16.7519C29.9228 16.7519 29.4672 16.7754 29.0165 16.7451C28.6186 16.7177 28.4837 16.8389 28.4895 17.2554C28.512 18.981 28.4983 20.7075 28.5003 22.434C28.5003 22.5767 28.5169 22.7195 28.5267 22.8866C29.1709 22.8866 29.781 22.8866 30.4546 22.8866ZM27.0094 19.2967C26.415 19.2967 25.8802 19.287 25.3474 19.3065C25.2565 19.3094 25.0942 19.4365 25.0932 19.5089C25.0766 20.6273 25.0815 21.7467 25.0815 22.87C25.7629 22.87 26.3847 22.87 27.0094 22.87C27.0094 21.6724 27.0094 20.5198 27.0094 19.2967Z" fill="black"/>
<path d="M31.7245 31.4879C33.4012 31.4879 35.0778 31.4879 36.7555 31.4889C36.9021 31.4889 37.0536 31.4742 37.1934 31.5075C37.5464 31.5915 37.7654 31.8135 37.7781 32.1908C37.7918 32.5907 37.5777 32.8332 37.2061 32.9339C37.0839 32.9671 36.9471 32.9544 36.818 32.9544C33.3992 32.9554 29.9804 32.9554 26.5616 32.9554C26.5127 32.9554 26.4638 32.9563 26.4149 32.9554C25.8929 32.9378 25.5673 32.6454 25.579 32.2036C25.5898 31.7812 25.9056 31.4957 26.4032 31.4908C27.461 31.482 28.5198 31.4879 29.5776 31.4879C30.2913 31.4879 31.0079 31.4879 31.7245 31.4879Z" fill="black"/>
<path d="M15.6012 17.318C13.8757 17.318 12.1501 17.3209 10.4246 17.316C9.87418 17.3141 9.56916 17.0521 9.56036 16.6043C9.55156 16.1556 9.86539 15.8593 10.3923 15.8544C11.2879 15.8447 12.1834 15.8515 13.0779 15.8515C15.6501 15.8515 18.2223 15.8437 20.7935 15.8632C21.0604 15.8652 21.3918 15.9669 21.5717 16.1448C21.7144 16.2856 21.778 16.6727 21.6841 16.8458C21.5678 17.0589 21.2588 17.2798 21.0203 17.2945C20.1277 17.3473 19.2312 17.318 18.3357 17.319C17.4245 17.319 16.5134 17.318 15.6012 17.318Z" fill="black"/>
<path d="M33.0111 29.6294C31.7578 29.6294 30.5045 29.6314 29.2511 29.6284C28.6469 29.6274 28.3048 29.3488 28.3145 28.8805C28.3243 28.4308 28.6577 28.1639 29.2325 28.1639C31.7715 28.162 34.3104 28.162 36.8494 28.1639C37.4594 28.1649 37.7879 28.4337 37.7791 28.9118C37.7703 29.3703 37.4506 29.6274 36.8679 29.6294C35.5823 29.6323 34.2967 29.6294 33.0111 29.6294Z" fill="black"/>
<path d="M17.0315 13.9881C15.7459 13.9881 14.4603 13.9911 13.1747 13.9872C12.6184 13.9852 12.3154 13.7379 12.2997 13.2901C12.2841 12.8257 12.6067 12.5256 13.1669 12.5236C15.7381 12.5178 18.3093 12.5178 20.8805 12.5236C21.4387 12.5246 21.7711 12.8267 21.7584 13.2833C21.7467 13.7271 21.4348 13.9852 20.8874 13.9872C19.6027 13.9911 18.3171 13.9881 17.0315 13.9881Z" fill="black"/>
<path d="M32.1967 34.8139C32.7814 34.8139 33.366 34.81 33.9506 34.8149C34.5186 34.8197 34.8393 35.0945 34.8334 35.5579C34.8276 36.0037 34.5157 36.2764 33.978 36.2784C32.7921 36.2842 31.6072 36.2842 30.4213 36.2784C29.8934 36.2754 29.563 35.9919 29.5532 35.5598C29.5434 35.1121 29.8875 34.8197 30.4428 34.8149C31.0275 34.81 31.6121 34.8139 32.1967 34.8139Z" fill="black"/>
<path d="M16.1937 20.6429C15.5768 20.6429 14.9599 20.6507 14.343 20.64C13.8522 20.6312 13.5335 20.3389 13.5276 19.9214C13.5228 19.5069 13.8464 19.1862 14.3274 19.1813C15.5611 19.1696 16.7949 19.1696 18.0287 19.1823C18.5195 19.1872 18.8157 19.4952 18.8069 19.9302C18.7981 20.3653 18.5058 20.6322 17.9955 20.641C17.3952 20.6507 16.7939 20.6429 16.1937 20.6429Z" fill="black"/>
<path d="M27.1365 34.8158C27.4288 34.8158 27.7221 34.8021 28.0144 34.8188C28.4387 34.8432 28.7339 35.1385 28.7476 35.5227C28.7623 35.9235 28.4573 36.2588 28.0144 36.2745C27.4464 36.294 26.8764 36.294 26.3074 36.2745C25.8597 36.2588 25.5634 35.9323 25.5771 35.5236C25.5908 35.1326 25.8782 34.8452 26.3074 34.8197C26.5831 34.8031 26.8608 34.8158 27.1365 34.8158Z" fill="black"/>
<path d="M11.1422 20.638C10.8499 20.638 10.5566 20.6537 10.2652 20.6351C9.83313 20.6077 9.55645 20.3203 9.56134 19.9185C9.56721 19.4962 9.80478 19.2214 10.2056 19.195C10.8196 19.153 11.4404 19.1608 12.0553 19.1931C12.4698 19.2146 12.7524 19.5685 12.7133 19.9556C12.6722 20.3653 12.4337 20.6068 12.0182 20.6341C11.7278 20.6537 11.4345 20.638 11.1422 20.638Z" fill="black"/>
<path d="M11.0103 13.9861C10.6182 13.9852 10.2946 13.6723 10.2829 13.2842C10.2712 12.8824 10.6143 12.5275 11.0151 12.5285C11.417 12.5295 11.7552 12.8834 11.7406 13.2881C11.7269 13.6801 11.4052 13.9871 11.0103 13.9861Z" fill="black"/>
<path d="M21.031 19.8921C21.0428 20.2822 20.7387 20.6126 20.3477 20.6351C19.9341 20.6586 19.5841 20.3418 19.5724 19.9332C19.5616 19.5304 19.9058 19.1775 20.3056 19.1794C20.6889 19.1824 21.0193 19.5069 21.031 19.8921Z" fill="black"/>
<path d="M27.7709 28.9128C27.7612 29.298 27.4297 29.6245 27.0465 29.6275C26.6398 29.6314 26.3035 29.2873 26.3123 28.8776C26.3211 28.468 26.674 28.1415 27.0807 28.1659C27.4669 28.1894 27.7807 28.5296 27.7709 28.9128Z" fill="black"/>
<path d="M36.3078 34.8168C36.7125 34.8041 37.0635 35.1463 37.0615 35.55C37.0596 35.9342 36.736 36.2657 36.3498 36.2774C35.9626 36.2901 35.6263 35.9812 35.6029 35.5921C35.5784 35.1824 35.8991 34.8295 36.3078 34.8168Z" fill="black"/>
<path d="M15.3011 4.76892C15.6951 4.77478 16.0147 5.08763 16.0226 5.47477C16.0304 5.87072 15.6755 6.2256 15.2786 6.21876C14.868 6.21192 14.5522 5.87072 14.5698 5.45229C14.5864 5.05439 14.8983 4.76305 15.3011 4.76892Z" fill="black"/>
<path d="M23.749 5.50509C23.7372 5.90201 23.3667 6.24223 22.9737 6.21681C22.5807 6.1914 22.2874 5.86877 22.2952 5.47087C22.303 5.05244 22.6335 4.74839 23.0578 4.7699C23.4478 4.79043 23.7607 5.12185 23.749 5.50509Z" fill="black"/>
<path d="M30.7322 4.76895C31.1458 4.76504 31.485 5.10135 31.4743 5.50414C31.4635 5.88053 31.1253 6.21489 30.7489 6.21978C30.3412 6.22467 30.0127 5.88836 30.0205 5.47188C30.0274 5.07202 30.3304 4.77287 30.7322 4.76895Z" fill="black"/>
<path d="M38.4889 6.21976C38.1017 6.23345 37.7693 5.92744 37.7469 5.53541C37.7214 5.11307 38.0235 4.78067 38.4429 4.76894C38.8584 4.75818 39.2006 5.08374 39.1996 5.48848C39.1977 5.86585 38.8663 6.20705 38.4889 6.21976Z" fill="black"/>
<path d="M12.2499 40.4627C9.65819 40.4412 7.34118 38.8153 6.47205 36.379C5.60586 33.9496 6.37624 31.1956 8.37455 29.5834C10.3963 27.9518 13.2149 27.7621 15.4116 29.1093C15.4947 29.1601 15.5798 29.21 15.658 29.2686C16.0334 29.5502 16.1253 29.9413 15.9024 30.2913C15.6844 30.6334 15.262 30.74 14.8729 30.4966C14.1553 30.0478 13.3957 29.7594 12.5452 29.6978C9.92998 29.5082 7.68922 31.5368 7.59439 34.1921C7.50151 36.8082 9.65526 39.0079 12.2744 38.9727C14.9003 38.9375 16.9739 36.7554 16.8654 34.1539C16.8321 33.3542 16.6083 32.6181 16.2113 31.9298C16.0295 31.615 15.9953 31.2689 16.2788 31.0392C16.4665 30.8866 16.7872 30.7957 17.0198 30.8368C17.2134 30.871 17.4138 31.1105 17.5292 31.307C19.5764 34.806 17.5595 39.4097 13.601 40.2769C13.1591 40.3737 12.7016 40.403 12.2499 40.4627Z" fill="black"/>
<path d="M15.4037 34.2977C15.4135 36.0731 14.0018 37.4906 12.2196 37.4955C10.4764 37.4994 9.0608 36.0789 9.05884 34.325C9.05688 32.5741 10.4627 31.1624 12.2186 31.1526C13.9686 31.1418 15.394 32.5496 15.4037 34.2977ZM13.9343 34.3045C13.9265 33.3601 13.1571 32.6083 12.2127 32.623C11.2585 32.6386 10.5194 33.3943 10.5302 34.3436C10.5409 35.2929 11.3025 36.0379 12.2518 36.0261C13.2011 36.0144 13.9422 35.2558 13.9343 34.3045Z" fill="black"/>
</g>
<defs>
<clipPath id="clip0_7_183">
<rect width="46.5593" height="46.5583" fill="white"/>
</clipPath>
</defs>
</svg>
