<svg width="44" height="44" viewBox="0 0 44 44" fill="none" xmlns="http://www.w3.org/2000/svg">
<g clip-path="url(#clip0_7_152)">
<path d="M4.99939 15.9024C5.12326 16.0263 5.28589 16.0886 5.44852 16.0886C5.61115 16.0886 5.77378 16.0266 5.89798 15.9024C6.14607 15.6543 6.14607 15.2519 5.89798 15.0038L4.35516 13.461L5.89798 11.9185C6.14607 11.6701 6.14607 11.268 5.89798 11.0199C5.6499 10.7718 5.24747 10.7718 4.99939 11.0199L3.00743 13.0119C2.8882 13.1311 2.82129 13.2927 2.82129 13.461C2.82129 13.6296 2.8882 13.7912 3.00743 13.9105L4.99939 15.9024Z" fill="black"/>
<path d="M11.3045 13.461L9.7617 15.0038C9.51362 15.2519 9.51362 15.6543 9.76204 15.9024C9.88591 16.0263 10.0485 16.0885 10.2112 16.0885C10.3738 16.0885 10.5364 16.0263 10.6603 15.9024L12.6526 13.9101C12.9007 13.662 12.9007 13.2596 12.6526 13.0118L10.6603 11.0196C10.4122 10.7715 10.0101 10.7715 9.76204 11.0196C9.51362 11.268 9.51362 11.6701 9.76204 11.9182L11.3045 13.461Z" fill="black"/>
<path d="M6.88271 16.0445C6.95889 16.0743 7.03772 16.0886 7.11489 16.0886C7.36861 16.0886 7.60808 15.9355 7.70645 15.6855L9.27146 11.7012C9.39997 11.3746 9.239 11.006 8.91242 10.8775C8.58617 10.7493 8.21719 10.9099 8.08901 11.2365L6.52367 15.2208C6.39549 15.5473 6.55613 15.9163 6.88271 16.0445Z" fill="black"/>
<path d="M3.81631 19.8161H8.09665C8.44741 19.8161 8.73193 19.5316 8.73193 19.1805C8.73193 18.8297 8.44741 18.5452 8.09665 18.5452H3.81631C3.46522 18.5452 3.18103 18.8297 3.18103 19.1805C3.18103 19.5316 3.46522 19.8161 3.81631 19.8161Z" fill="black"/>
<path d="M17.9551 18.5452H10.4298C10.079 18.5452 9.79449 18.8297 9.79449 19.1805C9.79449 19.5316 10.079 19.8161 10.4298 19.8161H17.9551C18.3062 19.8161 18.5907 19.5316 18.5907 19.1805C18.5907 18.8297 18.3062 18.5452 17.9551 18.5452Z" fill="black"/>
<path d="M3.81631 22.496H5.63967C5.99043 22.496 6.27495 22.2115 6.27495 21.8604C6.27495 21.5096 5.99043 21.2251 5.63967 21.2251H3.81631C3.46522 21.2251 3.18103 21.5096 3.18103 21.8604C3.18103 22.2115 3.46522 22.496 3.81631 22.496Z" fill="black"/>
<path d="M15.6305 21.2251C15.2794 21.2251 14.9952 21.5096 14.9952 21.8604C14.9952 22.2115 15.2794 22.496 15.6305 22.496H16.7408C17.0919 22.496 17.3764 22.2115 17.3764 21.8604C17.3764 21.5096 17.0919 21.2251 16.7408 21.2251H15.6305Z" fill="black"/>
<path d="M13.9582 21.8604C13.9582 21.5096 13.6737 21.2251 13.323 21.2251H7.8691C7.51801 21.2251 7.23383 21.5096 7.23383 21.8604C7.23383 22.2115 7.51801 22.496 7.8691 22.496H13.323C13.6737 22.496 13.9582 22.2115 13.9582 21.8604Z" fill="black"/>
<path d="M18.1203 21.8604C18.1203 22.2115 18.4048 22.496 18.7556 22.496H20.8353C21.1864 22.496 21.4709 22.2115 21.4709 21.8604C21.4709 21.5096 21.1864 21.2251 20.8353 21.2251H18.7556C18.4048 21.2251 18.1203 21.5096 18.1203 21.8604Z" fill="black"/>
<path d="M14.6601 13.9707H16.8537C17.2048 13.9707 17.4894 13.6862 17.4894 13.3351C17.4894 12.9843 17.2048 12.6998 16.8537 12.6998H14.6601C14.309 12.6998 14.0245 12.9843 14.0245 13.3351C14.0245 13.6862 14.309 13.9707 14.6601 13.9707Z" fill="black"/>
<path d="M19.3107 13.9707H32.6956C33.0467 13.9707 33.3309 13.6862 33.3309 13.3351C33.3309 12.9843 33.0467 12.6998 32.6956 12.6998H19.3107C18.9596 12.6998 18.6751 12.9843 18.6751 13.3351C18.6751 13.6862 18.9596 13.9707 19.3107 13.9707Z" fill="black"/>
<path d="M30.6626 15.4953H25.2406C24.8898 15.4953 24.6053 15.7798 24.6053 16.1309C24.6053 16.4817 24.8898 16.7662 25.2406 16.7662H30.6626C31.0134 16.7662 31.2979 16.4817 31.2979 16.1309C31.2979 15.7798 31.0134 15.4953 30.6626 15.4953Z" fill="black"/>
<path d="M23.2075 15.4953H21.3438C20.9927 15.4953 20.7085 15.7798 20.7085 16.1309C20.7085 16.4817 20.9927 16.7662 21.3438 16.7662H23.2075C23.5586 16.7662 23.8428 16.4817 23.8428 16.1309C23.8428 15.7798 23.5586 15.4953 23.2075 15.4953Z" fill="black"/>
<path d="M14.6601 16.7662H19.2259C19.5767 16.7662 19.8612 16.4817 19.8612 16.1309C19.8612 15.7798 19.5767 15.4953 19.2259 15.4953H14.6601C14.309 15.4953 14.0245 15.7798 14.0245 16.1309C14.0245 16.4817 14.309 16.7662 14.6601 16.7662Z" fill="black"/>
<path d="M13.3309 23.8825H9.05089C8.6998 23.8825 8.41528 24.167 8.41528 24.5178C8.41528 24.8685 8.6998 25.153 9.05089 25.153H13.3309C13.6817 25.153 13.9662 24.8685 13.9662 24.5178C13.9662 24.167 13.6817 23.8825 13.3309 23.8825Z" fill="black"/>
<path d="M7.10465 23.8825H3.81631C3.46522 23.8825 3.18103 24.167 3.18103 24.5178C3.18103 24.8685 3.46522 25.153 3.81631 25.153H7.10465C7.45574 25.153 7.73993 24.8685 7.73993 24.5178C7.73993 24.167 7.45574 23.8825 7.10465 23.8825Z" fill="black"/>
<path d="M21.0897 23.8825H15.4984C15.1473 23.8825 14.8631 24.167 14.8631 24.5178C14.8631 24.8685 15.1473 25.153 15.4984 25.153H21.0897C21.4404 25.153 21.725 24.8685 21.725 24.5178C21.725 24.167 21.4404 23.8825 21.0897 23.8825Z" fill="black"/>
<path d="M28.6511 20.6186H25.5936C25.2428 20.6186 24.9583 20.9031 24.9583 21.2539C24.9583 21.605 25.2428 21.8895 25.5936 21.8895H28.6511C29.0022 21.8895 29.2864 21.605 29.2864 21.2539C29.2864 20.9031 29.0022 20.6186 28.6511 20.6186Z" fill="black"/>
<path d="M33.9566 21.8895H38.2727C38.6238 21.8895 38.9083 21.605 38.9083 21.2539C38.9083 20.9031 38.6238 20.6186 38.2727 20.6186H33.9566C33.6055 20.6186 33.3213 20.9031 33.3213 21.2539C33.3213 21.605 33.6058 21.8895 33.9566 21.8895Z" fill="black"/>
<path d="M31.7983 20.6186H30.8093C30.4582 20.6186 30.1737 20.9031 30.1737 21.2539C30.1737 21.605 30.4582 21.8895 30.8093 21.8895H31.7983C32.1494 21.8895 32.4336 21.605 32.4336 21.2539C32.4336 20.9031 32.1494 20.6186 31.7983 20.6186Z" fill="black"/>
<path d="M25.5936 28.8133H28.6511C29.0022 28.8133 29.2864 28.5291 29.2864 28.178C29.2864 27.8273 29.0022 27.5428 28.6511 27.5428H25.5936C25.2428 27.5428 24.9583 27.8273 24.9583 28.178C24.9583 28.5291 25.2428 28.8133 25.5936 28.8133Z" fill="black"/>
<path d="M33.9566 28.8133H38.2727C38.6238 28.8133 38.9083 28.5291 38.9083 28.178C38.9083 27.8273 38.6238 27.5428 38.2727 27.5428H33.9566C33.6055 27.5428 33.3213 27.8273 33.3213 28.178C33.3213 28.5291 33.6058 28.8133 33.9566 28.8133Z" fill="black"/>
<path d="M30.8094 28.8133H31.7984C32.1495 28.8133 32.434 28.5291 32.434 28.178C32.434 27.8273 32.1495 27.5428 31.7984 27.5428H30.8094C30.4583 27.5428 30.1741 27.8273 30.1741 28.178C30.1741 28.5291 30.4583 28.8133 30.8094 28.8133Z" fill="black"/>
<path d="M28.6511 34.4669H25.5936C25.2428 34.4669 24.9583 34.7514 24.9583 35.1022C24.9583 35.4529 25.2428 35.7374 25.5936 35.7374H28.6511C29.0022 35.7374 29.2864 35.4529 29.2864 35.1022C29.2864 34.7514 29.0022 34.4669 28.6511 34.4669Z" fill="black"/>
<path d="M38.2727 34.4669H33.9566C33.6055 34.4669 33.3213 34.7514 33.3213 35.1022C33.3213 35.4529 33.6055 35.7374 33.9566 35.7374H38.2727C38.6238 35.7374 38.9083 35.4529 38.9083 35.1022C38.9083 34.7514 38.6238 34.4669 38.2727 34.4669Z" fill="black"/>
<path d="M31.7983 34.4669H30.8093C30.4582 34.4669 30.1737 34.7514 30.1737 35.1022C30.1737 35.4529 30.4582 35.7374 30.8093 35.7374H31.7983C32.1494 35.7374 32.4336 35.4529 32.4336 35.1022C32.4336 34.7514 32.1494 34.4669 31.7983 34.4669Z" fill="black"/>
<path d="M40.6174 0.0846863H2.79648C1.25466 0.0846863 0 1.33901 0 2.88117V33.6239C0 35.1657 1.25466 36.4201 2.79648 36.4201H5.18755C5.53831 36.4201 5.82283 36.1359 5.82283 35.7848C5.82283 35.434 5.53831 35.1495 5.18755 35.1495H2.79648C1.95519 35.1495 1.27089 34.4652 1.27089 33.6239V31.2136H24.4188V32.3087H23.915C23.2257 32.3087 22.6653 32.8691 22.6653 33.5583V35.1495H9.05056C8.6998 35.1495 8.41528 35.434 8.41528 35.7848C8.41528 36.1359 8.6998 36.4201 9.05056 36.4201H15.1596V38.6989H13.2411C11.9613 38.6989 10.9203 39.7402 10.9203 41.0197V42.3923C10.9203 42.9762 11.3953 43.4512 11.9792 43.4512H31.386C31.9699 43.4512 32.4449 42.9762 32.4449 42.3923V41.0197C32.4449 39.7402 31.4039 38.6989 30.124 38.6989H28.2056V37.8957H39.9516C40.6406 37.8957 41.201 37.3352 41.201 36.646V36.3469C42.4394 36.0594 43.3652 34.9481 43.3652 33.6239L43.4132 2.88084C43.4135 1.33901 42.1592 0.0846863 40.6174 0.0846863ZM23.9362 29.701V26.6554H39.9304V29.701H23.9362ZM25.6894 25.3845V24.0477H38.177V25.3845H25.6894ZM38.177 30.9715V32.3087H25.6894V30.9715H38.177ZM16.4301 36.4201H22.6653V36.6463C22.6653 37.3352 23.2257 37.8957 23.915 37.8957H26.9351V38.6989H16.4301V36.4201ZM30.1244 39.9697C30.7033 39.9697 31.1743 40.4407 31.1743 41.0197V42.1806H12.1908V41.0197C12.1908 40.4407 12.6622 39.9697 13.2411 39.9697H30.1244ZM39.9304 36.6248H23.9362V33.5795H39.9304V36.6248ZM42.0946 33.6239C42.0946 34.2393 41.7276 34.7696 41.2013 35.0104V33.558C41.2013 32.8691 40.6406 32.3087 39.9516 32.3087H39.4479V31.2136H42.0946V33.6239ZM42.0946 29.9431H41.1805C41.1934 29.8712 41.2013 26.6342 41.2013 26.6342C41.2013 25.9449 40.6406 25.3845 39.9516 25.3845H39.4479V24.0477H39.9516C40.6406 24.0477 41.2013 23.487 41.2013 22.798V19.7101C41.2013 19.0211 40.6406 18.4604 39.9516 18.4604H36.3629C36.0118 18.4604 35.7276 18.7449 35.7276 19.096C35.7276 19.4468 36.0118 19.7313 36.3629 19.7313H39.9304V22.7768H23.9362V19.7313H32.4095C32.7605 19.7313 33.0447 19.4468 33.0447 19.096C33.0447 18.7449 32.7605 18.4604 32.4095 18.4604H23.915C23.2257 18.4604 22.6653 19.0211 22.6653 19.7101V22.798C22.6653 23.487 23.2257 24.0477 23.915 24.0477H24.4188V25.3845H23.915C23.2257 25.3845 22.6653 25.9453 22.6653 26.6342C22.6653 26.6342 22.6733 29.8712 22.6862 29.9431H1.27089V8.72752H42.0946V29.9431ZM42.0946 7.45663H1.31759V2.88084C1.31759 2.03987 2.00189 1.35557 2.84318 1.35557H40.569C41.4103 1.35557 42.0946 2.03987 42.0946 2.88117V7.45663Z" fill="black"/>
<path d="M4.68572 2.52347C3.65762 2.52347 2.82129 3.3598 2.82129 4.3879C2.82129 5.416 3.65762 6.25266 4.68572 6.25266C5.71382 6.25266 6.55048 5.416 6.55048 4.3879C6.55048 3.3598 5.71382 2.52347 4.68572 2.52347ZM4.68572 4.98178C4.35848 4.98178 4.09185 4.71548 4.09185 4.3879C4.09185 4.06066 4.35848 3.79402 4.68572 3.79402C5.0133 3.79402 5.2796 4.06066 5.2796 4.3879C5.2796 4.71548 5.0133 4.98178 4.68572 4.98178Z" fill="black"/>
<path d="M9.43312 2.52347C8.40502 2.52347 7.56836 3.3598 7.56836 4.3879C7.56836 5.416 8.40502 6.25266 9.43312 6.25266C10.4612 6.25266 11.2976 5.416 11.2976 4.3879C11.2976 3.3598 10.4609 2.52347 9.43312 2.52347ZM9.43312 4.98178C9.10555 4.98178 8.83925 4.71548 8.83925 4.3879C8.83925 4.06066 9.10555 3.79402 9.43312 3.79402C9.76037 3.79402 10.027 4.06066 10.027 4.3879C10.027 4.71548 9.76037 4.98178 9.43312 4.98178Z" fill="black"/>
<path d="M14.1802 2.52347C13.1521 2.52347 12.3157 3.3598 12.3157 4.3879C12.3157 5.416 13.1521 6.25266 14.1802 6.25266C15.2083 6.25266 16.0449 5.416 16.0449 4.3879C16.0449 3.3598 15.2083 2.52347 14.1802 2.52347ZM14.1802 4.98178C13.8529 4.98178 13.5863 4.71548 13.5863 4.3879C13.5863 4.06066 13.8529 3.79402 14.1802 3.79402C14.5077 3.79402 14.774 4.06066 14.774 4.3879C14.774 4.71548 14.5077 4.98178 14.1802 4.98178Z" fill="black"/>
</g>
<defs>
<clipPath id="clip0_7_152">
<rect width="43.4134" height="43.4134" fill="white"/>
</clipPath>
</defs>
</svg>
