<svg width="58" height="40" viewBox="0 0 58 40" fill="none" xmlns="http://www.w3.org/2000/svg">
<g clip-path="url(#clip0_20_439)">
<path d="M0 25.4995C2.27582 23.6915 4.73742 23.0515 7.50262 24.3191C7.34402 23.3233 7.14238 22.3468 7.0427 21.3602C6.94188 20.3701 6.94188 19.3698 6.8977 18.3571C6.27125 18.2665 5.63121 18.2155 5.01156 18.0761C2.15461 17.4327 0.792969 15.4265 0.236758 12.7315C-0.0962891 11.1184 0.141602 10.8545 1.77965 10.8465C4.46215 10.8352 5.96879 11.584 7.72578 13.8553C7.84926 13.4758 7.93309 13.1359 8.06902 12.8188C8.46324 11.9023 8.89031 10.9995 9.27887 10.0808C9.37402 9.85532 9.40914 9.58685 9.40688 9.33989C9.39781 8.43704 9.24941 7.52173 9.3559 6.63587C9.67195 3.98509 11.4097 2.50224 13.7557 1.59486C15.3621 0.972942 15.8061 1.21876 15.9523 2.92591C16.0338 3.87407 16.0576 4.86075 15.89 5.79079C15.4663 8.15044 13.8158 9.47923 11.7054 10.2949C11.1061 10.5259 10.7685 10.8726 10.4944 11.4254C5.54852 21.4055 10.8512 33.5118 21.5461 36.6248C21.673 36.6622 21.801 36.695 21.9256 36.7392C22.4625 36.9295 22.6902 37.3407 22.5384 37.8403C22.4025 38.29 21.955 38.5563 21.4498 38.3648C20.0089 37.8188 18.5827 37.2286 17.1598 36.6373C16.8166 36.4945 16.5039 36.277 16.163 36.0856C15.9443 36.4062 15.7484 36.7041 15.5411 36.9941C13.9279 39.2439 11.7473 40.0572 9.0557 39.5157C8.4859 39.4013 7.92629 39.2167 7.38141 39.0116C6.64508 38.7352 6.46609 38.2934 6.80707 37.5877C7.97273 35.1771 9.63797 33.411 12.4949 33.2751C11.4097 31.8115 10.329 30.3547 9.25621 28.9081C8.44398 29.1528 7.56606 29.5051 6.65414 29.6727C4.53918 30.0624 2.80938 29.2298 1.34578 27.7651C0.857539 27.2768 0.447461 26.7116 0.00113281 26.1814C0 25.9526 0 25.726 0 25.4995ZM8.73172 37.6636C11.3349 38.4826 13.8396 37.4427 14.5351 35.2802C12.0021 34.4781 9.75578 35.3866 8.73172 37.6636ZM11.0914 8.69193C13.596 7.84911 15.0188 5.35353 14.2089 3.27708C11.8266 4.03154 10.5102 6.2915 11.0914 8.69193ZM1.98582 12.6239C2.3857 15.1422 4.43949 16.804 6.81387 16.531C6.66774 14.2042 4.26504 12.2603 1.98582 12.6239ZM8.34203 27.2972C6.70398 25.2729 4.45648 24.7201 2.1818 26.1406C3.79379 28.1774 6.1727 28.6374 8.34203 27.2972Z" fill="#404040"/>
<path d="M58.0001 26.1793C57.5934 26.6686 57.2116 27.1807 56.7755 27.6428C54.741 29.7952 52.2907 30.3072 49.5561 29.1721C49.2797 29.0577 49.0089 28.9286 48.7948 28.8334C47.696 30.3197 46.6142 31.7821 45.5244 33.2559C45.8337 33.3035 46.2177 33.3386 46.5892 33.4247C49.0191 33.9821 50.3558 35.7209 51.2972 37.854C51.5102 38.3377 51.2666 38.7603 50.7229 38.9755C47.2837 40.3315 44.2319 39.8489 42.1044 36.4765C42.0263 36.3519 41.9379 36.233 41.9164 36.2012C40.3871 36.8515 38.902 37.487 37.4112 38.1112C37.1518 38.2199 36.8742 38.2879 36.6012 38.3593C36.0348 38.5077 35.601 38.3049 35.4571 37.837C35.2996 37.325 35.5523 36.941 36.13 36.7201C37.3591 36.2488 38.6358 35.8625 39.7946 35.2531C48.5071 30.6697 51.8648 19.9295 47.372 11.1695C47.1726 10.7798 46.9189 10.5453 46.5009 10.372C45.7748 10.0707 45.0475 9.72515 44.4041 9.27882C42.442 7.91945 41.7918 5.94609 41.9572 3.64987C41.9991 3.06987 42.1192 2.49214 42.2494 1.92347C42.3559 1.46015 42.6935 1.22566 43.1727 1.2687C45.3443 1.45901 47.8942 3.62042 48.4822 5.75691C48.8096 6.94636 48.7722 8.14601 48.5887 9.35019C48.5637 9.50991 48.5366 9.70023 48.5966 9.83843C49.1698 11.1434 49.7623 12.4394 50.3536 13.7466C50.3445 13.7534 50.3966 13.733 50.4216 13.6945C52.012 11.2035 54.434 10.6982 57.138 10.8999C57.633 10.9373 57.9242 11.2805 57.8913 11.7937C57.8143 12.9967 57.4756 14.1307 56.8899 15.1819C56.6475 15.6158 56.1728 15.7291 55.7673 15.5093C55.3697 15.2952 55.2235 14.8534 55.4059 14.3901C55.6325 13.8157 55.8658 13.2437 56.1049 12.6489C53.4348 12.3725 51.5238 14.0842 51.1647 16.6512C51.8421 16.5254 52.4878 16.4348 53.1176 16.2796C53.8155 16.1074 54.2539 16.2558 54.4045 16.7916C54.5507 17.3059 54.2992 17.7273 53.6353 17.895C52.8174 18.1012 51.9803 18.2292 51.1058 18.4002C51.0627 19.3529 51.0616 20.3657 50.9608 21.3693C50.8611 22.356 50.6594 23.3325 50.502 24.3192C53.2672 23.055 55.7288 23.6893 58.0046 25.5007C58.0001 25.7261 58.0001 25.9527 58.0001 26.1793ZM46.9359 8.66823C47.3947 6.07636 45.9481 3.67026 43.7493 3.31343C43.1183 5.57226 44.5819 8.05878 46.9359 8.66823ZM49.6909 27.303C51.688 28.659 54.3898 28.1322 55.8205 26.1056C53.7747 24.7644 50.98 25.3104 49.6909 27.303ZM49.2412 37.6433C48.0426 35.1794 45.8529 34.502 43.4502 35.3052C44.3757 37.5266 46.9325 38.5598 49.2412 37.6433Z" fill="#404040"/>
<path d="M24.4904 24.719C24.0032 24.2636 23.4833 23.8965 23.1197 23.4106C22.5147 22.6017 22.0174 21.7113 21.4555 20.8685C21.3366 20.6907 21.1497 20.4709 20.9639 20.4369C19.2148 20.1175 18.0163 18.8736 17.9098 17.2152C17.8045 15.5817 18.8161 14.1668 20.4666 13.6412C20.5561 13.6129 20.6467 13.5891 20.7294 13.5653C20.9209 13.0567 20.7475 12.795 20.2616 12.5526C18.9067 11.8763 17.8192 10.8488 16.8926 9.66728C16.7215 9.44978 16.6592 8.99213 16.7725 8.75197C16.8858 8.51181 17.2641 8.32603 17.5598 8.25806C18.1874 8.11533 18.8365 8.06435 19.4777 7.97713C19.4777 7.92388 19.4788 7.87064 19.4788 7.8174C19.165 7.56478 18.8286 7.33709 18.542 7.05615C17.8872 6.41271 17.5462 5.60275 17.3933 4.7067C17.2551 3.89674 17.6153 3.51951 18.4309 3.49799C19.3666 3.47306 20.3103 3.43002 21.2313 3.27595C21.7535 3.18873 22.2383 2.87154 22.7334 2.64271C23.2669 2.39576 23.7257 2.48752 23.9715 2.91119C24.2309 3.35752 24.0712 3.83783 23.5456 4.14029C22.2814 4.86756 20.9254 5.2765 19.3916 5.25951C19.7076 6.04908 20.2989 6.33115 21.0149 6.43537C21.1825 6.46029 21.3547 6.44217 21.5235 6.46369C22.2055 6.55318 22.5011 7.21134 22.1126 7.8208C21.5983 8.62736 20.8529 9.15978 19.9784 9.52228C19.7892 9.60045 19.5943 9.66615 19.3972 9.73865C20.24 11.0199 21.8045 11.5625 23.5195 11.1773C25.221 10.7956 26.6846 9.98673 27.899 8.72931C28.6466 7.95447 29.1711 7.99978 29.7217 8.94002C30.0321 9.47017 30.2484 10.0547 30.5384 10.6823C31.6611 10.347 32.6205 9.71146 33.3354 8.71119C33.4226 8.58884 33.4928 8.45404 33.5778 8.32943C34.0218 7.67806 34.663 7.69732 35.1343 8.36228C35.5919 9.00799 36.0564 9.64916 36.531 10.2824C36.7191 10.5339 36.9456 10.757 37.1937 11.038C38.1555 9.66388 38.3922 8.23541 38.2427 6.73783C38.0535 4.83357 36.9536 3.83896 35.0232 3.80045C34.5407 3.79138 34.1736 3.66224 33.8009 3.34732C31.8163 1.66736 29.5982 1.24482 27.1525 2.20884C26.9418 2.29154 26.7379 2.39463 26.5226 2.46146C26.0298 2.61326 25.5733 2.39463 25.4147 1.9483C25.2652 1.52689 25.4544 1.09756 25.9166 0.88572C28.9604 -0.509905 31.8412 -0.275413 34.5531 1.74213C34.8091 1.93244 35.1445 2.08197 35.4582 2.11822C38.2155 2.43427 39.7856 4.03947 39.9566 6.81939C40.0801 8.81994 39.6666 10.6698 38.382 12.2897C38.1509 12.5809 38.1963 13.0895 38.1113 13.5143C38.4047 13.6083 38.5995 13.665 38.7898 13.7329C40.2342 14.254 41.2095 15.7471 41.0702 17.222C40.9116 18.9008 39.7357 20.1639 38.126 20.4233C37.9255 20.4562 37.6502 20.6057 37.5777 20.7745C36.9366 22.2642 35.9975 23.5136 34.7015 24.4924C34.6347 24.5434 34.5848 24.617 34.4852 24.7258C34.8816 24.8413 35.2215 24.9297 35.5557 25.0384C38.1204 25.8778 40.0881 27.4626 41.4588 29.786C41.8382 30.4295 41.7589 30.809 41.1484 31.2236C35.7448 34.895 29.8984 35.8183 23.6181 34.042C23.5637 34.0261 23.5082 34.016 23.455 33.9978C22.9169 33.8132 22.6563 33.3861 22.7968 32.9194C22.9384 32.447 23.3836 32.2306 23.9296 32.37C24.6354 32.5501 25.34 32.7325 26.0978 32.9285C26.4003 30.6685 27.1966 28.5252 26.1839 26.3219C24.1097 26.0058 20.3941 28.0653 19.3417 30.2006C19.8028 30.4725 20.2695 30.7467 20.7351 31.0231C21.2834 31.3482 21.4499 31.7798 21.2052 32.2374C20.9571 32.703 20.453 32.8197 19.8843 32.4912C19.1831 32.0856 18.4921 31.6597 17.8181 31.21C17.2279 30.8158 17.1463 30.4215 17.5032 29.8132C19.0132 27.2451 21.2267 25.6048 24.0973 24.8379C24.2219 24.8028 24.3397 24.7643 24.4904 24.719ZM22.5238 13.085C22.5238 14.7581 22.4592 16.4007 22.5374 18.0376C22.7028 21.5165 25.5971 24.3179 29.1405 24.5139C32.6239 24.7065 35.8661 22.2109 36.3373 18.7876C36.565 17.1359 36.4177 15.4356 36.497 13.7601C36.5344 12.9796 36.3939 12.3826 35.7233 11.8672C35.1728 11.4435 34.7684 10.8273 34.3005 10.2971C32.7927 11.6814 31.4152 12.403 29.9403 12.5922C29.0805 12.7021 28.7452 12.3928 28.7577 11.5421C28.7622 11.2011 28.6988 10.8601 28.6625 10.4761C25.1734 12.5492 25.1734 12.5492 22.5238 13.085ZM39.7029 30.1474C37.955 27.7334 35.6825 26.4374 32.8165 26.2528C31.8072 28.5127 32.5662 30.6696 32.8868 32.8899C35.3552 32.4413 37.5789 31.534 39.7029 30.1474ZM31.1853 33.138C31.0879 32.5082 31.0006 31.9554 30.9168 31.4026C30.6381 29.5538 30.6381 29.5538 28.769 29.6422C28.7123 29.6444 28.6432 29.6252 28.6025 29.6512C28.5039 29.7135 28.3532 29.7849 28.3374 29.8733C28.1482 30.9404 27.9794 32.0109 27.797 33.138C28.9616 33.138 30.04 33.138 31.1853 33.138ZM28.3476 27.9407C29.0431 27.9407 29.6798 27.9509 30.3153 27.9327C30.4388 27.9294 30.6427 27.8387 30.6653 27.7515C30.7877 27.2712 30.8647 26.7784 30.9576 26.2845C29.9358 26.2845 28.9956 26.2845 28.0168 26.2845C28.1312 26.8566 28.2332 27.3686 28.3476 27.9407ZM20.7702 18.5757C20.7702 17.5267 20.7702 16.471 20.7702 15.3903C19.9931 15.6938 19.5694 16.3384 19.6091 17.0747C19.6487 17.8145 20.1154 18.4058 20.7702 18.5757ZM38.1883 15.3857C38.1883 16.48 38.1883 17.5233 38.1883 18.5723C38.8884 18.3956 39.3427 17.802 39.3755 17.0487C39.4061 16.3112 38.9711 15.6689 38.1883 15.3857Z" fill="#404040"/>
<path d="M26.3527 18.7841C26.62 18.5202 26.8273 18.1498 27.0981 18.0954C27.3767 18.0388 27.8672 18.1985 28.0043 18.4228C28.5492 19.3154 29.3625 19.414 30.2201 19.2271C30.6098 19.1421 30.987 18.7943 31.2725 18.4772C31.6384 18.0693 32.0269 17.8994 32.4449 18.1339C32.8629 18.3673 32.9932 18.8193 32.7678 19.3064C32.6896 19.4752 32.5899 19.6394 32.4744 19.7867C31.1852 21.4304 28.1595 21.427 26.8873 19.772C26.6891 19.5125 26.5702 19.192 26.3527 18.7841Z" fill="#404040"/>
<path d="M26.5238 15.2863C26.5238 15.5876 26.5419 15.8912 26.5192 16.1914C26.483 16.6819 26.1783 16.9538 25.7104 16.9742C25.2618 16.9934 24.9106 16.7329 24.8733 16.2911C24.8155 15.6001 24.8155 14.8955 24.8755 14.2044C24.914 13.7626 25.2731 13.5078 25.7206 13.5327C26.1873 13.5587 26.4909 13.8306 26.5204 14.3245C26.5385 14.6451 26.5238 14.9657 26.5238 15.2863Z" fill="#404040"/>
<path d="M34.1249 15.2692C34.1249 15.5898 34.1487 15.9115 34.1193 16.2298C34.0773 16.6909 33.7749 16.9514 33.3353 16.9752C32.8913 16.999 32.5254 16.76 32.4914 16.3091C32.437 15.6 32.4416 14.8795 32.4982 14.1692C32.5322 13.7421 32.8936 13.5212 33.3093 13.5337C33.7488 13.5462 34.066 13.7897 34.1136 14.253C34.1487 14.5884 34.1204 14.9305 34.1204 15.2692C34.1227 15.2692 34.1238 15.2692 34.1249 15.2692Z" fill="#404040"/>
</g>
<defs>
<clipPath id="clip0_20_439">
<rect width="58" height="39.6779" fill="white"/>
</clipPath>
</defs>
</svg>
