<?xml version="1.0" encoding="utf-8"?>
<!-- Generator: Adobe Illustrator 24.1.2, SVG Export Plug-In . SVG Version: 6.00 Build 0)  -->
<svg version="1.1" id="Camada_1" xmlns="http://www.w3.org/2000/svg" xmlns:xlink="http://www.w3.org/1999/xlink" x="0px" y="0px"
	 viewBox="0 0 1000 1000" style="enable-background:new 0 0 1000 1000;" xml:space="preserve">
<path d="M280.9,389.2c0-2.9,0-5,0-7.2c0-82.3,0-164.7,0-247c0-12,5.3-20.6,15.6-24.2c3-1.1,6.5-1.1,9.8-1.1c82-0.1,164,0,246,0
	c129.3,0,258.7,0.2,388-0.2c17.5-0.1,26.5,12.5,26.5,26.5c-0.3,243.2-0.2,486.3-0.2,729.5c0,12.5-4.8,20.6-15.3,24.3
	c-3.8,1.3-8.2,1.4-12.3,1.4c-137.7,0.1-275.3,0.1-413,0.1c-72.8,0-145.7,0-218.5-0.1c-3.8,0-7.8-0.2-11.3-1.4
	c-10.3-3.7-15.4-12-15.4-23.8c0-64,0-128,0-192c0-1.5-0.1-3,0-4.5c0.4-3.8-0.8-5.6-4.9-5.2c-2.6,0.3-5.3,0.1-8,0.1
	c-69.8,0-139.7-0.2-209.5,0.2c-13.3,0.1-26.1-10-25.4-25.1c0.9-18.6,0.1-37.3,0.3-56c0-4.4,1.1-8.8,1.7-13.2c0.1-1,0.3-1.9,0.2-2.9
	c-0.6-5.9-1.8-11.8-1.9-17.7c-0.3-16.7-0.2-33.3,0-50c0-4.3,1.1-8.5,1.6-12.7c0.1-1.1,0.3-2.2,0.2-3.3c-0.6-5.4-1.7-10.8-1.8-16.2
	c-0.2-17.7,0.5-35.4-0.3-53c-0.7-15,12.2-25.2,25.4-25.1c71.5,0.3,143,0.2,214.5,0.2C275.3,389.2,277.7,389.2,280.9,389.2z
	 M936.8,138.4c-2.4,0-4.2,0-6,0c-204.6,0-409.3,0-613.9-0.1c-5,0-6.4,1.2-6.4,6.3c0.1,237.1,0.1,474.3,0.1,711.4c0,1.8,0,3.6,0,5.6
	c209.1,0,417.5,0,626.2,0C936.8,620.7,936.8,379.9,936.8,138.4z M62.2,418.8c0,14.7,0.2,28.8-0.1,43c-0.1,4.7,1.5,5.8,6,5.8
	c68.8-0.1,137.5-0.1,206.3-0.1c1.8,0,3.5-0.2,5.6-0.3c0-16.4,0-32.2,0-48.4C207.4,418.8,135.2,418.8,62.2,418.8z M279.8,634.5
	c0.2-1.1,0.4-1.8,0.4-2.4c0-14.2,0-28.3,0.1-42.5c0-3.7-2-3.8-4.8-3.8c-69.5,0-139,0.1-208.5,0c-3.7,0-5,1-4.9,4.8
	c0.2,13.2,0.1,26.3,0.1,39.5c0,1.4,0.3,2.9,0.4,4.5C135.2,634.5,207.3,634.5,279.8,634.5z M171.2,502.5c-34.5,0-69,0.1-103.4-0.1
	c-4.3,0-5.8,1.1-5.7,5.6c0.3,12.5,0.2,25,0,37.5c0,3.7,0.8,5.3,4.9,5.3c69.5-0.1,138.9-0.1,208.4,0c4.2,0,5-1.7,4.9-5.3
	c-0.2-12.3-0.3-24.7,0.1-37c0.1-4.9-1.5-6.1-6.2-6.1C239.9,502.6,205.6,502.5,171.2,502.5z"/>
<path d="M863.2,354.6c0,97.2,0,193.8,0,291.1c5.1,0,10,0.3,15-0.1c13.1-0.8,25.2,10,24.7,24.7c-0.7,19-0.6,38,0,57
	c0.4,11.9-8.9,24-23.9,24.1c-4.2,0-8.3,0.1-12.5,0c-2.5-0.1-3.7,0.9-3.6,3.5c0.1,3.7,0,7.3,0,11c-0.2,15-9.8,24.7-24.8,24.8
	c-30.2,0.1-60.3,0-90.5,0c-111.5,0-223,0-334.5,0c-18.4,0-27.4-8.9-27.4-27.2c0-175.8,0-351.7,0-527.5c0-12.6,5.1-20.9,15.6-24.7
	c2.6-0.9,5.5-1.1,8.3-1.1c143.2-0.1,286.3,0,429.5-0.2c11.2,0,23.4,8.8,23.7,23.2c0.1,5.1,0,10.3,0,16.2c5.7,0,10.8,0.3,15.9-0.1
	c13.6-1,24.6,11.3,24.1,24.1c-0.7,19.3-0.1,38.7-0.2,58c0,13.9-9.3,23-23.3,23.1C874.2,354.6,869,354.6,863.2,354.6z M415.6,760.9
	c139.4,0,278.3,0,417.2,0c0-174.1,0-347.8,0-521.7c-139.3,0-278.1,0-417.2,0C415.6,413.3,415.6,586.9,415.6,760.9z M873.7,277.3
	c-3.5,2.6-8.6-1.9-8.6,4.8c0,13.3,0,26.6,0,39.9c0,3.3,1.7,3.8,4.4,3.8c2.9,0,4.3-0.8,4.2-3.9c-0.1-7,0-14,0-20.9
	C873.7,293.6,873.7,286.3,873.7,277.3z M873.7,698.5c0-6.5-0.1-12.9,0-19.4c0.1-3-0.9-4.2-4-4.1c-2.9,0-4.7,0.5-4.7,4.1
	c0.1,12.9,0.1,25.9,0,38.8c0,3.5,1.6,4,4.6,4c2.9,0,4.2-0.8,4.1-3.9C873.6,711.5,873.7,705,873.7,698.5z"/>
<path d="M623.3,665.5c-45.7,0-91.3,0-137,0c-10.7,0-20.8-1.9-29.5-8.8c-17.8-14.2-23.1-40.6-11.6-60.9
	c22.1-38.7,44.5-77.3,66.8-115.9c23.2-40.2,47.2-80,69.3-120.8c16.2-30,56.4-30.5,74.1-12.9c7,7,12.1,16.2,17.2,24.9
	c43.5,75.1,86.9,150.4,130.3,225.6c14.7,25.5,3.6,56.9-24,66.2c-6,2-12.8,2.5-19.2,2.6C714.2,665.6,668.8,665.5,623.3,665.5z
	 M623.6,636c46.2,0,92.3,0,138.5,0c15.8,0,22.8-12.2,14.9-25.8c-7.7-13.3-15.3-26.5-23-39.8C716,504.7,678.1,439,640.3,373.2
	c-4-7-9.8-9.5-17.3-9.5c-7.1,0-12,2.9-15.7,9.4c-33.7,58.8-67.6,117.4-101.5,176c-11.6,20.2-23.4,40.3-34.8,60.6
	c-7.3,13,0.5,26.3,15.2,26.3C531.9,636,577.8,636,623.6,636z"/>
<path d="M594.1,555.7c-10.2,0-19.7,0.1-29.2,0c-13.9-0.1-21-10.1-16.4-23.2c0.9-2.5,2-4.9,3.3-7.2c14.6-25.4,29.2-50.7,43.9-76.1
	c6.2-10.7,12.3-21.3,18.6-31.9c3-4.9,7.2-8.3,13.3-8.4c8-0.2,14.3,4.7,15.3,12.6c0.7,5.4,0.6,11,0.6,16.4c0.1,13.5,0.1,27,0,40.5
	c0,3.9,1.3,5.3,5.2,5.2c8.3-0.2,16.7-0.2,25,0c13,0.2,20.8,10.9,15.7,22.9c-4.1,9.7-9.9,18.8-15.2,28
	c-15.8,27.6-31.7,55.1-47.6,82.6c-3.1,5.4-6.3,10.9-13.1,12.1c-9.7,1.7-17.9-4.5-19.1-14.4c-0.4-3.5-0.3-7-0.3-10.5
	c0-14.2,0-28.3,0-42.5C594.1,559.9,594.1,558,594.1,555.7z M588,524.6c6.9,0,12.7-0.1,18.4,0c12,0.1,18.5,6.6,18.6,18.6
	c0,3.9,0,7.8,0,11.6c0.5,0.1,1,0.2,1.5,0.3c7.6-13.1,15.1-26.2,23.4-40.6c-6.8,0-12.4,0.1-18,0c-13.6-0.4-19.3-6.2-19.4-19.8
	c0-3.2,0-6.4,0-9.6c-0.5-0.1-1.1-0.2-1.6-0.3C603.5,497.8,596,510.8,588,524.6z"/>
</svg>
