<?xml version="1.0" encoding="utf-8"?>
<!-- Generator: Adobe Illustrator 24.1.2, SVG Export Plug-In . SVG Version: 6.00 Build 0)  -->
<svg version="1.1" id="Camada_1" xmlns="http://www.w3.org/2000/svg" xmlns:xlink="http://www.w3.org/1999/xlink" x="0px" y="0px"
	 viewBox="0 0 1000 1000" style="enable-background:new 0 0 1000 1000;" xml:space="preserve">
<path d="M207.6,668.2c11.8-3.2,23.2-6.2,35.1-9.4c0,74.8,0,149.1,0,223.6c214.9,0,429.5,0,644.5,0c0-254.7,0-509.4,0-764.4
	c-214.6,0-429.4,0-644.4,0c0,47.7,0,95.3,0,143.3c-11.7,2.2-23.2,4.4-35.2,6.7c0-2.4,0-4.2,0-6c0-49.8,0-99.7,0-149.5
	c0-18.5,11.4-29.8,30-29.8c218.3,0,436.6,0,655,0c18.8,0,30,11.3,30,30.2c0,258.2,0,516.3,0,774.5c0,19.2-11.1,30.3-30.4,30.3
	c-218,0-436,0-654,0c-19.6,0-30.6-11-30.6-30.7c0-71,0-142,0-213C207.6,672.2,207.6,670.4,207.6,668.2z"/>
<path d="M217.1,451.9c-15.6-4.2-30.9-8.4-47-12.7c2.6-5.3,4.9-10.1,7.3-15c9.6-19.2,19.1-38.4,28.9-57.5c1.7-3.4,1.6-6,0.3-9.4
	c-9.7-23.8-19.2-47.6-28.8-71.4c-0.4-1.1-0.8-2.1-1.5-3.9c8-1.5,15.6-3,23.2-4.5c18.6-3.5,37.1-7.2,55.7-10.5c3.3-0.6,5.2-2.1,6.8-5
	c12.1-22.4,24.4-44.7,36.6-67c0.3-0.6,0.7-1.1,1.3-2.2c1.3,0.9,2.5,1.6,3.6,2.5c19.6,16.5,39.3,32.9,58.8,49.6
	c3.1,2.7,6,3.2,9.9,2.5c25-4.9,50-9.7,75.1-14.4c0.8-0.2,1.6-0.1,3.2-0.3c0,1.8,0,3.3,0,4.9c-0.7,19-1.3,38-2.1,56.9
	c-0.1,1.7-0.9,4.2-2.3,5c-10.8,6.5-21.8,12.7-32.8,19c0-14.4,0-28.4,0-43c-1.5,0.2-3.4,0.3-5.3,0.6c-15.7,3-31.4,6.1-47.1,8.8
	c-2.3,0.4-5.6-0.5-7.5-2.1c-13.2-10.7-26.1-21.8-39.1-32.7c-1.2-1-2.6-1.9-4.3-3.2c-7.3,13.3-15,26-21.3,39.3
	c-4.1,8.6-9.5,12.6-19,13.8c-13.9,1.7-27.5,5-41.3,7.6c-1.1,0.2-2.2,0.6-3.9,1c3.5,8.9,6.9,17.5,10.4,26.1
	c3.1,7.7,5.9,15.6,9.5,23.1c2.1,4.5,1.5,8-0.7,12.1c-7.9,15.2-15.5,30.6-23.4,46.4c9.2,2.5,17.9,4.9,26.7,7.2
	c8.2,2.2,16.4,4.6,24.6,6.5c3.3,0.8,5.1,2.5,6.4,5.5c6.7,14.5,13.6,28.9,20.5,43.4c0.7,1.5,1.5,2.9,2.5,4.9
	c8.6-6.3,17-12.3,25.3-18.3c5.7-4.1,11.4-8.1,16.9-12.4c2.6-2.1,5-2.5,8.2-1.6c16.5,4.6,33.1,8.9,49.7,13.3c1.6,0.4,3.1,0.7,6.2,1.3
	c0-9.1-0.1-17.4,0-25.7c0.2-9.8,0.4-19.7,1.1-29.5c0.1-2.2,1.6-5,3.4-6.4c13.2-10.2,26.6-20.1,39.9-30.1c1.3-1,2.5-2.1,4.1-3.4
	c-4.7-3.7-9.1-7.2-14-11.2c8-4.7,15.5-9.1,23.1-13.4c9.7-5.5,9.7-5.4,18.5,1.4c10,7.8,19.9,15.5,30.5,23.7
	c-9.1,6.8-17.7,13.3-26.3,19.7c-13.7,10.3-27.4,20.6-41.3,30.7c-2.9,2.1-3.8,4.5-3.9,7.9c-0.6,25.5-1.4,51-2.2,76.4
	c0,1.4-0.3,2.9-0.5,4.9c-17.9-4.8-35.4-9.4-53.5-14.2c-0.5,3.1-1.1,5.8-1.5,8.5c-4.9,33.5-8.9,67-9.1,100.9
	c-0.3,42.7,7.4,84.1,20.1,124.8c1.1,3.5,2.1,7,3.1,10.5c2.6,8.9,0.1,16.6-6.7,21.2c-6.6,4.4-16.1,3.9-22.6-2.2
	c-8.9-8.2-17.3-17-25.9-25.6c-28.5-28.5-57-57-85.4-85.5c-2.2-2.2-4.2-2.5-7.1-1.7c-48.8,13.2-97.7,26.2-146.5,39.4
	c-6.7,1.8-13.2,2.3-19.3-1.3c-9.9-5.7-11.2-19.3-2.6-27.9c12.8-12.8,26.1-25.2,38.6-38.4c29.7-31.2,51.8-67.5,69.8-106.4
	c8.8-19,16.5-38.6,24.6-57.9C216.4,454.7,216.6,453.6,217.1,451.9z M251.4,461c-24.6,64.3-52.3,125.1-97.5,176.5
	c2.2,0,3.9-0.4,5.7-0.8c30.2-8.1,60.5-16.3,90.7-24.3c10.5-2.8,19.7-0.3,27.4,7.4c19.8,19.8,39.5,39.6,59.3,59.4
	c3.6,3.6,7.2,7.1,10.9,10.6c-12.7-66.6-6.5-132.5,4-199.5c-22.1,16.1-43.1,31.3-64.5,46.9C275.4,511.9,263.7,487.1,251.4,461z"/>
<path d="M803.6,447.5c0,2.2,0,4.4,0,6.5c0,26.2,0,52.3,0,78.5c0,16.2-11.9,28.1-28.1,28.1c-54.8,0-109.6,0-164.5,0
	c-16.6,0-28.4-11.8-28.4-28.3c-0.1-26.3,0-52.7,0-79c0-1.8,0-3.6,0-5.9c-3.2-0.3-6.1-0.5-9-0.8c-7.8-0.7-15-3.2-21.3-7.8
	c-15.1-11.2-16.1-29.7-2.3-42.5c10.4-9.6,20.9-19.1,31.4-28.6c24.4-22.2,48.9-44.3,73.2-66.7c6.9-6.4,14.7-10.2,23.8-11.6
	c12.2-1.9,24.3-1.7,35.8,3.3c3.9,1.7,7.7,4,10.9,6.9c35.2,31.8,70.3,63.9,105.5,95.7c8.2,7.4,13.5,15.8,10.9,27.2
	c-2.8,12.1-11.7,18.6-23,22C813.8,445.9,809,446.5,803.6,447.5z M617.9,447.5c0,26.2,0,52.1,0,77.9c50.4,0,100.4,0,150.4,0
	c0-26.1,0-51.9,0-77.9C718.2,447.5,668.3,447.5,617.9,447.5z M795.1,411.8c0.2-0.4,0.4-0.8,0.6-1.1c-0.8-0.6-1.7-1.1-2.4-1.8
	c-30.1-27.3-60.1-54.7-90.2-82c-5.6-5.1-19.3-4.9-25,0.3c-22.6,20.5-45.1,41-67.7,61.5c-8.2,7.5-16.4,14.9-25.4,23.1
	C655.8,411.8,725.5,411.8,795.1,411.8z"/>
<path d="M573.6,166.7c48,0,96,0,144,0c10.9,0,18.2,6,19.2,15.6c1,10-5.9,18.4-15.9,19.3c-1.7,0.1-3.3,0.1-5,0.1
	c-95.2,0-190.3,0-285.5,0c-1.7,0-3.3,0-5-0.1c-9.3-0.8-16-8.1-16.1-17.2c-0.1-9.4,6.8-16.8,16.3-17.6c1.8-0.1,3.7-0.1,5.5-0.1
	C478.6,166.7,526.1,166.7,573.6,166.7z"/>
<path d="M334.9,372.7c14-8.1,27.6-15.8,41.1-23.7c33-19.1,66.1-38.1,99.1-57.2c10.4-6,20.9-4.1,26.2,4.8c5.4,9.1,1.9,19.4-8.7,25.5
	c-48,27.7-96.1,55.5-144.1,83.2c-3.9,2.2-7.7,4.6-11.7,6.7c-8.2,4.3-18.1,2-22.8-5.9c-11.5-19.3-22.8-38.8-33.8-58.4
	c-4.9-8.7-1.5-19.2,6.9-23.7c8.3-4.5,18.3-1.9,23.4,6.7c7,11.7,13.7,23.6,20.5,35.4C332.1,368.1,333.3,370.1,334.9,372.7z"/>
<path d="M617.6,755.8c-58.2,0-116.3,0-174.5,0c-11.5,0-19.2-6.8-19.4-17c-0.2-9.4,6.5-17,16-17.9c1.7-0.2,3.3-0.1,5-0.1
	c115.3,0,230.7,0,346,0c1.8,0,3.7-0.1,5.5,0.2c8.9,1.2,15.4,8.7,15.2,17.6c-0.2,8.9-6.8,16.2-15.8,17.1c-2,0.2-4,0.1-6,0.1
	C732.2,755.8,674.9,755.8,617.6,755.8z"/>
<path d="M628.9,688.8c-54,0-108,0-162,0c-11.2,0-18.9-6.7-19.3-16.6c-0.4-9.6,6.4-17.4,16.1-18.2c1.8-0.2,3.7-0.1,5.5-0.1
	c106.8,0,213.7,0,320.5,0c1.8,0,3.7-0.1,5.5,0.1c9.2,0.8,16.1,8.2,16.1,17.3c0.1,9.1-6.7,16.6-15.9,17.5c-2,0.2-4,0.1-6,0.1
	C735.9,688.8,682.4,688.8,628.9,688.8z"/>
<path d="M649,779.8c47.7,0,95.3,0,143,0c10.9,0,18.2,6,19.2,15.6c1,10-5.9,18.4-15.9,19.3c-1.7,0.2-3.3,0.1-5,0.1
	c-94.2,0-188.3,0-282.5,0c-1.8,0-3.7,0.1-5.5-0.1c-9-1-15.6-8.2-15.6-17.2c-0.1-9.2,6.6-16.6,15.8-17.5c2-0.2,4-0.1,6-0.1
	C555.3,779.8,602.2,779.8,649,779.8z"/>
<path d="M662.5,585.8c43.2,0,86.3,0,129.5,0c10.9,0,18.2,6,19.2,15.6c1,10-5.9,18.4-15.9,19.3c-1.7,0.2-3.3,0.1-5,0.1
	c-85.2,0-170.3,0-255.5,0c-1.8,0-3.7,0.1-5.5-0.1c-9-1-15.5-8.2-15.6-17.2c-0.1-9.2,6.6-16.6,15.8-17.5c2-0.2,4-0.1,6-0.1
	C577.8,585.8,620.2,585.8,662.5,585.8z"/>
</svg>
