<?xml version="1.0" encoding="utf-8"?>
<!-- Generator: Adobe Illustrator 24.1.2, SVG Export Plug-In . SVG Version: 6.00 Build 0)  -->
<svg version="1.1" id="Camada_1" xmlns="http://www.w3.org/2000/svg" xmlns:xlink="http://www.w3.org/1999/xlink" x="0px" y="0px"
	 viewBox="0 0 1000 1000" style="enable-background:new 0 0 1000 1000;" xml:space="preserve">
<path d="M500.38,658.62c-133.49,0-266.97,0-400.46,0C79.38,658.62,68,647.3,68,626.87c0-169.48,0-338.97,0-508.45
	c0-20.35,11.49-31.79,31.92-31.79c267.14,0,534.28,0,801.42,0c20.1,0,31.66,11.51,31.66,31.54c0,169.65,0,339.3,0,508.95
	c0,20.09-11.47,31.5-31.66,31.5C767.69,658.62,634.03,658.62,500.38,658.62z M145.73,621.25c250.35,0,500.19,0,749.86,0
	c0-166.07,0-331.77,0-497.46c-250.52,0-500.64,0-751.36,0c3.9,13.04,7.63,25.77,11.63,38.43c0.38,1.19,2.31,2.11,3.71,2.71
	c7.49,3.2,14.98,6.43,22.61,9.26c1.84,0.68,4.52,0.57,6.28-0.28c6.29-3.04,12.34-6.56,18.49-9.88c13.88-7.5,27.76-14.99,41.07-22.19
	c23.44,23.45,46.51,46.52,69.83,69.83c-4.22,7.82-8.68,16.07-13.47,24.94c13.83,0,26.65-0.12,39.46,0.08
	c3.4,0.05,5.07-0.99,6.75-4.09c8.8-16.32,22.33-25.8,41.19-26.31c17.99-0.49,31.91,7.46,41.47,22.43
	c14.38,22.51,6.7,52.39-16.51,65.94c-23.19,13.54-53.04,5.01-65.63-19c-1.67-3.18-3.41-4.15-6.82-4.12c-18,0.16-36,0.07-53.99,0.09
	c-1.75,0-3.49,0.16-6.03,0.29c0.85,2.37,1.37,4.04,2.04,5.65c2.96,7.05,6.17,14.01,8.86,21.16c1.18,3.14,2.82,4.77,6.06,5.7
	c19.82,5.72,39.53,11.81,59.39,17.39c4.71,1.32,6.24,3.38,6.01,8.2c-0.41,8.73-0.12,17.5-0.12,26.59c18.91,0,37.05,0.05,55.18-0.13
	c1.11-0.01,2.61-1.68,3.25-2.92c15.11-29.57,50.22-36.4,75.36-14.6c20.26,17.57,20.05,52.36-0.4,69.68
	c-24.96,21.13-58.83,14.69-74.62-14.05c-0.79-1.44-3.16-2.79-4.83-2.84c-9.49-0.27-18.99-0.13-28.49-0.13c-8.29,0-16.59,0-25.44,0
	c0,8.62-0.22,16.74,0.09,24.85c0.16,4.14-1.02,6.06-5.24,7.24c-18.42,5.17-36.64,11.02-55.09,16.06
	c-5.96,1.63-9.07,4.43-10.83,10.41c-2.22,7.55-5.76,14.71-8.9,22.44c1.51,0,2.5,0,3.49,0c19.33,0,38.66,0.07,57.99-0.14
	c1.38-0.02,3.24-1.8,4.03-3.23c8.99-16.45,22.35-26.06,41.41-26.99c19.04-0.93,37.53,10.82,45.22,28.75
	c7.62,17.77,3.28,39.52-10.5,52.57c-23.55,22.31-60.28,16.27-75.38-12.5c-1.35-2.58-2.76-3.58-5.68-3.52
	c-9.5,0.19-19,0.07-28.5,0.07c-4.55,0-9.1,0-14.4,0c5.65,10.49,10.82,20.09,15.55,28.88c-23.56,23.56-46.62,46.62-69.91,69.91
	c-19.1-10.35-38.73-20.92-58.28-31.64c-2.72-1.49-4.84-1.62-7.77-0.25c-7.83,3.65-15.93,6.71-23.86,10.15
	c-1.53,0.66-3.6,1.7-4.02,3.02C152.37,598.72,149.14,609.88,145.73,621.25z M243.99,563.39c11.18-11.16,21.9-21.86,32.85-32.79
	c-9.51-17.56-19.1-35.44-28.91-53.2c-1.57-2.84-1.58-4.91,0.05-7.69c9.33-15.88,16.2-32.81,20.51-50.71
	c0.86-3.56,2.54-5.22,5.98-6.21c17.59-5.04,35.09-10.36,52.68-15.42c3.22-0.93,4.5-2.32,4.43-5.85
	c-0.24-12.49-0.19-24.99-0.02-37.49c0.04-3.25-1.06-4.6-4.18-5.5c-18.22-5.24-36.37-10.75-54.56-16.07
	c-2.81-0.82-4.33-2.16-5.15-5.19c-4.68-17.45-11.6-34-21.02-49.43c-1.82-2.99-1.68-5.2-0.04-8.18c9.56-17.33,18.9-34.78,28.06-51.7
	c-11.03-11.12-21.79-21.97-32.75-33.01c-17.46,9.45-35.19,18.98-52.84,28.65c-2.57,1.41-4.54,1.72-7.25,0.12
	c-15.58-9.15-32.13-16.06-49.68-20.4c-3.12-0.77-4.56-2.37-5.45-5.48c-5.14-17.9-10.56-35.73-15.82-53.6
	c-0.83-2.83-1.79-5.14-5.58-3.6c0,27.51,0,55.1,0,82.61c76.7,18.78,127.42,85.32,128.23,160.06
	c0.73,67.34-42.62,141.16-128.32,162.94c0,27.73,0,55.51,0,83.25c4.17,1.85,4.91-0.91,5.76-3.79c5.31-18.03,10.74-36.02,15.94-54.08
	c0.84-2.92,2.19-4.35,5.17-5.11c18.17-4.63,35.35-11.72,51.38-21.48c2.9-1.77,5.13-1.78,8.11-0.13
	C209.04,544.55,226.63,553.99,243.99,563.39z M105,249.96c0,8.39-0.13,16.7,0.13,25c0.04,1.28,1.6,2.96,2.88,3.69
	c5.49,3.11,11.34,5.61,16.7,8.93c43.26,26.79,60.08,84.94,38.02,130.83c-11.61,24.15-29.81,41.32-54.31,52.02
	c-1.37,0.6-3.23,2.22-3.27,3.41c-0.28,8.45-0.15,16.91-0.15,25.47c49.18-13.17,93.56-61.51,93.39-124.96
	C198.23,309.33,151.88,262.24,105,249.96z M105.47,316.59c0,38.99,0,77.25,0,116.19c22.63-16.06,33.7-37.02,31.57-64.14
	C135.28,346.33,124.21,329.4,105.47,316.59z M393.24,273.99c11.31-0.14,20.2-9.19,20.14-20.48c-0.07-11.29-9.07-20.26-20.36-20.27
	c-11.46-0.01-20.61,9.3-20.39,20.74C372.84,265.28,381.97,274.14,393.24,273.99z M468.24,393.99c11.31-0.15,20.2-9.19,20.13-20.48
	c-0.07-11.47-9.42-20.56-20.86-20.26c-11.29,0.29-20.11,9.48-19.89,20.74C447.84,385.28,456.97,394.14,468.24,393.99z
	 M394.93,469.24c-11.28,0.04-20.28,9.05-20.31,20.33c-0.03,11.28,8.91,20.32,20.2,20.42c11.48,0.11,20.67-9.08,20.55-20.57
	C415.26,478.13,406.21,469.2,394.93,469.24z"/>
<path d="M48.58,738.36c2.63,0,4.93,0,7.23,0c242.66,0,485.32,0,727.98,0c10.27,0,18.04,6.79,19.4,16.93
	c1.13,8.4-5.13,17.44-14.04,19.97c-2.03,0.58-4.26,0.59-6.4,0.59c-46.83,0.03-93.66,0.02-140.5,0.02c-1.8,0-3.61,0-6.29,0
	c1.17,1.94,1.91,3.32,2.79,4.61c20.57,30.12,41.19,60.21,61.66,90.4c1.92,2.83,3.91,3.94,7.29,3.81c6.66-0.25,13.33-0.16,20-0.05
	c15.26,0.25,27.14,12.16,27.27,27.46c0.12,14.67,0.12,29.33,0,44c-0.13,15.58-12.06,27.49-27.71,27.49
	c-151.16,0.04-302.32,0.04-453.49,0c-15.88,0-27.67-11.98-27.76-27.95c-0.08-14.33-0.08-28.67,0-43c0.09-16.16,12-27.92,28.25-28.02
	c6.5-0.04,13.01,0.16,19.49-0.12c1.68-0.07,3.94-1.08,4.85-2.41c21.54-31.28,42.93-62.65,64.34-94.02c0.27-0.4,0.39-0.9,0.94-2.21
	c-2.25,0-4.13,0-6.01,0c-105.66,0-211.33,0-316.99,0c-18.45,0-30.14-11.78-30.14-30.38c0-229.66,0-459.32,0-688.98
	c0-18.44,11.8-30.15,30.39-30.15c305.82,0,611.65,0,917.47,0c18.96,0,30.64,11.58,30.64,30.39c0,229.66,0,459.32,0,688.98
	c0,18.26-11.77,30.13-29.88,30.13c-27,0-54,0.01-81-0.02c-2.99,0-6-0.11-8.98-0.41c-10.38-1.04-17.11-9.48-16.66-20.58
	c0.34-8.43,8.96-16.91,18.38-16.69c24.82,0.58,49.66,0.19,74.49,0.19c1.81,0,3.62,0,5.78,0c0-224.8,0-449.21,0-674.06
	c-300.75,0-601.61,0-902.8,0C48.58,288.74,48.58,513.15,48.58,738.36z M339.87,874.29c107.1,0,213.43,0,320.3,0
	c-1.08-1.7-1.83-2.95-2.65-4.15c-18.6-27.22-37.27-54.39-55.72-81.71c-2.26-3.35-4.68-4.39-8.56-4.38
	c-62.14,0.11-124.29,0.11-186.43,0c-3.88-0.01-6.31,1.05-8.57,4.38c-18.17,26.9-36.56,53.66-54.87,80.47
	C342.27,870.52,341.24,872.18,339.87,874.29z M719.77,909.96c-146.43,0-292.46,0-438.36,0c0,9.74,0,19.12,0,28.4
	c146.32,0,292.22,0,438.36,0C719.77,928.84,719.77,919.58,719.77,909.96z"/>
<path d="M767.99,429.61c-28.66,0-57.31,0.06-85.97-0.03c-11.37-0.03-19.32-7.81-19.3-18.5c0.01-9.48,6.94-17.24,16.39-18.34
	c0.66-0.08,1.33-0.11,2-0.11c58.31,0,116.63-0.07,174.94,0.06c10.56,0.02,18.41,8.28,18.38,18.47c-0.03,10.43-7.97,18.36-18.96,18.4
	C826.31,429.69,797.15,429.61,767.99,429.61z"/>
<path d="M767.99,249.62c-27.66,0-55.31,0.06-82.97-0.03c-11.17-0.04-19.07-7.56-19.28-18c-0.21-10.13,7.2-18.22,17.38-18.89
	c2.16-0.14,4.33-0.07,6.5-0.07c53.81,0,107.63-0.02,161.44,0.01c12.34,0.01,20.68,7.9,20.32,19.04
	c-0.33,10.47-8.21,17.88-19.41,17.92C823.97,249.67,795.98,249.62,767.99,249.62z"/>
<path d="M620.12,455.62c23.66,0,47.31-0.08,70.97,0.03c12.32,0.06,20.5,9.27,19.07,21.05c-1.11,9.09-8.51,15.69-18.24,15.86
	c-10.83,0.18-21.66,0.06-32.49,0.06c-36.65,0-73.3,0.03-109.96-0.02c-11.73-0.02-19.79-7.71-19.75-18.55
	c0.04-10.62,8.06-18.35,19.43-18.4C572.81,455.56,596.46,455.62,620.12,455.62z"/>
<path d="M620,309.61c-22.82,0-45.65,0.07-68.47-0.03c-8.57-0.04-15.01-4.62-17.73-12.13c-2.66-7.35-0.83-15.74,5.5-20.23
	c3.34-2.37,7.83-4.36,11.81-4.39c46.31-0.3,92.63-0.27,138.94-0.13c10.56,0.03,18.41,8.28,18.38,18.47
	c-0.03,10.24-7.82,18.3-18.45,18.38C666.65,309.72,643.32,309.6,620,309.61z"/>
<path d="M614.5,333.62c20.82,0,41.65-0.05,62.47,0.02c9.74,0.04,17.34,5.95,19.03,14.47c2.3,11.62-5.61,21.82-17.46,22.45
	c-2.16,0.11-4.33,0.05-6.5,0.05c-39.82,0-79.63,0.03-119.45-0.02c-10.8-0.01-18.64-6.46-19.71-15.94
	c-1.34-11.87,6.79-20.94,19.14-21.01C572.85,333.54,593.67,333.62,614.5,333.62z"/>
<path d="M611.96,181.61c-20.49,0-40.98,0.07-61.47-0.03c-8.55-0.04-15-4.65-17.7-12.16c-2.65-7.35-0.79-15.74,5.54-20.22
	c3.34-2.36,7.83-4.33,11.82-4.36c41.31-0.31,82.63-0.28,123.94-0.13c10.55,0.04,18.39,8.32,18.33,18.51
	c-0.05,10.24-7.85,18.25-18.49,18.34C653.27,181.73,632.61,181.6,611.96,181.61z"/>
<path d="M589,393.66c14.49,0,28.99-0.19,43.47,0.07c9.73,0.17,17.05,7.43,17.79,16.89c0.75,9.58-5.31,17.7-14.76,19.62
	c-1.62,0.33-3.31,0.37-4.97,0.37c-27.98,0.02-55.97,0.05-83.95,0c-11.78-0.02-19.85-7.61-19.87-18.44
	c-0.02-10.81,8.09-18.46,19.81-18.52c14.16-0.07,28.32-0.02,42.48-0.02C589,393.63,589,393.64,589,393.66z"/>
<path d="M592.49,249.62c-13.16,0-26.32,0.04-39.48-0.01c-12.17-0.04-20.31-7.52-20.29-18.52c0.02-10.95,8.22-18.44,20.38-18.45
	c26.65-0.04,53.3-0.04,79.95,0c12.1,0.02,20.4,7.64,20.37,18.54c-0.03,10.93-8.26,18.4-20.45,18.44
	C619.48,249.65,605.98,249.62,592.49,249.62z"/>
<path d="M774.05,455.62c10.49,0,20.99-0.06,31.48,0.02c11.69,0.08,19.91,7.78,19.9,18.51c-0.01,10.76-8.18,18.42-19.92,18.46
	c-21.32,0.07-42.64,0.07-63.96,0c-11.76-0.04-19.82-7.65-19.82-18.48c0-10.8,8.11-18.41,19.85-18.48
	C752.39,455.57,763.22,455.62,774.05,455.62z"/>
<path d="M767.11,307.62c-8.33,0-16.66,0.07-24.98-0.02c-11.4-0.12-19.36-7.74-19.41-18.39c-0.04-10.64,7.96-18.48,19.25-18.56
	c16.65-0.11,33.31-0.1,49.96,0c11.33,0.07,19.44,7.85,19.48,18.41c0.04,10.59-8.02,18.4-19.33,18.54
	C783.77,307.7,775.44,307.62,767.11,307.62z"/>
</svg>
