<?xml version="1.0" encoding="utf-8"?>
<!-- Generator: Adobe Illustrator 24.1.2, SVG Export Plug-In . SVG Version: 6.00 Build 0)  -->
<svg version="1.1" id="Camada_1" xmlns="http://www.w3.org/2000/svg" xmlns:xlink="http://www.w3.org/1999/xlink" x="0px" y="0px"
	 viewBox="0 0 353.3 547" style="enable-background:new 0 0 353.3 547;" xml:space="preserve">
<path d="M332.8,0C228.7,0,124.6,0,20.6,0C7.3,0,0,7.3,0,20.7C0,105,0,189.2,0,273.5c0,84.4,0,168.7,0,253.1
	C0,539.6,7.4,547,20.2,547c104.3,0,208.6,0,312.9,0c12.8,0,20.2-7.4,20.2-20.4c0-168.7,0-337.5,0-506.2C353.3,7.4,345.9,0,332.8,0z
	 M329.7,523.5c-102.1,0-204,0-306.1,0c0-166.6,0-333.1,0-499.8c101.9,0,203.9,0,306.1,0C329.7,190.1,329.7,356.6,329.7,523.5z"/>
<path d="M291.2,39.4c-76.4,0-152.7,0-229.1,0c-13,0-20.4,7.4-20.4,20.6c0,55.4,0,110.9,0,166.3c0,55.7,0,111.3,0,167
	c0,12.7,7.5,20.2,20,20.2c76.6,0,153.2,0,229.7,0c12.6,0,20-7.5,20-20.2c0-111.2,0-222.4,0-333.6C311.6,46.8,304.1,39.4,291.2,39.4z
	 M287.9,389.8c-74.1,0-148.2,0-222.7,0c0-109,0-217.8,0-326.8c74.2,0,148.3,0,222.7,0C287.9,171.8,287.9,280.7,287.9,389.8z"/>
<path d="M176.9,423.8c-24.7-0.4-45.3,20.2-45.3,45.1c0,24.8,20.1,44.9,45,45c24.8,0.1,44.9-19.9,45.1-44.9
	C221.9,444.3,202,424.2,176.9,423.8z M176.7,490.5c-12,0-21.6-9.6-21.6-21.6c0-11.9,9.6-21.6,21.6-21.6c11.9,0,21.6,9.6,21.7,21.6
	C198.3,480.8,188.6,490.5,176.7,490.5z"/>
</svg>
