<?xml version="1.0" encoding="utf-8"?>
<!-- Generator: Adobe Illustrator 24.1.2, SVG Export Plug-In . SVG Version: 6.00 Build 0)  -->
<svg version="1.1" id="Camada_1" xmlns="http://www.w3.org/2000/svg" xmlns:xlink="http://www.w3.org/1999/xlink" x="0px" y="0px"
	 viewBox="0 0 1000 1000" style="enable-background:new 0 0 1000 1000;" xml:space="preserve">
<path d="M599.58,780.99c2.27,17.49,7.57,33.15,15.85,47.79c13.52,23.86,32.55,42,57.17,54.11c2.57,1.26,5.67,1.98,8.53,2.01
	c17,0.18,34,0.06,51,0.1c16.89,0.04,28.67,11.75,28.73,28.54c0.04,12.17,0.07,24.33-0.01,36.5c-0.1,15.96-11.89,27.93-27.78,27.93
	c-155.49,0.04-310.98,0.04-466.47,0c-15.66,0-27.57-11.91-27.71-27.49c-0.12-12.66-0.12-25.33,0-38
	c0.15-15.52,12.15-27.38,27.77-27.47c17.5-0.1,35,0.02,52.5-0.07c2.1-0.01,4.42-0.25,6.25-1.17c41.25-20.66,65.97-53.77,74.31-99.13
	c0.18-0.97,0.12-1.98,0.2-3.66c-2.22,0-4.31,0-6.41,0c-119.33,0-238.65,0-357.98,0c-19.66,0-30.67-10.98-30.67-30.57
	c0-232.65,0-465.3,0-697.95c0-19.28,11.14-30.47,30.32-30.47c310.15,0,620.29,0,930.44,0c18.94,0,30.24,11.22,30.24,30.04
	c0,232.98,0,465.97,0,698.95c0,18.86-11.24,30-30.24,30c-119.66,0-239.32,0-358.98,0C604.51,780.99,602.37,780.99,599.58,780.99z
	 M895.64,121.34c-264.1,0-527.8,0-791.38,0c0,164.06,0,327.77,0,491.39c263.98,0,527.57,0,791.38,0
	C895.64,448.88,895.64,285.29,895.64,121.34z M960.65,649.35c-307.13,0-613.83,0-920.54,0c0,32.29,0,64.22,0,96.37
	c306.93,0,613.63,0,920.54,0C960.65,713.52,960.65,681.59,960.65,649.35z M960.51,613.75c0-185.74,0-371.12,0-556.34
	c-307.07,0-613.78,0-920.35,0c0,185.67,0,370.93,0,556.24c9.68,0,19.06,0,28.71,0c0-2.5,0-4.65,0-6.8c0-163.33,0-326.65,0-489.98
	c0-19.89,11-30.87,30.92-30.87c266.65,0,533.31,0,799.96,0c20.27,0,31.11,10.87,31.11,31.17c0,163.33,0,326.65,0,489.98
	c0,2.12,0,4.24,0,6.6C940.94,613.75,950.54,613.75,960.51,613.75z M435.48,781.13c-2.19,19.78-7.45,38.41-16.04,56.05
	c-8.57,17.61-19.98,33.22-34.32,47.39c76.8,0,152.84,0,229.6,0c-14.66-14.29-25.96-30.04-34.58-47.7
	c-8.59-17.61-13.62-36.29-15.99-55.73C521.16,781.13,478.71,781.13,435.48,781.13z M725.65,920.35c-150.8,0-301.16,0-451.54,0
	c0,7.63,0,14.89,0,22.37c150.6,0,300.96,0,451.54,0C725.65,935.19,725.65,927.93,725.65,920.35z"/>
<path d="M754.42,465.77c12.48,12.48,24.35,24.37,36.26,36.24c12.97,12.92,13.01,28.97,0.11,41.85
	c-10.26,10.24-20.49,20.52-30.77,30.75c-12.25,12.2-28.45,12.29-40.83,0.11c-11.05-10.87-21.94-21.9-32.9-32.86
	c-1.17-1.16-2.39-2.27-4.23-4.03c-3.31,3.56-6.34,7.08-9.63,10.33c-17.99,17.8-46.83,10.78-54.52-13.45
	c-3.57-11.25-6.26-22.77-9.5-34.74c-2.04,0-4.16,0-6.29,0c-116.5,0-233,0-349.5,0c-19.69,0-30.75-10.96-30.75-30.5
	c0-95.33,0-190.66,0-286c0-19.31,11.12-30.5,30.29-30.5c145.17,0,290.33,0,435.5,0c18.92,0,30.21,11.24,30.21,30.08
	c0,67.17,0.06,134.33-0.12,201.5c-0.01,5.12,0.99,7.6,6.48,8.67c8.96,1.75,17.73,4.51,26.56,6.92
	c25.48,6.95,33.35,35.76,14.94,54.74C762.25,458.47,758.53,461.83,754.42,465.77z M682.7,269.35c-142.17,0-283.87,0-425.42,0
	c0,65.4,0,130.44,0,195.47c114.03,0,227.66,0,341.55,0c-0.29-1.34-0.48-2.46-0.77-3.56c-4.74-17.85-9.54-35.68-14.21-53.54
	c-5.05-19.29,6.55-37.69,26-41.9c7.77-1.68,14.84,0.73,22.04,2.62c16.87,4.43,33.7,8.99,50.81,13.57
	C682.7,344.26,682.7,306.97,682.7,269.35z M257.08,233.63c142.14,0,283.84,0,425.54,0c0-15.29,0-30.22,0-45.37
	c-141.94,0-283.63,0-425.54,0C257.08,203.47,257.08,218.4,257.08,233.63z M618.26,401.02c10.76,40.28,21.27,79.65,32.11,120.22
	c11.3-11.38,21.8-21.94,32.54-32.76c19.18,19.04,38.04,37.76,56.3,55.88c7.32-7.29,14.68-14.63,22.88-22.79
	c-18.54-18.31-37.47-37-57.16-56.44c10.85-10.82,21.5-21.43,32.41-32.31C697.89,422.28,658.6,411.79,618.26,401.02z"/>
<path d="M500.36,681.99c17.5,0,35-0.07,52.49,0.03c10.1,0.06,17.27,6.32,18.22,15.58c1.11,10.77-6.57,19.27-17.9,19.35
	c-20.83,0.14-41.66,0.04-62.49,0.04c-14,0-28,0.05-41.99-0.01c-11.35-0.05-19.03-7.08-19.1-17.32
	c-0.07-10.49,7.65-17.62,19.28-17.65C466.03,681.96,483.2,681.99,500.36,681.99z"/>
<path d="M369.66,328.99c18.5,0,36.99-0.03,55.49,0.01c16.89,0.04,28.66,11.74,28.71,28.56c0.05,19.33,0.05,38.66,0,57.99
	c-0.04,16.58-11.77,28.4-28.29,28.43c-37.49,0.05-74.99,0.05-112.48,0c-16.29-0.02-28.14-11.8-28.2-28
	c-0.08-19.66-0.09-39.33,0-58.99c0.07-16.13,12.01-27.92,28.28-27.97C332,328.94,350.83,328.99,369.66,328.99z M320.1,408.65
	c33.08,0,65.78,0,98.37,0c0-15.06,0-29.77,0-44.4c-32.98,0-65.56,0-98.37,0C320.1,379.09,320.1,393.68,320.1,408.65z"/>
</svg>
